<svg xmlns="http://www.w3.org/2000/svg" xmlns:xlink="http://www.w3.org/1999/xlink" width="500" zoomAndPan="magnify" viewBox="0 0 375 374.999991" height="500" preserveAspectRatio="xMidYMid meet" version="1.0"><defs><clipPath id="5a4ff202e3"><path d="M 11.03125 65 L 364 65 L 364 199 L 11.03125 199 Z M 11.03125 65 " clip-rule="nonzero"/></clipPath></defs><g clip-path="url(#5a4ff202e3)"><path fill="#701e2f" d="M 321.375 198.972656 L 252.109375 198.972656 C 247.148438 191.117188 240.53125 184.085938 233.089844 178.503906 L 321.992188 178.503906 C 333.777344 178.503906 343.496094 168.992188 343.496094 157 L 343.496094 107.378906 C 343.496094 95.59375 333.777344 85.878906 321.992188 85.878906 L 53.003906 85.878906 C 41.21875 85.878906 31.5 95.59375 31.5 107.378906 L 31.5 157 C 31.5 168.992188 41.21875 178.503906 53.003906 178.503906 L 141.703125 178.503906 C 134.257812 184.085938 127.847656 191.117188 122.886719 198.972656 L 53.417969 198.972656 C 30.054688 198.972656 11.03125 179.953125 11.03125 156.589844 L 11.03125 107.792969 C 11.03125 84.429688 30.054688 65.410156 53.417969 65.410156 L 321.375 65.410156 C 344.945312 65.410156 363.964844 84.429688 363.964844 107.792969 L 363.964844 156.589844 C 363.964844 179.953125 344.945312 198.972656 321.375 198.972656 Z M 219.234375 170.234375 C 209.519531 165.890625 198.765625 163.410156 187.394531 163.410156 C 176.230469 163.410156 165.480469 165.890625 155.761719 170.234375 L 53.003906 170.234375 C 45.765625 170.234375 39.769531 164.238281 39.769531 157 L 39.769531 107.378906 C 39.769531 100.144531 45.765625 94.148438 53.003906 94.148438 L 321.992188 94.148438 C 329.230469 94.148438 335.226562 100.144531 335.226562 107.378906 L 335.226562 157 C 335.226562 164.445312 329.230469 170.234375 321.992188 170.234375 Z M 319.097656 155.554688 L 301.109375 155.554688 C 298.835938 155.554688 296.976562 153.695312 296.976562 151.417969 L 296.976562 112.136719 C 296.976562 109.863281 298.835938 108 301.109375 108 L 319.097656 108 C 321.375 108 323.234375 109.863281 323.234375 112.136719 C 323.234375 114.410156 321.375 116.269531 319.097656 116.269531 L 305.246094 116.269531 L 305.246094 127.640625 L 319.097656 127.640625 C 321.375 127.640625 323.234375 129.503906 323.234375 131.777344 C 323.234375 134.050781 321.375 135.914062 319.097656 135.914062 L 305.246094 135.914062 L 305.246094 147.285156 L 319.097656 147.285156 C 321.375 147.285156 323.234375 149.144531 323.234375 151.417969 C 323.234375 153.695312 321.375 155.554688 319.097656 155.554688 Z M 274.234375 155.554688 C 269.683594 155.554688 265.34375 153.695312 262.242188 150.179688 C 258.726562 146.25 257.070312 141.082031 257.070312 134.878906 L 257.070312 112.136719 C 257.070312 109.863281 258.933594 108 261.207031 108 C 263.480469 108 265.34375 109.863281 265.34375 112.136719 L 265.34375 134.878906 C 265.34375 143.5625 269.890625 147.285156 274.234375 147.285156 C 278.78125 147.285156 283.535156 143.355469 283.535156 134.878906 L 283.535156 112.136719 C 283.535156 109.863281 285.398438 108 287.671875 108 C 289.945312 108 291.808594 109.863281 291.808594 112.136719 L 291.808594 134.878906 C 291.808594 148.523438 282.917969 155.554688 274.234375 155.554688 Z M 247.5625 156.175781 C 246.113281 156.175781 244.875 155.347656 244.046875 154.105469 L 228.953125 128.054688 L 228.953125 152.039062 C 228.953125 154.3125 227.09375 156.175781 224.816406 156.175781 C 222.542969 156.175781 220.683594 154.3125 220.683594 152.039062 L 220.683594 112.757812 C 220.683594 110.894531 221.921875 109.242188 223.578125 108.828125 C 225.4375 108.414062 227.300781 109.035156 228.332031 110.6875 L 243.425781 136.738281 L 243.425781 112.757812 C 243.425781 110.480469 245.285156 108.621094 247.5625 108.621094 C 249.835938 108.621094 251.695312 110.480469 251.695312 112.757812 L 251.695312 152.039062 C 251.695312 153.902344 250.457031 155.554688 248.800781 155.96875 C 248.386719 156.175781 247.976562 156.175781 247.5625 156.175781 Z M 211.171875 156.175781 C 208.898438 156.175781 207.035156 154.3125 207.035156 152.039062 L 207.035156 112.757812 C 207.035156 110.480469 208.898438 108.621094 211.171875 108.621094 C 213.445312 108.621094 215.308594 110.480469 215.308594 112.757812 L 215.308594 152.039062 C 215.308594 154.3125 213.445312 156.175781 211.171875 156.175781 Z M 185.535156 156.175781 C 183.261719 156.175781 181.398438 154.3125 181.398438 152.039062 L 181.398438 116.890625 L 173.542969 116.890625 C 171.269531 116.890625 169.40625 115.03125 169.40625 112.757812 C 169.40625 110.480469 171.269531 108.621094 173.542969 108.621094 L 197.734375 108.621094 C 200.007812 108.621094 201.867188 110.480469 201.867188 112.757812 C 201.867188 115.03125 200.007812 116.890625 197.734375 116.890625 L 189.667969 116.890625 L 189.667969 152.039062 C 189.667969 154.3125 187.808594 156.175781 185.535156 156.175781 Z M 159.898438 156.382812 C 158.449219 156.382812 157.207031 155.554688 156.382812 154.3125 L 141.289062 128.261719 L 141.289062 152.246094 C 141.289062 154.519531 139.425781 156.382812 137.152344 156.382812 C 134.878906 156.382812 133.019531 154.519531 133.019531 152.246094 L 133.019531 112.960938 C 133.019531 111.101562 134.257812 109.449219 135.914062 109.035156 C 137.773438 108.414062 139.632812 109.242188 140.667969 110.894531 L 155.761719 136.945312 L 155.761719 112.960938 C 155.761719 110.6875 157.621094 108.828125 159.898438 108.828125 C 162.171875 108.828125 164.03125 110.6875 164.03125 112.960938 L 164.03125 152.246094 C 164.03125 154.105469 162.792969 155.761719 161.136719 156.175781 C 160.722656 156.175781 160.308594 156.382812 159.898438 156.382812 Z M 109.449219 153.488281 C 99.523438 153.488281 91.253906 144.183594 91.253906 132.605469 C 91.253906 121.027344 99.523438 111.515625 109.449219 111.515625 C 119.578125 111.515625 127.640625 121.027344 127.640625 132.605469 C 127.640625 144.183594 119.578125 153.488281 109.449219 153.488281 Z M 109.449219 119.785156 C 104.070312 119.785156 99.523438 125.574219 99.523438 132.605469 C 99.523438 139.632812 104.070312 145.214844 109.449219 145.214844 C 115.03125 145.214844 119.371094 139.632812 119.371094 132.605469 C 119.371094 125.574219 115.03125 119.785156 109.449219 119.785156 Z M 81.949219 156.382812 L 71.199219 156.382812 C 60.445312 156.382812 51.554688 147.492188 51.554688 136.738281 L 51.554688 128.46875 C 51.554688 117.511719 60.445312 108.828125 71.199219 108.828125 L 81.949219 108.828125 C 84.222656 108.828125 86.085938 110.6875 86.085938 112.960938 C 86.085938 115.238281 84.222656 117.097656 81.949219 117.097656 L 71.199219 117.097656 C 64.996094 117.097656 59.828125 122.058594 59.828125 128.46875 L 59.828125 136.738281 C 59.828125 142.941406 64.996094 148.113281 71.199219 148.113281 L 81.949219 148.113281 C 84.222656 148.113281 86.085938 149.972656 86.085938 152.246094 C 86.085938 154.519531 84.222656 156.382812 81.949219 156.382812 Z M 81.949219 156.382812 " fill-opacity="1" fill-rule="evenodd"/></g><path fill="#701e2f" d="M 187.394531 309.589844 C 149.144531 309.589844 117.925781 278.367188 117.925781 239.910156 C 117.925781 201.453125 149.144531 170.234375 187.394531 170.234375 C 225.851562 170.234375 257.070312 201.453125 257.070312 239.910156 C 257.070312 278.367188 225.851562 309.589844 187.394531 309.589844 Z M 172.300781 282.710938 C 168.992188 282.710938 165.890625 281.261719 163.617188 278.988281 C 161.34375 276.714844 159.898438 273.613281 159.898438 270.304688 C 159.898438 267.203125 161.34375 264.101562 163.617188 261.828125 L 185.328125 239.910156 L 163.617188 217.996094 C 161.34375 215.722656 159.898438 212.621094 159.898438 209.3125 C 159.898438 206.210938 161.34375 203.109375 163.617188 200.835938 C 165.890625 198.351562 168.992188 197.113281 172.300781 197.113281 C 175.402344 197.113281 178.503906 198.351562 180.777344 200.835938 L 211.378906 231.226562 C 213.652344 233.5 214.894531 236.601562 214.894531 239.910156 C 214.894531 243.21875 213.652344 246.320312 211.378906 248.59375 L 180.777344 278.988281 C 178.503906 281.261719 175.402344 282.710938 172.300781 282.710938 Z M 172.300781 205.382812 C 171.0625 205.382812 170.234375 205.796875 169.40625 206.625 C 168.582031 207.242188 168.167969 208.277344 168.167969 209.3125 C 168.167969 210.550781 168.582031 211.378906 169.40625 212.207031 L 194.21875 237.015625 C 195.871094 238.671875 195.871094 241.152344 194.21875 242.804688 L 169.40625 267.617188 C 168.582031 268.445312 168.167969 269.269531 168.167969 270.511719 C 168.167969 271.546875 168.582031 272.371094 169.40625 273.199219 C 170.855469 274.644531 173.542969 274.644531 174.988281 273.199219 L 205.589844 242.804688 C 206.210938 241.980469 206.625 240.945312 206.625 239.910156 C 206.625 238.878906 206.210938 237.84375 205.589844 237.015625 L 174.988281 206.625 C 174.371094 205.796875 173.335938 205.382812 172.300781 205.382812 Z M 172.300781 205.382812 " fill-opacity="1" fill-rule="evenodd"/></svg>