<svg xmlns="http://www.w3.org/2000/svg" xmlns:xlink="http://www.w3.org/1999/xlink" width="500" zoomAndPan="magnify" viewBox="0 0 375 374.999991" height="500" preserveAspectRatio="xMidYMid meet" version="1.0"><defs><clipPath id="b334a3e9fe"><path d="M 17.65625 16.542969 L 357.40625 16.542969 L 357.40625 358.542969 L 17.65625 358.542969 Z M 17.65625 16.542969 " clip-rule="nonzero"/></clipPath></defs><rect x="-37.5" width="450" fill="#ffffff" y="-37.499999" height="449.999989" fill-opacity="1"/><rect x="-37.5" width="450" fill="#ffffff" y="-37.499999" height="449.999989" fill-opacity="1"/><path fill="#701e2f" d="M 71.8125 214.464844 L 98.824219 214.464844 C 102.570312 214.464844 105.609375 211.429688 105.609375 207.683594 L 105.609375 180.671875 C 105.609375 176.925781 102.570312 173.886719 98.824219 173.886719 L 71.8125 173.886719 C 68.066406 173.886719 65.03125 176.925781 65.03125 180.671875 L 65.03125 207.683594 C 65.03125 211.429688 68.066406 214.464844 71.8125 214.464844 Z M 71.8125 214.464844 " fill-opacity="1" fill-rule="nonzero"/><path fill="#701e2f" d="M 71.8125 270.3125 L 98.824219 270.3125 C 102.570312 270.3125 105.609375 267.277344 105.609375 263.527344 L 105.609375 236.515625 C 105.609375 232.773438 102.570312 229.734375 98.824219 229.734375 L 71.8125 229.734375 C 68.066406 229.734375 65.03125 232.769531 65.03125 236.515625 L 65.03125 263.527344 C 65.03125 267.277344 68.066406 270.3125 71.8125 270.3125 Z M 71.8125 270.3125 " fill-opacity="1" fill-rule="nonzero"/><path fill="#701e2f" d="M 71.8125 326.15625 L 98.824219 326.15625 C 102.570312 326.15625 105.609375 323.121094 105.609375 319.375 L 105.609375 292.363281 C 105.609375 288.617188 102.570312 285.578125 98.824219 285.578125 L 71.8125 285.578125 C 68.066406 285.578125 65.03125 288.617188 65.03125 292.363281 L 65.03125 319.375 C 65.03125 323.121094 68.066406 326.15625 71.8125 326.15625 Z M 71.8125 326.15625 " fill-opacity="1" fill-rule="nonzero"/><path fill="#701e2f" d="M 139.929688 214.464844 L 166.941406 214.464844 C 170.6875 214.464844 173.726562 211.429688 173.726562 207.683594 L 173.726562 180.671875 C 173.726562 176.925781 170.691406 173.886719 166.941406 173.886719 L 139.929688 173.886719 C 136.183594 173.886719 133.148438 176.925781 133.148438 180.671875 L 133.148438 207.683594 C 133.148438 211.429688 136.1875 214.464844 139.929688 214.464844 Z M 139.929688 214.464844 " fill-opacity="1" fill-rule="nonzero"/><path fill="#701e2f" d="M 139.929688 270.3125 L 166.941406 270.3125 C 170.6875 270.3125 173.726562 267.277344 173.726562 263.527344 L 173.726562 236.515625 C 173.726562 232.773438 170.691406 229.734375 166.941406 229.734375 L 139.929688 229.734375 C 136.183594 229.734375 133.148438 232.769531 133.148438 236.515625 L 133.148438 263.527344 C 133.148438 267.277344 136.1875 270.3125 139.929688 270.3125 Z M 139.929688 270.3125 " fill-opacity="1" fill-rule="nonzero"/><path fill="#701e2f" d="M 139.929688 326.15625 L 166.941406 326.15625 C 170.6875 326.15625 173.726562 323.121094 173.726562 319.375 L 173.726562 292.363281 C 173.726562 288.617188 170.691406 285.578125 166.941406 285.578125 L 139.929688 285.578125 C 136.183594 285.578125 133.148438 288.617188 133.148438 292.363281 L 133.148438 319.375 C 133.148438 323.121094 136.1875 326.15625 139.929688 326.15625 Z M 139.929688 326.15625 " fill-opacity="1" fill-rule="nonzero"/><path fill="#701e2f" d="M 208.050781 214.464844 L 235.0625 214.464844 C 238.808594 214.464844 241.84375 211.429688 241.84375 207.683594 L 241.84375 180.671875 C 241.84375 176.925781 238.808594 173.886719 235.0625 173.886719 L 208.050781 173.886719 C 204.304688 173.886719 201.269531 176.925781 201.269531 180.671875 L 201.269531 207.683594 C 201.265625 211.429688 204.304688 214.464844 208.050781 214.464844 Z M 208.050781 214.464844 " fill-opacity="1" fill-rule="nonzero"/><path fill="#701e2f" d="M 235.0625 285.578125 L 208.050781 285.578125 C 204.304688 285.578125 201.269531 288.617188 201.269531 292.363281 L 201.269531 319.375 C 201.269531 323.121094 204.304688 326.15625 208.050781 326.15625 L 235.0625 326.15625 C 238.808594 326.15625 241.84375 323.121094 241.84375 319.375 L 241.84375 292.363281 C 241.84375 288.617188 238.808594 285.578125 235.0625 285.578125 Z M 235.0625 285.578125 " fill-opacity="1" fill-rule="nonzero"/><path fill="#701e2f" d="M 276.167969 214.464844 L 303.179688 214.464844 C 306.925781 214.464844 309.964844 211.429688 309.964844 207.683594 L 309.964844 180.671875 C 309.964844 176.925781 306.925781 173.886719 303.179688 173.886719 L 276.167969 173.886719 C 272.421875 173.886719 269.386719 176.925781 269.386719 180.671875 L 269.386719 207.683594 C 269.386719 211.429688 272.421875 214.464844 276.167969 214.464844 Z M 276.167969 214.464844 " fill-opacity="1" fill-rule="nonzero"/><path fill="#701e2f" d="M 276.167969 270.3125 L 303.179688 270.3125 C 306.925781 270.3125 309.964844 267.277344 309.964844 263.527344 L 309.964844 236.515625 C 309.964844 232.773438 306.925781 229.734375 303.179688 229.734375 L 276.167969 229.734375 C 272.421875 229.734375 269.386719 232.769531 269.386719 236.515625 L 269.386719 263.527344 C 269.386719 267.277344 272.421875 270.3125 276.167969 270.3125 Z M 276.167969 270.3125 " fill-opacity="1" fill-rule="nonzero"/><g clip-path="url(#b334a3e9fe)"><path fill="#701e2f" d="M 277.660156 16.5625 C 271.300781 16.5625 266.140625 21.722656 266.140625 28.085938 L 266.140625 51.234375 L 109.445312 51.234375 L 109.445312 28.085938 C 109.445312 21.722656 104.289062 16.5625 97.925781 16.5625 C 91.5625 16.5625 86.40625 21.722656 86.40625 28.085938 L 86.40625 51.234375 L 50.097656 51.234375 C 32.210938 51.234375 17.65625 65.785156 17.65625 83.671875 L 17.65625 325.992188 C 17.65625 343.878906 32.210938 358.429688 50.097656 358.429688 L 324.894531 358.429688 C 342.785156 358.429688 357.335938 343.878906 357.335938 325.992188 L 357.335938 83.671875 C 357.335938 65.785156 342.785156 51.234375 324.894531 51.234375 L 289.179688 51.234375 L 289.179688 28.085938 C 289.179688 21.722656 284.023438 16.5625 277.660156 16.5625 Z M 86.40625 67.761719 L 86.40625 82.0625 C 86.40625 88.425781 91.5625 93.582031 97.925781 93.582031 C 104.289062 93.582031 109.445312 88.425781 109.445312 82.0625 L 109.445312 67.761719 C 113.621094 71.128906 116.292969 76.28125 116.292969 82.0625 C 116.292969 92.207031 108.070312 100.429688 97.925781 100.429688 C 87.78125 100.429688 79.558594 92.207031 79.558594 82.0625 C 79.558594 76.28125 82.230469 71.128906 86.40625 67.761719 Z M 341.355469 325.992188 C 341.355469 335.066406 333.972656 342.449219 324.894531 342.449219 L 50.097656 342.449219 C 41.023438 342.449219 33.640625 335.066406 33.640625 325.992188 L 33.640625 157.597656 L 341.355469 157.597656 Z M 296.027344 82.0625 C 296.027344 92.207031 287.804688 100.429688 277.660156 100.429688 C 267.515625 100.429688 259.292969 92.207031 259.292969 82.0625 C 259.292969 76.28125 261.964844 71.128906 266.140625 67.761719 L 266.140625 82.0625 C 266.140625 88.425781 271.296875 93.582031 277.660156 93.582031 C 284.023438 93.582031 289.179688 88.425781 289.179688 82.0625 L 289.179688 67.757812 C 293.355469 71.128906 296.027344 76.28125 296.027344 82.0625 Z M 296.027344 82.0625 " fill-opacity="1" fill-rule="nonzero"/></g><path fill="#701e2f" d="M 219.417969 273.890625 L 251.609375 241.703125 C 254.730469 238.582031 254.730469 233.523438 251.609375 230.402344 C 248.488281 227.28125 243.425781 227.28125 240.304688 230.402344 L 219.417969 251.289062 L 211.03125 242.902344 C 207.910156 239.78125 202.851562 239.777344 199.730469 242.902344 C 196.609375 246.023438 196.609375 251.082031 199.730469 254.203125 Z M 219.417969 273.890625 " fill-opacity="1" fill-rule="nonzero"/></svg>