<svg xmlns="http://www.w3.org/2000/svg" xmlns:xlink="http://www.w3.org/1999/xlink" width="500" zoomAndPan="magnify" viewBox="0 0 375 374.999991" height="500" preserveAspectRatio="xMidYMid meet" version="1.0"><defs><clipPath id="297af4ff4d"><path d="M 235 206 L 352.335938 206 L 352.335938 331.730469 L 235 331.730469 Z M 235 206 " clip-rule="nonzero"/></clipPath><clipPath id="e70b33256e"><path d="M 22.335938 206 L 114 206 L 114 328 L 22.335938 328 Z M 22.335938 206 " clip-rule="nonzero"/></clipPath></defs><rect x="-37.5" width="450" fill="#ffffff" y="-37.499999" height="449.999989" fill-opacity="1"/><rect x="-37.5" width="450" fill="#ffffff" y="-37.499999" height="449.999989" fill-opacity="1"/><path fill="#701e2f" d="M 67.726562 116.300781 C 87.34375 116.300781 103.175781 132.152344 103.175781 151.835938 C 103.175781 171.511719 87.34375 187.398438 67.726562 187.398438 C 48.128906 187.398438 32.324219 171.519531 32.324219 151.835938 C 32.324219 132.152344 48.128906 116.300781 67.726562 116.300781 Z M 67.726562 108.476562 C 43.871094 108.476562 24.46875 127.9375 24.46875 151.84375 C 24.46875 175.761719 43.871094 195.25 67.726562 195.25 C 91.582031 195.25 111.023438 175.761719 111.023438 151.84375 C 111.023438 127.933594 91.582031 108.476562 67.726562 108.476562 Z M 67.726562 108.476562 " fill-opacity="1" fill-rule="evenodd"/><path fill="#701e2f" d="M 306.914062 116.300781 C 326.53125 116.300781 342.347656 132.175781 342.347656 151.863281 C 342.347656 171.539062 326.53125 187.375 306.914062 187.375 C 287.316406 187.375 271.511719 171.542969 271.511719 151.863281 C 271.511719 132.179688 287.316406 116.300781 306.914062 116.300781 Z M 306.914062 108.453125 C 283.0625 108.453125 263.660156 127.960938 263.660156 151.863281 C 263.660156 175.757812 283.0625 195.25 306.914062 195.25 C 330.792969 195.25 350.21875 175.761719 350.21875 151.863281 C 350.21875 127.960938 330.796875 108.453125 306.914062 108.453125 Z M 306.914062 108.453125 " fill-opacity="1" fill-rule="evenodd"/><g clip-path="url(#297af4ff4d)"><path fill="#701e2f" d="M 306.914062 206.429688 C 281.78125 206.429688 261.414062 226.675781 261.414062 251.65625 L 261.414062 282.953125 C 261.324219 285.1875 263.09375 287.042969 265.351562 287.042969 C 267.574219 287.042969 269.371094 285.183594 269.265625 282.953125 L 269.265625 251.65625 C 269.265625 230.914062 285.980469 214.28125 306.914062 214.28125 C 327.878906 214.28125 344.617188 230.914062 344.617188 251.65625 L 344.617188 308.546875 C 344.617188 317.261719 337.695312 324.183594 328.957031 324.183594 L 250.945312 324.183594 C 248.523438 324.183594 246.988281 323.277344 245.710938 321.699219 C 244.40625 320.089844 243.589844 317.699219 243.5 315.230469 C 243.414062 312.765625 244.042969 310.324219 245.296875 308.585938 C 246.554688 306.882812 248.285156 305.71875 251.292969 305.429688 L 303.910156 300.585938 C 308.953125 300.132812 312.820312 298.273438 315.03125 295.21875 C 317.238281 292.167969 317.539062 288.691406 317.539062 285.53125 L 317.539062 249.347656 C 317.625 247.101562 315.855469 245.238281 313.601562 245.238281 C 311.375 245.238281 309.582031 247.101562 309.683594 249.347656 L 309.683594 285.53125 C 309.683594 288.058594 309.296875 289.730469 308.652344 290.613281 C 308.003906 291.523438 306.855469 292.429688 303.160156 292.777344 L 250.558594 297.625 C 245.539062 298.101562 241.425781 300.605469 238.964844 304.003906 C 236.476562 307.394531 235.503906 311.53125 235.648438 315.503906 C 235.808594 319.507812 237.058594 323.472656 239.613281 326.625 C 242.160156 329.78125 246.226562 332.039062 250.945312 332.039062 L 328.960938 332.039062 C 341.917969 332.039062 352.46875 321.476562 352.46875 308.550781 L 352.46875 251.652344 C 352.464844 226.671875 332.066406 206.429688 306.914062 206.429688 Z M 306.914062 206.429688 " fill-opacity="1" fill-rule="evenodd"/></g><g clip-path="url(#e70b33256e)"><path fill="#701e2f" d="M 67.726562 206.429688 C 42.59375 206.429688 22.214844 226.648438 22.214844 251.65625 L 22.214844 323.855469 C 22.214844 326.019531 23.96875 327.769531 26.128906 327.769531 L 53.96875 327.769531 C 56.148438 327.789062 57.949219 326.042969 57.949219 323.855469 C 57.949219 321.652344 56.148438 319.898438 53.96875 319.921875 L 30.042969 319.921875 L 30.042969 251.652344 C 30.042969 230.910156 46.765625 214.277344 67.726562 214.277344 C 88.679688 214.277344 105.402344 230.910156 105.402344 251.652344 L 105.402344 267.660156 C 105.382812 269.84375 107.128906 271.636719 109.339844 271.636719 C 111.519531 271.636719 113.28125 269.84375 113.253906 267.660156 L 113.253906 251.652344 C 113.25 226.648438 92.859375 206.429688 67.726562 206.429688 Z M 67.726562 206.429688 " fill-opacity="1" fill-rule="evenodd"/></g><path fill="#701e2f" d="M 141.371094 220.230469 C 139.398438 220.230469 137.734375 221.65625 137.476562 223.605469 L 133.605469 250.402344 C 132.863281 255.59375 140.652344 256.695312 141.386719 251.507812 L 144.761719 228.082031 L 186.9375 228.082031 L 174.207031 316.386719 L 132.003906 316.386719 L 133.753906 304.347656 L 159.410156 289.550781 C 163.496094 287.191406 165.898438 283.25 166.523438 279.253906 C 167.171875 275.257812 166.285156 271.203125 164.40625 267.6875 C 162.542969 264.183594 159.625 261.089844 155.777344 259.382812 C 151.945312 257.648438 147.164062 257.480469 142.558594 259.507812 L 101.292969 277.71875 C 97.890625 279.234375 96.378906 279.035156 95.359375 278.582031 C 94.367188 278.132812 93.261719 276.921875 92.007812 274.757812 L 76.738281 248.074219 C 75.675781 246.191406 73.296875 245.5 71.417969 246.558594 C 69.488281 247.621094 68.816406 250.0625 69.925781 251.96875 L 85.210938 278.65625 C 86.773438 281.378906 88.785156 284.234375 92.203125 285.746094 C 95.640625 287.289062 99.882812 286.9375 104.464844 284.902344 L 145.734375 266.695312 C 148.503906 265.460938 150.621094 265.671875 152.585938 266.542969 C 154.5625 267.433594 156.332031 269.203125 157.476562 271.371094 C 158.625 273.53125 159.082031 276 158.757812 278.007812 C 158.429688 279.996094 157.566406 281.535156 155.488281 282.742188 L 94.644531 317.847656 C 87.074219 322.214844 77.625 319.6875 73.277344 312.136719 L 47.648438 267.515625 C 46.589844 265.597656 44.140625 264.925781 42.242188 266.03125 C 40.335938 267.128906 39.714844 269.570312 40.835938 271.457031 L 66.445312 316.03125 C 72.890625 327.257812 87.359375 331.132812 98.578125 324.667969 L 125.121094 309.351562 L 123.609375 319.777344 C 123.28125 322.136719 125.097656 324.25 127.484375 324.25 L 177.59375 324.25 C 179.539062 324.25 181.183594 322.804688 181.46875 320.878906 L 195.355469 224.742188 C 195.699219 222.359375 193.859375 220.242188 191.460938 220.242188 L 141.371094 220.242188 Z M 141.371094 220.230469 " fill-opacity="1" fill-rule="evenodd"/><path fill="#701e2f" d="M 139.835938 50.980469 L 234.71875 50.980469 C 242.726562 50.980469 249.082031 57.335938 249.082031 65.425781 L 249.082031 115.929688 C 249.082031 124.019531 242.726562 130.378906 234.71875 130.378906 L 222.019531 130.378906 C 219.859375 130.378906 218.082031 132.128906 218.082031 134.292969 L 218.082031 157.804688 C 218.082031 159.429688 217.175781 160.289062 216.140625 160.574219 C 215.101562 160.859375 213.894531 160.894531 212.398438 158.28125 L 197.582031 132.34375 C 196.886719 131.117188 195.59375 130.378906 194.1875 130.378906 L 139.859375 130.378906 C 131.828125 130.378906 125.5 124.019531 125.5 115.929688 L 125.5 65.425781 C 125.5 57.335938 131.808594 50.980469 139.835938 50.980469 Z M 139.835938 43.132812 C 127.59375 43.132812 117.640625 53.148438 117.640625 65.429688 L 117.640625 115.933594 C 117.640625 128.222656 127.617188 138.238281 139.859375 138.238281 L 191.917969 138.238281 L 205.589844 162.179688 C 208.441406 167.171875 213.761719 169.363281 218.148438 168.171875 C 222.542969 167.003906 225.9375 162.851562 225.9375 157.8125 L 225.9375 138.242188 L 234.71875 138.242188 C 246.960938 138.242188 256.9375 128.226562 256.9375 115.9375 L 256.9375 65.425781 C 256.9375 53.144531 246.964844 43.128906 234.71875 43.128906 L 139.835938 43.128906 Z M 139.835938 43.132812 " fill-opacity="1" fill-rule="evenodd"/></svg>