<svg xmlns="http://www.w3.org/2000/svg" xmlns:xlink="http://www.w3.org/1999/xlink" width="227" zoomAndPan="magnify" viewBox="0 0 170.25 72" height="96" preserveAspectRatio="xMidYMid meet" version="1.0"><defs><g/><clipPath id="2fc3f07672"><path d="M 0 0.15625 L 169.503906 0.15625 L 169.503906 71.839844 L 0 71.839844 Z M 0 0.15625 " clip-rule="nonzero"/></clipPath><clipPath id="09439dc0af"><path d="M 31.476562 0.15625 L 103.160156 0.15625 L 103.160156 71.839844 L 31.476562 71.839844 Z M 31.476562 0.15625 " clip-rule="nonzero"/></clipPath></defs><g clip-path="url(#2fc3f07672)"><path fill="#ffffff" d="M 0 0.15625 L 169.503906 0.15625 L 169.503906 71.84375 L 0 71.84375 Z M 0 0.15625 " fill-opacity="1" fill-rule="nonzero"/><path fill="#ffffff" d="M 0 0.15625 L 169.503906 0.15625 L 169.503906 71.84375 L 0 71.84375 Z M 0 0.15625 " fill-opacity="1" fill-rule="nonzero"/></g><path fill="#100f0d" d="M 95.011719 32.507812 C 94.640625 32.507812 94.320312 32.242188 94.261719 31.871094 C 92.441406 20.128906 83.296875 11.023438 71.503906 9.214844 C 71.089844 9.152344 70.804688 8.769531 70.871094 8.355469 C 70.933594 7.945312 71.320312 7.660156 71.734375 7.726562 C 77.796875 8.65625 83.304688 11.4375 87.664062 15.78125 C 92.027344 20.121094 94.824219 25.601562 95.757812 31.640625 C 95.824219 32.050781 95.539062 32.433594 95.125 32.5 C 95.085938 32.503906 95.046875 32.507812 95.011719 32.507812 " fill-opacity="1" fill-rule="nonzero"/><path fill="#100f0d" d="M 39.625 32.507812 C 39.585938 32.507812 39.546875 32.503906 39.507812 32.5 C 39.09375 32.433594 38.8125 32.050781 38.875 31.640625 C 39.808594 25.601562 42.609375 20.121094 46.96875 15.78125 C 51.328125 11.4375 56.835938 8.65625 62.902344 7.726562 C 63.3125 7.660156 63.703125 7.945312 63.761719 8.355469 C 63.828125 8.769531 63.546875 9.152344 63.128906 9.214844 C 51.335938 11.023438 42.191406 20.128906 40.375 31.871094 C 40.316406 32.242188 39.992188 32.507812 39.625 32.507812 " fill-opacity="1" fill-rule="nonzero"/><path fill="#100f0d" d="M 63.015625 64.355469 C 62.976562 64.355469 62.9375 64.355469 62.898438 64.34375 C 56.835938 63.414062 51.324219 60.628906 46.964844 56.292969 C 42.605469 51.953125 39.808594 46.464844 38.875 40.433594 C 38.8125 40.019531 39.09375 39.632812 39.507812 39.570312 C 39.921875 39.507812 40.308594 39.789062 40.375 40.203125 C 42.191406 51.945312 51.335938 61.046875 63.128906 62.855469 C 63.546875 62.917969 63.828125 63.304688 63.761719 63.714844 C 63.707031 64.085938 63.382812 64.355469 63.015625 64.355469 " fill-opacity="1" fill-rule="nonzero"/><path fill="#100f0d" d="M 71.617188 64.355469 C 71.25 64.355469 70.925781 64.085938 70.867188 63.714844 C 70.804688 63.304688 71.089844 62.917969 71.503906 62.855469 C 83.296875 61.046875 92.441406 51.945312 94.261719 40.203125 C 94.324219 39.789062 94.710938 39.507812 95.125 39.574219 C 95.539062 39.636719 95.824219 40.019531 95.757812 40.433594 C 94.824219 46.46875 92.027344 51.953125 87.664062 56.292969 C 83.304688 60.632812 77.796875 63.417969 71.734375 64.34375 C 71.695312 64.355469 71.652344 64.355469 71.617188 64.355469 " fill-opacity="1" fill-rule="nonzero"/><g clip-path="url(#09439dc0af)"><path fill="#100f0d" d="M 38.210938 36.035156 L 61.851562 41.476562 L 67.316406 65.007812 L 72.78125 41.476562 L 96.425781 36.035156 L 72.78125 30.59375 L 67.316406 7.0625 L 61.851562 30.59375 Z M 67.316406 71.710938 L 60.589844 42.734375 L 31.476562 36.035156 L 60.589844 29.335938 L 67.316406 0.359375 L 74.046875 29.335938 L 103.160156 36.035156 L 74.046875 42.734375 L 67.316406 71.710938 " fill-opacity="1" fill-rule="nonzero"/></g><path fill="#701e2f" d="M 63.75 39.589844 L 48.304688 36.035156 L 63.75 32.484375 L 67.316406 17.113281 L 70.886719 32.484375 L 86.328125 36.035156 L 70.886719 39.589844 L 67.316406 54.957031 L 63.75 39.589844 " fill-opacity="1" fill-rule="nonzero"/><path fill="#100f0d" d="M 85.339844 53.972656 L 75.078125 48.25 C 74.714844 48.046875 74.582031 47.585938 74.789062 47.222656 C 74.996094 46.859375 75.453125 46.726562 75.820312 46.933594 L 81.382812 50.035156 L 78.265625 44.5 C 78.058594 44.136719 78.191406 43.675781 78.554688 43.472656 C 78.921875 43.269531 79.382812 43.398438 79.585938 43.761719 L 85.339844 53.972656 " fill-opacity="1" fill-rule="nonzero"/><path fill="#100f0d" d="M 49.292969 53.972656 L 55.046875 43.765625 C 55.25 43.398438 55.710938 43.269531 56.078125 43.476562 C 56.445312 43.679688 56.574219 44.140625 56.367188 44.503906 L 53.25 50.035156 L 58.808594 46.933594 C 59.175781 46.730469 59.640625 46.859375 59.84375 47.222656 C 60.046875 47.585938 59.914062 48.046875 59.550781 48.25 L 49.292969 53.972656 " fill-opacity="1" fill-rule="nonzero"/><path fill="#100f0d" d="M 55.707031 28.691406 C 55.441406 28.695312 55.183594 28.554688 55.042969 28.308594 L 49.292969 18.097656 L 59.550781 23.820312 C 59.914062 24.023438 60.046875 24.484375 59.84375 24.847656 C 59.636719 25.210938 59.175781 25.34375 58.808594 25.136719 L 53.25 22.035156 L 56.367188 27.566406 C 56.574219 27.933594 56.445312 28.390625 56.078125 28.597656 C 55.960938 28.660156 55.832031 28.691406 55.707031 28.691406 " fill-opacity="1" fill-rule="nonzero"/><path fill="#100f0d" d="M 78.925781 28.695312 C 78.800781 28.695312 78.675781 28.664062 78.554688 28.597656 C 78.191406 28.390625 78.0625 27.933594 78.265625 27.566406 L 81.382812 22.035156 L 75.824219 25.136719 C 75.457031 25.34375 74.996094 25.214844 74.789062 24.847656 C 74.585938 24.484375 74.71875 24.027344 75.082031 23.820312 L 85.339844 18.097656 L 79.585938 28.308594 C 79.449219 28.554688 79.191406 28.695312 78.925781 28.695312 " fill-opacity="1" fill-rule="nonzero"/><g fill="#701e2f" fill-opacity="1"><g transform="translate(6.730355, 52.332831)"><g><path d="M 31.8125 -34 C 32.257812 -34 32.484375 -33.738281 32.484375 -33.21875 L 32.484375 -0.828125 C 32.484375 -0.578125 32.382812 -0.375 32.1875 -0.21875 C 31.988281 -0.0703125 31.738281 0 31.4375 0 L 25.15625 0 C 24.882812 0 24.664062 -0.046875 24.5 -0.140625 C 24.332031 -0.234375 24.140625 -0.414062 23.921875 -0.6875 L 11.3125 -17.78125 C 11.195312 -17.9375 11.09375 -18 11 -17.96875 C 10.90625 -17.9375 10.859375 -17.84375 10.859375 -17.6875 L 10.859375 -1.015625 C 10.890625 -0.640625 10.820312 -0.375 10.65625 -0.21875 C 10.488281 -0.0703125 10.191406 0 9.765625 0 L 3.53125 0 C 2.769531 0 2.390625 -0.304688 2.390625 -0.921875 L 2.390625 -32.953125 C 2.390625 -33.648438 2.722656 -34 3.390625 -34 L 10.859375 -34 C 11.253906 -34 11.550781 -33.945312 11.75 -33.84375 C 11.945312 -33.738281 12.171875 -33.515625 12.421875 -33.171875 L 23.421875 -17.875 C 23.597656 -17.59375 23.765625 -17.453125 23.921875 -17.453125 C 24.078125 -17.453125 24.15625 -17.65625 24.15625 -18.0625 L 24.15625 -33.046875 C 24.15625 -33.679688 24.488281 -34 25.15625 -34 Z M 31.8125 -34 "/></g></g></g><g fill="#701e2f" fill-opacity="1"><g transform="translate(93.298865, 52.332831)"><g><path d="M 32.125 -1.46875 C 32.1875 -1.34375 32.21875 -1.175781 32.21875 -0.96875 C 32.21875 -0.6875 32.132812 -0.453125 31.96875 -0.265625 C 31.800781 -0.0859375 31.578125 0 31.296875 0 L 22.40625 0 C 21.769531 0 21.359375 -0.320312 21.171875 -0.96875 L 16.859375 -12.78125 C 16.773438 -13.03125 16.625 -13.210938 16.40625 -13.328125 C 16.1875 -13.453125 15.863281 -13.515625 15.4375 -13.515625 L 13.34375 -13.515625 C 13.15625 -13.515625 13.015625 -13.453125 12.921875 -13.328125 C 12.828125 -13.210938 12.78125 -13.109375 12.78125 -13.015625 L 12.78125 -1.328125 C 12.78125 -0.835938 12.65625 -0.492188 12.40625 -0.296875 C 12.164062 -0.0976562 11.789062 0 11.28125 0 L 3.578125 0 C 3.117188 0 2.804688 -0.0859375 2.640625 -0.265625 C 2.472656 -0.453125 2.390625 -0.742188 2.390625 -1.140625 L 2.390625 -32.953125 C 2.390625 -33.648438 2.675781 -34 3.25 -34 L 18.5625 -34 C 22.988281 -34 26.421875 -33.148438 28.859375 -31.453125 C 31.304688 -29.765625 32.53125 -27.375 32.53125 -24.28125 C 32.53125 -22.175781 31.972656 -20.296875 30.859375 -18.640625 C 29.742188 -16.992188 28.300781 -15.835938 26.53125 -15.171875 C 26.351562 -15.078125 26.265625 -14.921875 26.265625 -14.703125 C 26.265625 -14.617188 26.289062 -14.484375 26.34375 -14.296875 Z M 18.140625 -20.34375 C 19.304688 -20.34375 20.203125 -20.640625 20.828125 -21.234375 C 21.453125 -21.835938 21.765625 -22.640625 21.765625 -23.640625 C 21.765625 -24.773438 21.390625 -25.65625 20.640625 -26.28125 C 19.890625 -26.90625 18.96875 -27.21875 17.875 -27.21875 L 13.84375 -27.21875 C 13.445312 -27.21875 13.171875 -27.148438 13.015625 -27.015625 C 12.859375 -26.878906 12.78125 -26.644531 12.78125 -26.3125 L 12.78125 -21.3125 C 12.78125 -20.976562 12.832031 -20.734375 12.9375 -20.578125 C 13.050781 -20.421875 13.257812 -20.34375 13.5625 -20.34375 Z M 18.140625 -20.34375 "/></g></g></g><g fill="#701e2f" fill-opacity="1"><g transform="translate(127.16445, 52.332831)"><g><path d="M 9.03125 -34 C 12.664062 -34 14.925781 -33.984375 15.8125 -33.953125 C 21.769531 -33.742188 26.273438 -32.132812 29.328125 -29.125 C 32.378906 -26.113281 33.90625 -22.101562 33.90625 -17.09375 C 33.90625 -13.726562 33.21875 -10.765625 31.84375 -8.203125 C 30.46875 -5.640625 28.421875 -3.628906 25.703125 -2.171875 C 22.984375 -0.722656 19.671875 0 15.765625 0 L 3.71875 0 C 3.257812 0 2.921875 -0.101562 2.703125 -0.3125 C 2.492188 -0.53125 2.390625 -0.882812 2.390625 -1.375 L 2.390625 -32.859375 C 2.390625 -33.285156 2.476562 -33.582031 2.65625 -33.75 C 2.84375 -33.914062 3.164062 -34 3.625 -34 Z M 13.25 -26.8125 C 13.09375 -26.8125 12.972656 -26.765625 12.890625 -26.671875 C 12.816406 -26.578125 12.78125 -26.410156 12.78125 -26.171875 L 12.78125 -7.875 C 12.78125 -7.601562 12.828125 -7.421875 12.921875 -7.328125 C 13.015625 -7.234375 13.179688 -7.1875 13.421875 -7.1875 L 13.75 -7.1875 C 16.769531 -7.1875 19.066406 -7.972656 20.640625 -9.546875 C 22.210938 -11.128906 23 -13.691406 23 -17.234375 C 23 -20.285156 22.40625 -22.5625 21.21875 -24.0625 C 20.03125 -25.5625 18.289062 -26.414062 16 -26.625 Z M 13.25 -26.8125 "/></g></g></g></svg>