<svg xmlns="http://www.w3.org/2000/svg" xmlns:xlink="http://www.w3.org/1999/xlink" width="500" zoomAndPan="magnify" viewBox="0 0 375 374.999991" height="500" preserveAspectRatio="xMidYMid meet" version="1.0"><defs><clipPath id="75c16efc1b"><path d="M 52.679688 4.773438 L 322.679688 4.773438 L 322.679688 370.023438 L 52.679688 370.023438 Z M 52.679688 4.773438 " clip-rule="nonzero"/></clipPath></defs><rect x="-37.5" width="450" fill="#ffffff" y="-37.499999" height="449.999989" fill-opacity="1"/><rect x="-37.5" width="450" fill="#ffffff" y="-37.499999" height="449.999989" fill-opacity="1"/><g clip-path="url(#75c16efc1b)"><path fill="#701e2f" d="M 305.664062 47.933594 L 256.554688 47.933594 L 256.554688 32.699219 C 256.554688 30.035156 254.398438 27.875 251.734375 27.875 L 214.988281 27.875 C 214.015625 22.257812 211.34375 17.085938 207.230469 12.972656 C 201.960938 7.703125 194.953125 4.800781 187.5 4.800781 C 180.050781 4.800781 173.042969 7.703125 167.773438 12.972656 C 163.660156 17.085938 160.988281 22.257812 160.015625 27.875 L 123.269531 27.875 C 120.605469 27.875 118.445312 30.035156 118.445312 32.699219 L 118.445312 47.933594 L 69.339844 47.933594 C 60.152344 47.933594 52.683594 55.390625 52.683594 64.554688 L 52.683594 353.5625 C 52.683594 362.730469 60.152344 370.1875 69.339844 370.1875 L 305.664062 370.1875 C 314.847656 370.1875 322.320312 362.730469 322.320312 353.5625 L 322.320312 64.554688 C 322.320312 55.390625 314.847656 47.933594 305.664062 47.933594 Z M 128.09375 37.523438 L 164.425781 37.523438 C 167.089844 37.523438 169.25 35.363281 169.25 32.699219 C 169.25 22.632812 177.4375 14.445312 187.5 14.445312 C 197.566406 14.445312 205.753906 22.632812 205.753906 32.699219 C 205.753906 35.363281 207.914062 37.523438 210.578125 37.523438 L 246.910156 37.523438 L 246.910156 58.515625 C 246.910156 67.070312 239.949219 74.027344 231.394531 74.027344 L 143.605469 74.027344 C 135.050781 74.027344 128.09375 67.070312 128.09375 58.515625 Z M 312.671875 353.566406 C 312.671875 357.414062 309.527344 360.542969 305.664062 360.542969 L 69.339844 360.542969 C 65.472656 360.542969 62.328125 357.414062 62.328125 353.566406 L 62.328125 64.554688 C 62.328125 60.707031 65.472656 57.578125 69.339844 57.578125 L 118.445312 57.578125 L 118.445312 58.515625 C 118.445312 72.386719 129.734375 83.675781 143.605469 83.675781 L 231.394531 83.675781 C 245.269531 83.675781 256.554688 72.386719 256.554688 58.515625 L 256.554688 57.578125 L 305.664062 57.578125 C 309.53125 57.578125 312.671875 60.707031 312.671875 64.554688 Z M 312.671875 353.566406 " fill-opacity="1" fill-rule="nonzero"/></g><path fill="#701e2f" d="M 126.472656 208.234375 L 105.285156 229.421875 L 97.972656 222.109375 C 96.089844 220.226562 93.035156 220.226562 91.152344 222.109375 C 89.269531 223.992188 89.269531 227.046875 91.152344 228.929688 L 101.875 239.652344 C 102.78125 240.558594 104.007812 241.066406 105.285156 241.066406 C 106.566406 241.066406 107.792969 240.558594 108.695312 239.652344 L 133.292969 215.054688 C 135.179688 213.171875 135.179688 210.117188 133.292969 208.234375 C 131.410156 206.351562 128.355469 206.351562 126.472656 208.234375 Z M 126.472656 208.234375 " fill-opacity="1" fill-rule="nonzero"/><path fill="#701e2f" d="M 276.285156 207.25 L 149.9375 207.25 C 147.273438 207.25 145.113281 209.410156 145.113281 212.074219 C 145.113281 214.734375 147.273438 216.894531 149.9375 216.894531 L 276.285156 216.894531 C 278.949219 216.894531 281.109375 214.734375 281.109375 212.074219 C 281.109375 209.410156 278.949219 207.25 276.285156 207.25 Z M 276.285156 207.25 " fill-opacity="1" fill-rule="nonzero"/><path fill="#701e2f" d="M 149.9375 238.175781 L 199.066406 238.175781 C 201.730469 238.175781 203.890625 236.015625 203.890625 233.355469 C 203.890625 230.691406 201.730469 228.53125 199.066406 228.53125 L 149.9375 228.53125 C 147.273438 228.53125 145.113281 230.691406 145.113281 233.355469 C 145.113281 236.019531 147.273438 238.175781 149.9375 238.175781 Z M 149.9375 238.175781 " fill-opacity="1" fill-rule="nonzero"/><path fill="#701e2f" d="M 126.472656 258.121094 L 105.285156 279.308594 L 97.972656 271.996094 C 96.089844 270.113281 93.035156 270.113281 91.152344 271.996094 C 89.269531 273.878906 89.269531 276.933594 91.152344 278.816406 L 101.875 289.539062 C 102.816406 290.480469 104.050781 290.953125 105.285156 290.953125 C 106.519531 290.953125 107.753906 290.480469 108.695312 289.539062 L 133.292969 264.941406 C 135.179688 263.058594 135.179688 260.003906 133.292969 258.121094 C 131.410156 256.238281 128.355469 256.238281 126.472656 258.121094 Z M 126.472656 258.121094 " fill-opacity="1" fill-rule="nonzero"/><path fill="#701e2f" d="M 276.285156 257.136719 L 149.9375 257.136719 C 147.273438 257.136719 145.113281 259.296875 145.113281 261.957031 C 145.113281 264.621094 147.273438 266.78125 149.9375 266.78125 L 276.285156 266.78125 C 278.949219 266.78125 281.109375 264.621094 281.109375 261.957031 C 281.109375 259.296875 278.949219 257.136719 276.285156 257.136719 Z M 276.285156 257.136719 " fill-opacity="1" fill-rule="nonzero"/><path fill="#701e2f" d="M 149.9375 288.0625 L 199.066406 288.0625 C 201.730469 288.0625 203.890625 285.90625 203.890625 283.242188 C 203.890625 280.578125 201.730469 278.417969 199.066406 278.417969 L 149.9375 278.417969 C 147.273438 278.417969 145.113281 280.578125 145.113281 283.242188 C 145.113281 285.90625 147.273438 288.0625 149.9375 288.0625 Z M 149.9375 288.0625 " fill-opacity="1" fill-rule="nonzero"/><path fill="#701e2f" d="M 126.472656 308.007812 L 105.285156 329.195312 L 97.972656 321.882812 C 96.089844 320 93.035156 320 91.152344 321.882812 C 89.269531 323.765625 89.269531 326.820312 91.152344 328.703125 L 101.875 339.425781 C 102.816406 340.367188 104.050781 340.839844 105.285156 340.839844 C 106.519531 340.839844 107.753906 340.367188 108.695312 339.425781 L 133.292969 314.828125 C 135.179688 312.945312 135.179688 309.890625 133.292969 308.007812 C 131.410156 306.125 128.355469 306.125 126.472656 308.007812 Z M 126.472656 308.007812 " fill-opacity="1" fill-rule="nonzero"/><path fill="#701e2f" d="M 276.285156 307.023438 L 149.9375 307.023438 C 147.273438 307.023438 145.113281 309.183594 145.113281 311.847656 C 145.113281 314.507812 147.273438 316.667969 149.9375 316.667969 L 276.285156 316.667969 C 278.949219 316.667969 281.109375 314.507812 281.109375 311.847656 C 281.109375 309.183594 278.949219 307.023438 276.285156 307.023438 Z M 276.285156 307.023438 " fill-opacity="1" fill-rule="nonzero"/><path fill="#701e2f" d="M 199.066406 328.304688 L 149.9375 328.304688 C 147.273438 328.304688 145.113281 330.464844 145.113281 333.128906 C 145.113281 335.789062 147.273438 337.949219 149.9375 337.949219 L 199.066406 337.949219 C 201.730469 337.949219 203.890625 335.789062 203.890625 333.128906 C 203.890625 330.464844 201.730469 328.304688 199.066406 328.304688 Z M 199.066406 328.304688 " fill-opacity="1" fill-rule="nonzero"/><path fill="#701e2f" d="M 153.050781 165.085938 C 150.730469 169.421875 149.449219 174.347656 149.449219 179.492188 L 149.449219 186.765625 C 149.449219 189.011719 151.269531 190.835938 153.519531 190.835938 L 206.375 190.835938 C 208.625 190.835938 210.449219 189.011719 210.449219 186.765625 L 210.449219 179.492188 C 210.449219 173.308594 208.609375 167.355469 205.125 162.273438 C 202.683594 158.707031 199.550781 155.730469 195.921875 153.5 C 197.769531 150.582031 198.84375 147.125 198.84375 143.417969 C 198.84375 133 190.367188 124.523438 179.949219 124.523438 C 174.101562 124.523438 168.863281 127.195312 165.394531 131.378906 C 163.925781 130.019531 162.328125 128.800781 160.628906 127.753906 C 162.480469 124.835938 163.554688 121.375 163.554688 117.667969 C 163.554688 107.246094 155.078125 98.773438 144.65625 98.773438 C 134.238281 98.773438 125.761719 107.246094 125.761719 117.667969 C 125.761719 121.371094 126.835938 124.832031 128.6875 127.75 C 126.917969 128.839844 125.265625 130.105469 123.75 131.53125 C 120.285156 127.257812 114.992188 124.523438 109.078125 124.523438 C 98.65625 124.523438 90.179688 133 90.179688 143.417969 C 90.179688 147.121094 91.253906 150.578125 93.101562 153.5 C 84.152344 158.992188 78.574219 168.761719 78.574219 179.492188 L 78.574219 186.761719 C 78.574219 189.011719 80.398438 190.835938 82.648438 190.835938 L 135.503906 190.835938 C 137.753906 190.835938 139.578125 189.011719 139.578125 186.761719 L 139.578125 179.492188 C 139.578125 174.414062 138.335938 169.496094 135.964844 165.082031 L 153.050781 165.082031 Z M 202.304688 179.492188 L 202.304688 182.691406 L 157.589844 182.691406 L 157.589844 179.492188 C 157.589844 170.949219 162.410156 163.234375 169.988281 159.46875 C 172.878906 161.269531 176.292969 162.3125 179.949219 162.3125 C 183.601562 162.3125 187.011719 161.269531 189.90625 159.46875 C 193.316406 161.164062 196.234375 163.699219 198.40625 166.875 C 200.957031 170.597656 202.304688 174.957031 202.304688 179.492188 Z M 179.949219 132.667969 C 185.875 132.667969 190.699219 137.492188 190.699219 143.417969 C 190.699219 149.347656 185.875 154.171875 179.949219 154.171875 C 174.019531 154.171875 169.195312 149.347656 169.195312 143.417969 C 169.195312 137.492188 174.019531 132.667969 179.949219 132.667969 Z M 144.660156 106.917969 C 150.585938 106.917969 155.410156 111.738281 155.410156 117.667969 C 155.410156 123.597656 150.585938 128.417969 144.660156 128.417969 C 138.730469 128.417969 133.90625 123.597656 133.90625 117.667969 C 133.90625 111.738281 138.730469 106.917969 144.660156 106.917969 Z M 134.699219 133.71875 C 137.59375 135.519531 141.007812 136.5625 144.660156 136.5625 C 148.3125 136.5625 151.722656 135.519531 154.613281 133.71875 C 157.246094 135.035156 159.613281 136.863281 161.550781 139.097656 C 161.226562 140.484375 161.050781 141.933594 161.050781 143.417969 C 161.050781 147.125 162.125 150.582031 163.972656 153.5 C 162.328125 154.507812 160.796875 155.664062 159.394531 156.941406 L 129.621094 156.941406 C 128.207031 155.652344 126.679688 154.503906 125.050781 153.5 C 126.898438 150.582031 127.972656 147.125 127.972656 143.417969 C 127.972656 142.03125 127.820312 140.675781 127.535156 139.371094 C 129.515625 137.011719 131.957031 135.085938 134.699219 133.71875 Z M 109.078125 132.667969 C 115.007812 132.667969 119.828125 137.492188 119.828125 143.417969 C 119.828125 149.347656 115.007812 154.171875 109.078125 154.171875 C 103.148438 154.171875 98.328125 149.347656 98.328125 143.417969 C 98.328125 137.492188 103.148438 132.667969 109.078125 132.667969 Z M 131.4375 182.691406 L 86.71875 182.691406 L 86.71875 179.492188 C 86.71875 170.949219 91.542969 163.234375 99.117188 159.46875 C 102.011719 161.269531 105.425781 162.3125 109.078125 162.3125 C 112.730469 162.3125 116.144531 161.269531 119.039062 159.46875 C 122.449219 161.164062 125.363281 163.699219 127.539062 166.875 C 130.089844 170.597656 131.4375 174.957031 131.4375 179.492188 Z M 131.4375 182.691406 " fill-opacity="1" fill-rule="nonzero"/></svg>