<svg xmlns="http://www.w3.org/2000/svg" xmlns:xlink="http://www.w3.org/1999/xlink" width="500" zoomAndPan="magnify" viewBox="0 0 375 374.999991" height="500" preserveAspectRatio="xMidYMid meet" version="1.0"><defs><clipPath id="7be746e44a"><path d="M 189 10.367188 L 363.160156 10.367188 L 363.160156 368 L 189 368 Z M 189 10.367188 " clip-rule="nonzero"/></clipPath><clipPath id="7424cadd3c"><path d="M 7.660156 13 L 190 13 L 190 360 L 7.660156 360 Z M 7.660156 13 " clip-rule="nonzero"/></clipPath><clipPath id="af75b638c1"><path d="M 7.660156 10.367188 L 343 10.367188 L 343 342 L 7.660156 342 Z M 7.660156 10.367188 " clip-rule="nonzero"/></clipPath><clipPath id="9d17daa2de"><path d="M 13 70 L 363.160156 70 L 363.160156 355 L 13 355 Z M 13 70 " clip-rule="nonzero"/></clipPath></defs><path fill="#b48992" d="M 239.039062 283.457031 C 239.019531 280.800781 238.792969 278.125 238.386719 275.445312 L 255.410156 275.445312 C 257.8125 275.445312 259.757812 273.5 259.757812 271.101562 L 259.757812 250.632812 C 258.457031 251.171875 257.035156 251.480469 255.542969 251.480469 C 249.441406 251.480469 244.5 246.535156 244.5 240.4375 C 244.5 234.339844 249.441406 229.394531 255.542969 229.394531 C 257.035156 229.394531 258.457031 229.707031 259.757812 230.246094 L 259.757812 210.78125 C 259.757812 208.378906 257.8125 206.433594 255.410156 206.433594 L 234.566406 206.433594 C 235.394531 204.882812 235.867188 203.113281 235.867188 201.230469 C 235.867188 195.132812 230.925781 190.191406 224.824219 190.191406 C 218.726562 190.191406 213.785156 195.132812 213.785156 201.230469 C 213.785156 203.113281 214.257812 204.882812 215.089844 206.433594 L 195.089844 206.433594 C 192.691406 206.433594 190.746094 208.378906 190.746094 210.78125 L 190.746094 237.179688 C 188.816406 236.8125 186.859375 236.550781 184.878906 236.429688 L 181.484375 226.757812 C 179.285156 226.773438 177.070312 226.933594 174.855469 227.214844 L 174.855469 196.390625 C 174.855469 193.988281 172.910156 192.042969 170.511719 192.042969 L 149.664062 192.042969 C 150.492188 190.492188 150.964844 188.722656 150.964844 186.839844 C 150.964844 180.742188 146.023438 175.800781 139.925781 175.800781 C 133.828125 175.800781 128.882812 180.742188 128.882812 186.839844 C 128.882812 188.722656 129.355469 190.492188 130.1875 192.042969 L 110.1875 192.042969 C 107.789062 192.042969 105.84375 193.988281 105.84375 196.390625 L 105.84375 256.710938 C 105.84375 259.109375 107.789062 261.054688 110.1875 261.054688 L 129.578125 261.054688 C 129.082031 262.195312 128.609375 263.339844 128.1875 264.507812 L 136.167969 270.921875 C 135.242188 274.164062 134.660156 277.507812 134.457031 280.917969 L 124.785156 284.3125 C 124.804688 287.515625 125.117188 290.742188 125.695312 293.96875 L 135.804688 295.519531 C 136.21875 297.15625 136.714844 298.765625 137.3125 300.382812 C 137.90625 301.988281 138.578125 303.535156 139.328125 305.046875 L 132.660156 312.800781 C 134.316406 315.628906 136.183594 318.28125 138.25 320.726562 L 147.804688 317.015625 C 150.179688 319.46875 152.792969 321.632812 155.613281 323.5 L 153.71875 333.550781 C 156.539062 335.148438 159.488281 336.507812 162.535156 337.609375 L 168.9375 329.632812 C 172.191406 330.554688 175.535156 331.136719 178.941406 331.339844 L 182.339844 341.011719 C 185.542969 340.992188 188.769531 340.683594 191.996094 340.101562 L 193.546875 329.992188 C 195.179688 329.582031 196.792969 329.082031 198.398438 328.488281 C 200.015625 327.890625 201.5625 327.21875 203.070312 326.472656 L 210.824219 333.136719 C 213.652344 331.480469 216.308594 329.617188 218.753906 327.546875 L 215.039062 317.992188 C 217.492188 315.617188 219.65625 313.003906 221.515625 310.1875 L 231.578125 312.078125 C 233.175781 309.257812 234.53125 306.308594 235.632812 303.261719 L 227.65625 296.859375 C 228.574219 293.609375 229.160156 290.261719 229.367188 286.855469 Z M 190.433594 306.949219 C 177.703125 311.65625 163.558594 305.148438 158.851562 292.417969 C 154.140625 279.679688 160.648438 265.53125 173.378906 260.824219 C 179.21875 258.664062 185.355469 258.871094 190.742188 260.945312 L 190.742188 271.101562 C 190.742188 273.5 192.6875 275.445312 195.089844 275.445312 L 205.003906 275.445312 C 209.652344 288.15625 203.144531 302.25 190.433594 306.949219 Z M 190.433594 306.949219 " fill-opacity="1" fill-rule="nonzero"/><g clip-path="url(#7be746e44a)"><path fill="#b48992" d="M 363.152344 226.382812 C 363.152344 226.375 363.15625 226.367188 363.15625 226.359375 C 363.132812 225.738281 362.980469 224.09375 362.777344 222.039062 C 362.234375 216.628906 361.320312 208.371094 361.320312 208.367188 L 357.617188 175.238281 L 359.046875 174.953125 C 357.445312 159.125 356.953125 140.402344 356.671875 136.699219 C 356.296875 132.328125 355.929688 127.957031 355.386719 123.597656 C 354.871094 119.492188 352.25 116.171875 348.746094 114.558594 C 348.753906 114.527344 348.753906 114.507812 348.753906 114.507812 C 340.636719 111.003906 332.707031 108.683594 324.84375 107.554688 L 324.976562 109.289062 L 323.847656 94.34375 L 323.878906 94.761719 C 326.109375 94.371094 334.886719 92.316406 333.894531 84.339844 C 333.894531 84.339844 340.804688 76.40625 333.945312 70.226562 C 334.023438 63.050781 330.152344 59.570312 322.945312 59.222656 C 322.945312 59.222656 309.859375 58.109375 304.539062 57.71875 C 305.035156 56.246094 305.429688 54.730469 305.699219 53.183594 L 312.230469 51.679688 C 312.449219 49.597656 312.484375 47.476562 312.339844 45.335938 L 305.882812 43.59375 C 305.734375 42.503906 305.53125 41.417969 305.257812 40.332031 C 304.988281 39.238281 304.664062 38.183594 304.285156 37.148438 L 309.183594 32.59375 C 308.308594 30.636719 307.292969 28.777344 306.125 27.035156 L 299.644531 28.753906 C 298.28125 26.988281 296.734375 25.394531 295.042969 23.980469 L 297.003906 17.578125 C 295.289062 16.335938 293.46875 15.238281 291.570312 14.300781 L 286.824219 19.019531 C 284.785156 18.1875 282.652344 17.5625 280.449219 17.183594 L 278.945312 10.648438 C 276.863281 10.429688 274.742188 10.398438 272.605469 10.539062 L 270.863281 16.996094 C 269.769531 17.148438 268.6875 17.351562 267.59375 17.621094 C 266.503906 17.894531 265.449219 18.21875 264.414062 18.59375 L 259.859375 13.699219 C 257.902344 14.570312 256.042969 15.589844 254.304688 16.753906 L 256.023438 23.234375 C 254.253906 24.597656 252.660156 26.148438 251.238281 27.835938 L 244.84375 25.878906 C 243.601562 27.59375 242.503906 29.410156 241.570312 31.3125 L 246.289062 36.058594 C 245.453125 38.097656 244.832031 40.230469 244.449219 42.429688 L 237.917969 43.933594 C 237.699219 46.015625 237.667969 48.136719 237.808594 50.277344 L 244.265625 52.019531 C 244.414062 53.109375 244.621094 54.195312 244.890625 55.289062 C 245.160156 56.375 245.484375 57.429688 245.863281 58.464844 L 243.6875 60.488281 L 234.734375 60.488281 C 235.542969 62.011719 236.007812 63.753906 236.007812 65.601562 C 236.007812 71.632812 231.121094 76.523438 225.089844 76.523438 C 219.058594 76.523438 214.171875 71.632812 214.171875 65.601562 C 214.171875 63.753906 214.636719 62.015625 215.449219 60.488281 L 193.4375 60.488281 C 191.054688 60.488281 189.121094 62.417969 189.121094 64.804688 L 189.121094 84.703125 C 190.691406 84.082031 192.433594 83.800781 194.269531 84 C 199.566406 84.578125 203.742188 89.054688 203.929688 94.382812 C 204.148438 100.546875 199.214844 105.613281 193.097656 105.613281 C 191.691406 105.613281 190.351562 105.335938 189.121094 104.847656 L 189.121094 124.742188 C 189.121094 127.128906 191.054688 129.0625 193.4375 129.0625 L 201.3125 129.0625 C 201.246094 129.859375 201.800781 130.59375 203.058594 130.777344 C 203.476562 130.839844 204.003906 130.902344 204.597656 130.957031 C 204.15625 131.847656 204.480469 132.78125 205.773438 132.925781 C 206.332031 132.992188 207.175781 133.082031 208.175781 133.191406 C 208.414062 133.523438 208.785156 133.808594 209.300781 133.964844 C 211.582031 134.652344 215.945312 135.617188 217.621094 135.980469 C 218.070312 136.078125 218.523438 136.144531 218.984375 136.183594 C 218.984375 136.183594 227.75 136.914062 229.066406 136.980469 L 229.09375 136.984375 C 229.394531 136.996094 229.699219 137.003906 230.007812 137.007812 L 248.671875 170.789062 C 251.84375 175.996094 258.632812 177.648438 263.84375 174.480469 C 264.734375 173.9375 268.480469 170.101562 272.292969 166.089844 L 276.222656 171.59375 L 282.667969 157.039062 L 282.835938 158.84375 C 282.855469 159.0625 283.039062 159.226562 283.253906 159.226562 C 283.269531 159.226562 283.28125 159.226562 283.296875 159.222656 C 283.316406 159.222656 283.335938 159.210938 283.355469 159.207031 C 283.6875 163.664062 283.890625 167.394531 283.890625 169.6875 C 283.890625 178.277344 282.589844 193.40625 282.589844 199.691406 C 282.589844 200.773438 283.105469 201.742188 283.910156 202.363281 L 283.65625 209.269531 C 283.683594 209.265625 283.710938 209.253906 283.738281 209.253906 C 283.460938 209.253906 283.234375 209.476562 283.234375 209.753906 C 283.234375 210.03125 283.460938 210.257812 283.738281 210.257812 C 283.695312 210.257812 283.660156 210.242188 283.621094 210.234375 L 281.390625 270.925781 L 278.476562 339.363281 L 278.925781 339.363281 C 278.597656 343.519531 277.988281 346.324219 277.0625 348.664062 C 281.609375 354.664062 287.558594 354.195312 291.523438 352.625 C 287.558594 354.195312 281.609375 354.664062 277.0625 348.664062 C 274.09375 352.367188 266.328125 357.085938 260.308594 360.011719 L 262.921875 364.09375 L 294.296875 364.09375 C 294.371094 360.867188 294.1875 356.152344 292.847656 352.035156 C 292.828125 348.148438 293.371094 342.941406 293.816406 339.363281 L 295.527344 339.363281 C 299.242188 327.042969 307.859375 296.664062 303.652344 274.839844 L 312.851562 212.527344 L 307.375 212.179688 L 315.128906 212.671875 C 315.136719 212.671875 315.148438 212.671875 315.160156 212.671875 C 315.164062 212.671875 315.167969 212.667969 315.175781 212.667969 C 315.175781 212.667969 315.171875 212.667969 315.171875 212.667969 L 319.042969 339.363281 L 319.996094 339.363281 C 319.988281 339.628906 319.976562 339.882812 319.976562 340.160156 C 319.976562 345.019531 319.691406 348.738281 319.457031 353.914062 C 319.4375 354.304688 319.421875 354.699219 319.402344 355.105469 C 319.398438 355.257812 319.390625 355.414062 319.386719 355.566406 C 319.375 355.796875 319.367188 356.027344 319.359375 356.261719 C 319.347656 356.511719 319.339844 356.769531 319.332031 357.027344 C 319.324219 357.175781 319.320312 357.324219 319.316406 357.476562 C 319.304688 357.785156 319.296875 358.097656 319.285156 358.414062 C 319.28125 358.503906 319.28125 358.597656 319.277344 358.691406 C 319.210938 360.945312 319.164062 363.480469 319.148438 366.441406 C 319.144531 367.277344 319.824219 367.964844 320.664062 367.964844 L 347.234375 367.964844 C 348.160156 367.964844 348.882812 367.136719 348.734375 366.226562 C 348.171875 362.785156 345.960938 360.363281 343.4375 358.066406 C 343.441406 358.066406 343.441406 358.066406 343.441406 358.066406 C 343.351562 357.984375 343.257812 357.902344 343.167969 357.820312 C 342.40625 357.136719 341.628906 356.457031 340.855469 355.761719 C 340.675781 355.601562 340.5 355.4375 340.320312 355.273438 C 340.132812 355.101562 339.941406 354.925781 339.753906 354.746094 C 339.566406 354.566406 339.378906 354.382812 339.191406 354.199219 C 339.023438 354.03125 338.855469 353.863281 338.691406 353.691406 C 338.5 353.492188 338.316406 353.289062 338.136719 353.085938 C 337.984375 352.917969 337.832031 352.75 337.6875 352.578125 C 337.503906 352.355469 337.328125 352.125 337.152344 351.894531 C 337.027344 351.730469 336.894531 351.566406 336.773438 351.394531 C 336.589844 351.132812 336.421875 350.855469 336.253906 350.578125 C 336.160156 350.425781 336.058594 350.28125 335.972656 350.125 C 335.730469 349.695312 335.507812 349.246094 335.316406 348.777344 C 335.3125 348.769531 335.308594 348.765625 335.304688 348.757812 C 335.226562 348.5625 335.160156 348.367188 335.089844 348.171875 C 334.015625 345.257812 333.84375 342.316406 333.949219 339.363281 L 336.0625 339.363281 C 337.488281 330.878906 340.175781 314.601562 341.464844 304.9375 C 343.265625 291.429688 340.597656 271.578125 340.597656 271.578125 L 341.800781 210.253906 C 341.804688 210.253906 341.808594 210.257812 341.8125 210.257812 C 342.089844 210.257812 342.3125 210.03125 342.3125 209.753906 C 342.3125 209.480469 342.09375 209.261719 341.820312 209.253906 L 341.953125 202.53125 C 342.875 201.917969 343.476562 200.882812 343.476562 199.714844 C 343.476562 196.871094 343.207031 192.195312 342.914062 187.132812 C 345.375 195.929688 348.253906 206.183594 349.285156 209.863281 L 349.277344 209.867188 C 349.054688 209.9375 348.929688 210.171875 348.996094 210.394531 C 349.027344 210.492188 349.089844 210.5625 349.167969 210.617188 C 349.089844 210.734375 349.003906 210.859375 348.941406 210.976562 C 347.304688 213.992188 346.992188 216.027344 347.464844 220.351562 C 347.3125 220.441406 347.234375 220.613281 347.265625 220.789062 C 347.1875 220.765625 347.113281 220.730469 347.03125 220.722656 C 345.90625 220.585938 344.925781 221.488281 344.972656 222.617188 L 345.210938 228.527344 C 345.234375 229.074219 345.5 229.585938 345.941406 229.917969 L 350.078125 233.046875 C 350.308594 233.449219 350.585938 233.804688 350.9375 234.082031 C 351.207031 234.296875 351.539062 234.40625 351.878906 234.40625 C 351.882812 234.40625 351.890625 234.402344 351.898438 234.402344 C 352.546875 234.84375 353.402344 234.839844 354.035156 234.363281 L 362.433594 228.023438 C 362.917969 227.660156 363.1875 227.085938 363.164062 226.484375 Z M 320.613281 354.15625 C 320.695312 354.160156 320.777344 354.164062 320.863281 354.160156 C 320.777344 354.164062 320.695312 354.160156 320.613281 354.15625 Z M 323.429688 353.023438 C 323.621094 352.855469 323.816406 352.675781 324.015625 352.464844 C 324.269531 352.195312 324.523438 351.9375 324.777344 351.6875 C 324.523438 351.9375 324.269531 352.191406 324.015625 352.460938 C 323.820312 352.675781 323.625 352.855469 323.429688 353.023438 Z M 321.097656 354.140625 C 321.191406 354.132812 321.285156 354.113281 321.382812 354.09375 C 321.285156 354.113281 321.191406 354.132812 321.097656 354.140625 Z M 321.597656 354.050781 C 321.765625 354.007812 321.933594 353.953125 322.101562 353.878906 C 321.933594 353.953125 321.765625 354.007812 321.597656 354.050781 Z M 322.226562 353.816406 C 322.371094 353.75 322.511719 353.675781 322.65625 353.589844 C 322.511719 353.675781 322.371094 353.75 322.226562 353.816406 Z M 322.847656 353.464844 C 322.980469 353.375 323.113281 353.277344 323.25 353.167969 C 323.113281 353.277344 322.980469 353.375 322.847656 353.464844 Z M 332.273438 347.789062 C 331.800781 347.8125 331.328125 347.878906 330.859375 347.992188 C 330.589844 348.054688 330.320312 348.132812 330.054688 348.222656 C 331.253906 347.820312 332.46875 347.679688 333.679688 347.847656 C 333.210938 347.785156 332.742188 347.765625 332.273438 347.789062 Z M 325.007812 351.46875 C 325.1875 351.300781 325.371094 351.132812 325.550781 350.972656 C 325.371094 351.132812 325.1875 351.300781 325.007812 351.46875 Z M 325.816406 350.742188 C 326 350.585938 326.179688 350.441406 326.363281 350.296875 C 326.179688 350.441406 326 350.585938 325.816406 350.742188 Z M 326.601562 350.109375 C 327.121094 349.714844 327.644531 349.371094 328.171875 349.070312 C 327.648438 349.371094 327.121094 349.714844 326.601562 350.109375 Z M 328.410156 348.941406 C 328.597656 348.84375 328.785156 348.746094 328.976562 348.660156 C 328.789062 348.746094 328.601562 348.84375 328.410156 348.941406 Z M 329.246094 348.535156 C 329.433594 348.453125 329.625 348.378906 329.8125 348.3125 C 329.625 348.378906 329.433594 348.453125 329.246094 348.535156 Z M 334.382812 347.976562 C 334.171875 347.925781 333.960938 347.890625 333.75 347.859375 C 333.960938 347.890625 334.171875 347.925781 334.382812 347.976562 Z M 335.214844 203.867188 C 334.933594 203.902344 334.65625 203.941406 334.375 203.980469 C 335.070312 203.890625 335.761719 203.796875 336.449219 203.703125 C 336.039062 203.757812 335.628906 203.816406 335.21875 203.871094 C 335.214844 203.871094 335.214844 203.867188 335.214844 203.867188 Z M 337.527344 203.554688 C 338.570312 203.402344 339.609375 203.242188 340.632812 203.066406 C 339.609375 203.238281 338.570312 203.402344 337.527344 203.554688 Z M 333.042969 204.136719 C 332.425781 204.207031 331.808594 204.277344 331.1875 204.339844 C 331.808594 204.277344 332.425781 204.207031 333.042969 204.136719 Z M 329.699219 204.484375 C 329.128906 204.539062 328.550781 204.589844 327.976562 204.636719 C 328.550781 204.589844 329.125 204.539062 329.699219 204.484375 Z M 326.367188 204.761719 C 325.832031 204.800781 325.292969 204.839844 324.75 204.871094 C 325.292969 204.839844 325.832031 204.800781 326.367188 204.761719 Z M 323.027344 204.972656 C 322.535156 205 322.042969 205.023438 321.550781 205.042969 C 322.042969 205.023438 322.535156 205 323.027344 204.972656 Z M 271.203125 32.199219 C 279.824219 30.0625 288.546875 35.320312 290.683594 43.941406 C 292.816406 52.558594 287.558594 61.277344 278.9375 63.414062 C 270.324219 65.546875 261.601562 60.289062 259.46875 51.675781 C 257.332031 43.054688 262.589844 34.332031 271.203125 32.199219 Z M 281.476562 113.570312 C 281.464844 113.574219 281.453125 113.582031 281.441406 113.589844 C 278.695312 114.539062 276.332031 116.554688 275.019531 119.410156 L 259.03125 147.503906 L 269.472656 162.132812 L 259.792969 148.566406 L 259.027344 149.335938 L 243.402344 129.0625 L 253.378906 129.0625 C 255.761719 129.0625 257.695312 127.128906 257.695312 124.742188 L 257.695312 80.851562 C 257.988281 81.007812 258.28125 81.164062 258.578125 81.3125 L 263.320312 76.59375 C 265.367188 77.429688 267.496094 78.050781 269.699219 78.429688 L 271.203125 84.960938 C 273.285156 85.179688 275.40625 85.214844 277.542969 85.070312 L 279.285156 78.617188 C 280.378906 78.464844 281.460938 78.261719 282.550781 77.992188 C 283.644531 77.71875 284.699219 77.394531 285.730469 77.019531 L 290.289062 81.914062 C 292.246094 81.042969 294.105469 80.023438 295.84375 78.855469 L 294.125 72.378906 C 295.894531 71.011719 297.488281 69.46875 298.902344 67.777344 L 299.21875 67.871094 C 299.308594 68.183594 299.425781 68.460938 299.5625 68.714844 C 298.640625 70.546875 298.035156 72.578125 297.859375 74.746094 C 297.625 77.574219 298.125 80.289062 299.199219 82.710938 C 299.179688 83.152344 299.175781 83.398438 299.175781 83.398438 L 299.332031 92.457031 C 299.402344 96.558594 301.433594 100.257812 304.550781 102.511719 L 304.507812 107.316406 C 296.890625 108.246094 289.25 110.324219 281.476562 113.570312 Z M 301.421875 70.160156 C 301.296875 70.546875 301.179688 70.933594 301.066406 71.320312 C 301.179688 70.933594 301.296875 70.546875 301.421875 70.160156 Z M 300.964844 71.679688 C 300.890625 71.949219 300.820312 72.214844 300.75 72.476562 C 300.820312 72.214844 300.890625 71.949219 300.964844 71.679688 Z M 300.648438 72.875 C 300.585938 73.136719 300.523438 73.394531 300.460938 73.648438 C 300.523438 73.394531 300.585938 73.136719 300.648438 72.875 Z M 300.382812 74.003906 C 300.308594 74.332031 300.238281 74.65625 300.171875 74.976562 C 300.238281 74.65625 300.308594 74.332031 300.382812 74.003906 Z M 300.148438 75.089844 C 300.078125 75.449219 300.011719 75.800781 299.949219 76.148438 C 300.011719 75.800781 300.078125 75.449219 300.148438 75.089844 Z M 299.902344 76.433594 C 299.859375 76.683594 299.816406 76.925781 299.78125 77.167969 C 299.816406 76.925781 299.859375 76.683594 299.902344 76.433594 Z M 299.726562 77.5 C 299.695312 77.722656 299.660156 77.941406 299.632812 78.15625 C 299.660156 77.941406 299.695312 77.722656 299.726562 77.5 Z M 299.589844 78.453125 C 299.558594 78.707031 299.527344 78.957031 299.496094 79.195312 C 299.527344 78.957031 299.558594 78.707031 299.589844 78.453125 Z M 299.480469 79.332031 C 299.445312 79.613281 299.417969 79.886719 299.390625 80.148438 C 299.417969 79.886719 299.445312 79.613281 299.480469 79.332031 Z M 299.371094 80.359375 C 299.351562 80.542969 299.335938 80.71875 299.324219 80.882812 C 299.335938 80.71875 299.351562 80.542969 299.371094 80.359375 Z M 299.300781 81.144531 C 299.289062 81.28125 299.277344 81.414062 299.269531 81.542969 C 299.277344 81.414062 299.289062 81.285156 299.300781 81.144531 Z M 299.25 81.789062 C 299.242188 81.902344 299.238281 82.007812 299.230469 82.113281 C 299.238281 82.007812 299.242188 81.902344 299.25 81.789062 Z M 299.21875 82.324219 C 299.214844 82.386719 299.210938 82.433594 299.210938 82.492188 C 299.210938 82.433594 299.214844 82.386719 299.21875 82.324219 Z M 291.402344 203.882812 C 291.355469 203.878906 291.3125 203.871094 291.265625 203.867188 C 291.289062 203.871094 291.316406 203.871094 291.339844 203.875 C 291.359375 203.878906 291.378906 203.882812 291.402344 203.882812 Z M 284.753906 202.839844 C 284.660156 202.804688 284.566406 202.761719 284.476562 202.714844 C 284.566406 202.761719 284.65625 202.804688 284.753906 202.839844 Z M 285.457031 203.042969 C 285.28125 203.015625 285.109375 202.964844 284.941406 202.910156 C 285.109375 202.964844 285.28125 203.015625 285.457031 203.042969 Z M 294.144531 204.199219 C 294.242188 204.210938 294.339844 204.222656 294.441406 204.230469 C 294.339844 204.21875 294.242188 204.210938 294.144531 204.199219 Z M 303.570312 204.957031 C 303.695312 204.964844 303.820312 204.96875 303.945312 204.976562 C 303.816406 204.972656 303.695312 204.964844 303.570312 204.957031 Z M 297.203125 204.5 C 297.347656 204.511719 297.492188 204.523438 297.632812 204.539062 C 297.492188 204.527344 297.347656 204.511719 297.203125 204.5 Z M 300.359375 204.757812 C 300.511719 204.765625 300.664062 204.777344 300.816406 204.789062 C 300.664062 204.777344 300.511719 204.765625 300.359375 204.757812 Z M 315.507812 212.53125 C 315.515625 212.523438 315.519531 212.511719 315.527344 212.503906 C 315.519531 212.511719 315.515625 212.523438 315.507812 212.53125 Z M 315.613281 212.382812 C 315.640625 212.328125 315.65625 212.265625 315.660156 212.199219 C 315.65625 212.265625 315.640625 212.328125 315.613281 212.382812 Z M 318.445312 205.15625 C 318.855469 205.144531 319.265625 205.136719 319.675781 205.121094 C 319.265625 205.136719 318.855469 205.144531 318.445312 205.15625 Z M 315.828125 205.210938 C 315.988281 205.210938 316.148438 205.210938 316.308594 205.207031 C 316.148438 205.210938 315.988281 205.210938 315.828125 205.210938 Z M 334.398438 204.5 C 334.324219 204.332031 334.257812 204.164062 334.195312 204.003906 C 334.257812 204.164062 334.324219 204.332031 334.398438 204.5 Z M 335.875 207.121094 C 335.875 207.121094 335.871094 207.117188 335.871094 207.117188 C 335.871094 207.117188 335.871094 207.121094 335.875 207.121094 Z M 334.886719 205.542969 C 334.878906 205.527344 334.871094 205.511719 334.863281 205.496094 C 334.871094 205.511719 334.878906 205.527344 334.886719 205.542969 Z M 341.316406 202.867188 C 341.332031 202.863281 341.347656 202.855469 341.363281 202.847656 C 341.347656 202.855469 341.332031 202.863281 341.316406 202.867188 Z M 342.667969 182.777344 C 342.703125 183.414062 342.738281 184.050781 342.773438 184.6875 C 342.738281 184.050781 342.703125 183.414062 342.667969 182.777344 Z M 342.429688 178.277344 C 342.460938 178.921875 342.496094 179.578125 342.527344 180.238281 C 342.496094 179.578125 342.460938 178.921875 342.429688 178.277344 Z M 342.558594 180.796875 C 342.589844 181.359375 342.621094 181.925781 342.652344 182.488281 C 342.621094 181.925781 342.589844 181.359375 342.558594 180.796875 Z M 342.828125 185.648438 C 342.84375 185.867188 342.855469 186.085938 342.867188 186.304688 C 342.855469 186.085938 342.84375 185.867188 342.828125 185.648438 Z M 342.828125 185.648438 " fill-opacity="1" fill-rule="nonzero"/></g><path fill="#b48992" d="M 253.007812 366.257812 C 252.890625 367.160156 253.597656 367.964844 254.511719 367.964844 L 292.671875 367.964844 C 293.464844 367.964844 294.125 367.359375 294.179688 366.566406 C 294.230469 365.921875 294.273438 365.074219 294.296875 364.09375 L 262.925781 364.09375 L 260.308594 360.011719 C 259.394531 360.457031 258.519531 360.859375 257.707031 361.210938 C 254.140625 362.757812 253.238281 364.539062 253.007812 366.257812 Z M 253.007812 366.257812 " fill-opacity="1" fill-rule="nonzero"/><g clip-path="url(#7424cadd3c)"><path fill="#b48992" d="M 105.101562 166.265625 C 105.101562 168.636719 107.027344 170.5625 109.398438 170.5625 L 128.390625 170.5625 C 127.878906 169.292969 127.59375 167.910156 127.59375 166.457031 C 127.59375 160.359375 132.535156 155.414062 138.632812 155.414062 C 144.734375 155.414062 149.675781 160.359375 149.675781 166.457031 C 149.675781 167.910156 149.386719 169.292969 148.878906 170.5625 L 169.046875 170.5625 C 171.417969 170.5625 173.34375 168.636719 173.34375 166.265625 L 173.34375 145.652344 C 174.875 146.472656 176.625 146.941406 178.488281 146.941406 C 184.515625 146.941406 189.40625 142.050781 189.40625 136.019531 C 189.40625 129.992188 184.515625 125.101562 178.488281 125.101562 C 176.625 125.101562 174.875 125.570312 173.34375 126.390625 L 173.34375 106.617188 C 173.34375 104.246094 171.417969 102.320312 169.046875 102.320312 L 130.691406 102.320312 C 130.714844 102.210938 130.738281 102.097656 130.761719 101.992188 L 132.355469 99.117188 C 132.824219 98.089844 132.277344 96.886719 131.199219 96.558594 C 130.453125 96.332031 129.707031 96.605469 129.234375 97.164062 C 129.167969 96.3125 128.570312 95.550781 127.675781 95.332031 C 126.660156 95.082031 125.6875 95.648438 125.285156 96.582031 C 125.328125 95.496094 124.515625 94.527344 123.390625 94.429688 C 122.214844 94.328125 121.242188 95.230469 121.128906 96.402344 C 121.121094 96.480469 121.113281 96.578125 121.105469 96.691406 L 119.753906 96.570312 C 119.414062 95.648438 118.457031 95.050781 117.433594 95.238281 C 116.8125 95.355469 116.328125 95.734375 116.039062 96.238281 L 115.800781 96.21875 C 115.800781 96.21875 115.414062 98.480469 114.925781 102.015625 C 114.539062 101.292969 114.058594 100.363281 113.589844 99.367188 C 113.023438 98.15625 112.382812 97.292969 111.753906 96.695312 C 112.257812 95.800781 112.746094 94.898438 113.203125 93.976562 L 109.207031 89.964844 C 109.996094 85.921875 110.992188 82.347656 111.367188 76.875 L 118.632812 75.203125 C 118.957031 72.105469 119.007812 68.953125 118.792969 65.769531 L 109.191406 63.179688 C 108.96875 61.554688 108.664062 59.941406 108.265625 58.328125 C 107.863281 56.699219 107.378906 55.132812 106.816406 53.59375 L 114.097656 46.820312 C 112.800781 43.90625 111.285156 41.140625 109.550781 38.554688 L 99.917969 41.109375 C 97.886719 38.480469 95.585938 36.109375 93.074219 34.007812 L 95.988281 24.488281 C 93.4375 22.640625 90.730469 21.007812 87.90625 19.613281 L 80.847656 26.636719 C 77.816406 25.398438 74.640625 24.464844 71.371094 23.898438 L 69.132812 14.1875 C 66.035156 13.863281 62.882812 13.8125 59.699219 14.027344 L 57.109375 23.625 C 55.488281 23.851562 53.875 24.15625 52.25 24.558594 C 50.632812 24.957031 49.0625 25.441406 47.523438 26.003906 L 40.75 18.722656 C 37.835938 20.019531 35.070312 21.535156 32.484375 23.269531 L 35.039062 32.90625 C 32.414062 34.933594 30.039062 37.234375 27.929688 39.75 L 18.417969 36.835938 C 16.570312 39.386719 14.9375 42.089844 13.542969 44.917969 L 20.566406 51.976562 C 19.316406 55.007812 18.394531 58.179688 17.828125 61.449219 L 8.117188 63.6875 C 7.789062 66.785156 7.742188 69.9375 7.953125 73.117188 L 17.554688 75.710938 C 17.777344 77.332031 18.082031 78.945312 18.484375 80.570312 C 18.886719 82.1875 19.367188 83.757812 19.929688 85.296875 L 12.648438 92.070312 C 13.945312 94.984375 15.460938 97.75 17.195312 100.335938 L 26.832031 97.78125 C 28.859375 100.410156 31.152344 102.78125 33.675781 104.890625 L 30.761719 114.402344 C 32.429688 115.613281 34.171875 116.71875 35.960938 117.734375 C 28.300781 131.632812 25.199219 150.0625 38.121094 162.125 C 38.511719 161.742188 38.878906 161.402344 39.203125 161.101562 C 39.578125 161.429688 40.019531 161.699219 40.515625 161.878906 C 40.679688 161.941406 40.851562 161.996094 41.015625 162.054688 L 38.375 162.371094 C 38.285156 162.292969 38.207031 162.203125 38.117188 162.121094 C 32.75 167.304688 21.699219 179.859375 21.699219 195.398438 L 22.53125 239.4375 C 22.621094 245.519531 21.609375 251.566406 19.515625 257.277344 C 10.769531 281.136719 12.417969 319.542969 12.417969 336.203125 L 13.894531 336.203125 C 13.898438 338.394531 13.882812 340.828125 13.828125 343.355469 C 13.828125 343.355469 13.828125 343.355469 13.828125 343.359375 C 13.828125 343.355469 13.828125 343.355469 13.828125 343.355469 C 13.207031 348.003906 12.394531 351.457031 12.292969 355.871094 L 12.203125 355.871094 C 11.96875 355.871094 11.78125 356.058594 11.78125 356.292969 C 11.78125 356.523438 11.96875 356.714844 12.203125 356.714844 L 12.28125 356.714844 C 12.28125 357.679688 12.308594 358.691406 12.386719 359.777344 L 36.851562 359.777344 C 36.804688 358.417969 36.480469 357.292969 35.992188 356.3125 C 35.992188 356.304688 35.996094 356.300781 35.996094 356.292969 C 35.996094 356.140625 35.914062 356.015625 35.792969 355.941406 C 33.332031 351.605469 27.4375 350.222656 27.394531 343.5625 C 27.304688 343.03125 27.152344 342.601562 26.945312 342.25 C 27.046875 342.417969 27.132812 342.605469 27.207031 342.816406 C 27.25 340.742188 27.40625 338.429688 27.613281 336.203125 L 29.289062 336.203125 L 47.628906 256.933594 L 49.828125 241.894531 C 49.835938 241.984375 49.84375 242.074219 49.851562 242.164062 L 48.773438 250.335938 C 48.738281 250.613281 48.929688 250.867188 49.207031 250.902344 C 49.226562 250.90625 49.25 250.90625 49.273438 250.90625 C 49.519531 250.90625 49.734375 250.722656 49.769531 250.46875 L 56.828125 196.996094 L 50.105469 247.925781 C 50.058594 251.105469 49.695312 254.238281 49.011719 257.277344 C 43.636719 281.136719 48.835938 319.542969 51.1875 336.203125 L 52.050781 336.203125 C 52.101562 339.171875 51.914062 342.074219 51.324219 344.652344 C 51.320312 344.664062 49.566406 349.238281 49.6875 355.871094 C 49.457031 355.875 49.269531 356.058594 49.269531 356.292969 C 49.269531 356.523438 49.460938 356.714844 49.691406 356.714844 L 49.710938 356.714844 C 49.75 357.699219 49.835938 358.722656 49.972656 359.78125 L 91.316406 359.777344 C 91.316406 359.777344 91.644531 358.324219 90.859375 356.664062 C 90.996094 356.59375 91.089844 356.457031 91.089844 356.292969 C 91.089844 356.058594 90.902344 355.871094 90.667969 355.871094 L 90.394531 355.871094 C 89.707031 354.878906 88.570312 353.886719 86.667969 353.140625 C 81.582031 351.140625 75.066406 349.59375 67.699219 341.609375 C 61.4375 348.0625 52.277344 344.992188 51.398438 344.679688 C 52.273438 344.992188 61.390625 348.042969 67.648438 341.660156 C 67.53125 340.027344 67.503906 338.160156 67.523438 336.199219 L 68.058594 336.199219 L 75.328125 256.933594 L 73.628906 188.066406 L 73.628906 164.898438 C 74.175781 164.703125 74.667969 164.394531 75.085938 164 C 77.699219 165.328125 80.960938 165.082031 83.375 163.105469 L 113.296875 138.582031 L 105.101562 145.296875 Z M 26.410156 341.636719 C 26.335938 341.574219 26.265625 341.511719 26.1875 341.460938 C 26.265625 341.511719 26.335938 341.578125 26.410156 341.636719 Z M 25.960938 341.34375 C 25.878906 341.304688 25.800781 341.261719 25.714844 341.234375 C 25.800781 341.261719 25.878906 341.304688 25.960938 341.34375 Z M 25.457031 341.160156 C 25.367188 341.140625 25.277344 341.117188 25.183594 341.101562 C 25.277344 341.117188 25.367188 341.140625 25.457031 341.160156 Z M 24.90625 341.074219 C 24.808594 341.066406 24.710938 341.058594 24.609375 341.058594 C 24.710938 341.058594 24.808594 341.066406 24.90625 341.074219 Z M 24.3125 341.066406 C 24.210938 341.074219 24.105469 341.082031 24 341.09375 C 24.105469 341.082031 24.210938 341.074219 24.3125 341.066406 Z M 23.691406 341.140625 C 23.578125 341.15625 23.46875 341.179688 23.355469 341.203125 C 23.46875 341.175781 23.578125 341.15625 23.691406 341.140625 Z M 23.039062 341.277344 C 22.925781 341.304688 22.808594 341.335938 22.691406 341.371094 C 22.808594 341.339844 22.925781 341.304688 23.039062 341.277344 Z M 22.371094 341.472656 C 22.253906 341.511719 22.132812 341.554688 22.015625 341.597656 C 22.132812 341.554688 22.253906 341.511719 22.371094 341.472656 Z M 21.695312 341.714844 C 21.574219 341.761719 21.449219 341.816406 21.328125 341.867188 C 21.449219 341.816406 21.574219 341.765625 21.695312 341.714844 Z M 21.019531 342 C 20.894531 342.054688 20.769531 342.113281 20.644531 342.175781 C 20.769531 342.113281 20.894531 342.054688 21.019531 342 Z M 20.351562 342.3125 C 20.21875 342.378906 20.089844 342.445312 19.960938 342.511719 C 20.089844 342.445312 20.21875 342.378906 20.351562 342.3125 Z M 19.695312 342.648438 C 19.550781 342.730469 19.40625 342.808594 19.265625 342.886719 C 19.40625 342.808594 19.550781 342.730469 19.695312 342.648438 Z M 19.066406 343 C 18.859375 343.117188 18.660156 343.234375 18.464844 343.355469 C 18.65625 343.234375 18.859375 343.117188 19.066406 343 Z M 26.601562 341.800781 C 26.671875 341.871094 26.734375 341.964844 26.796875 342.050781 C 26.734375 341.964844 26.671875 341.871094 26.601562 341.800781 Z M 109.367188 102.324219 C 108.945312 102.328125 108.550781 102.40625 108.167969 102.523438 C 108.164062 102.347656 108.160156 102.175781 108.160156 102.007812 L 108.332031 102.058594 C 108.621094 101.65625 108.898438 101.242188 109.179688 100.832031 C 109.238281 101.320312 109.300781 101.816406 109.367188 102.324219 Z M 79.726562 115.347656 C 79.667969 115.289062 79.613281 115.230469 79.558594 115.175781 C 79.613281 115.230469 79.667969 115.289062 79.726562 115.347656 Z M 50.339844 164.589844 C 50.265625 164.578125 50.195312 164.5625 50.125 164.550781 C 50.195312 164.5625 50.265625 164.578125 50.339844 164.589844 Z M 48.339844 164.167969 C 48.292969 164.15625 48.246094 164.148438 48.199219 164.136719 C 48.246094 164.148438 48.292969 164.15625 48.339844 164.167969 Z M 46.390625 163.695312 C 46.367188 163.691406 46.347656 163.6875 46.328125 163.679688 C 46.347656 163.683594 46.367188 163.691406 46.390625 163.695312 Z M 52.402344 164.964844 C 52.296875 164.945312 52.191406 164.929688 52.085938 164.914062 C 52.191406 164.929688 52.296875 164.945312 52.402344 164.964844 Z M 61.046875 165.832031 C 60.789062 165.820312 60.53125 165.816406 60.277344 165.804688 C 60.53125 165.816406 60.789062 165.820312 61.046875 165.832031 Z M 58.847656 165.714844 C 58.628906 165.703125 58.40625 165.691406 58.183594 165.671875 C 58.40625 165.691406 58.628906 165.699219 58.847656 165.714844 Z M 56.667969 165.53125 C 56.488281 165.511719 56.304688 165.496094 56.121094 165.476562 C 56.304688 165.496094 56.488281 165.511719 56.667969 165.53125 Z M 54.511719 165.277344 C 54.371094 165.257812 54.226562 165.242188 54.089844 165.222656 C 54.230469 165.242188 54.371094 165.257812 54.511719 165.277344 Z M 62.378906 165.871094 C 62.679688 165.875 62.976562 165.871094 63.273438 165.871094 C 62.976562 165.871094 62.679688 165.875 62.378906 165.871094 Z M 80.582031 116.273438 C 80.628906 116.328125 80.679688 116.382812 80.726562 116.441406 C 80.679688 116.382812 80.628906 116.328125 80.582031 116.273438 Z M 81.640625 117.597656 C 81.871094 117.738281 82.097656 117.882812 82.316406 118.046875 C 82.097656 117.882812 81.871094 117.742188 81.640625 117.597656 Z M 57.617188 46.234375 C 68.03125 43.65625 78.539062 48.328125 83.824219 57.042969 C 83.597656 57.085938 83.371094 57.121094 83.144531 57.171875 C 69.660156 59.628906 61.851562 59.207031 59.15625 74.609375 C 57.613281 83.421875 58.03125 87.835938 56.1875 92.257812 C 48.511719 89.828125 42.242188 83.585938 40.164062 75.199219 C 36.988281 62.378906 44.808594 49.410156 57.617188 46.234375 Z M 37.894531 157.082031 C 37.839844 157.3125 37.816406 157.539062 37.800781 157.769531 C 37.816406 157.539062 37.839844 157.3125 37.894531 157.082031 Z M 37.796875 157.96875 C 37.796875 158.136719 37.804688 158.300781 37.824219 158.464844 C 37.804688 158.300781 37.796875 158.136719 37.796875 157.96875 Z M 38 159.296875 C 37.929688 159.089844 37.882812 158.878906 37.847656 158.660156 C 37.882812 158.878906 37.929688 159.089844 38 159.296875 Z M 38.019531 159.347656 C 38.085938 159.535156 38.167969 159.71875 38.261719 159.894531 C 38.167969 159.71875 38.085938 159.535156 38.019531 159.347656 Z M 38.757812 160.636719 C 38.894531 160.800781 39.039062 160.957031 39.203125 161.097656 C 39.039062 160.957031 38.894531 160.800781 38.757812 160.636719 Z M 38.371094 160.085938 C 38.449219 160.214844 38.53125 160.339844 38.621094 160.460938 C 38.53125 160.339844 38.445312 160.214844 38.371094 160.085938 Z M 44.523438 163.183594 C 44.515625 163.183594 44.507812 163.179688 44.5 163.175781 C 44.507812 163.179688 44.515625 163.183594 44.523438 163.183594 Z M 66.625 165.789062 C 67.007812 165.765625 67.390625 165.734375 67.769531 165.703125 C 67.390625 165.734375 67.007812 165.765625 66.625 165.789062 Z M 64.5 165.867188 C 64.839844 165.859375 65.175781 165.84375 65.515625 165.832031 C 65.175781 165.84375 64.839844 165.859375 64.5 165.867188 Z M 70.871094 165.394531 C 71.578125 165.300781 72.28125 165.195312 72.980469 165.070312 C 72.28125 165.195312 71.578125 165.300781 70.871094 165.394531 Z M 68.75 165.632812 C 69.203125 165.589844 69.652344 165.535156 70.101562 165.480469 C 69.652344 165.535156 69.203125 165.589844 68.75 165.632812 Z M 81.808594 145 C 82.023438 144.265625 82.234375 143.527344 82.4375 142.789062 L 83.710938 143.734375 Z M 105.007812 129.550781 C 105.035156 129.339844 105.066406 129.128906 105.101562 128.917969 L 105.101562 129.488281 L 107.332031 128 Z M 105.007812 129.550781 " fill-opacity="1" fill-rule="nonzero"/></g><g clip-path="url(#af75b638c1)"><path fill="#b48992" d="M 47.523438 26 L 40.75 18.722656 C 37.835938 20.019531 35.070312 21.53125 32.484375 23.269531 L 35.042969 32.902344 C 32.414062 34.929688 30.042969 37.234375 27.929688 39.75 L 18.417969 36.832031 C 16.570312 39.382812 14.9375 42.089844 13.546875 44.914062 L 20.566406 51.972656 C 19.320312 55.007812 18.398438 58.179688 17.832031 61.449219 L 8.117188 63.6875 C 7.789062 66.785156 7.742188 69.9375 7.953125 73.117188 L 17.554688 75.710938 C 17.777344 77.332031 18.082031 78.945312 18.484375 80.570312 C 18.886719 82.1875 19.367188 83.757812 19.929688 85.296875 L 12.648438 92.070312 C 13.945312 94.984375 15.460938 97.75 17.195312 100.335938 L 26.832031 97.78125 C 28.859375 100.410156 31.152344 102.78125 33.675781 104.890625 L 30.757812 114.402344 C 33.3125 116.25 36.015625 117.882812 38.839844 119.277344 L 45.890625 112.257812 C 48.933594 113.503906 52.105469 114.425781 55.375 114.992188 L 57.613281 124.707031 C 60.710938 125.03125 63.863281 125.082031 67.046875 124.867188 L 69.636719 115.265625 C 71.261719 115.042969 72.871094 114.738281 74.488281 114.339844 C 76.113281 113.9375 77.683594 113.453125 79.222656 112.890625 L 85.996094 120.171875 C 88.910156 118.875 91.675781 117.359375 94.261719 115.625 L 91.707031 105.988281 C 94.335938 103.960938 96.707031 101.667969 98.808594 99.148438 L 108.328125 102.058594 C 110.179688 99.507812 111.808594 96.804688 113.203125 93.980469 L 106.183594 86.929688 C 107.421875 83.886719 108.351562 80.714844 108.917969 77.445312 L 118.632812 75.207031 C 118.957031 72.109375 119.007812 68.957031 118.792969 65.773438 L 109.191406 63.183594 C 108.96875 61.558594 108.664062 59.949219 108.265625 58.332031 C 107.863281 56.703125 107.378906 55.136719 106.816406 53.597656 L 114.097656 46.824219 C 112.800781 43.910156 111.285156 41.144531 109.550781 38.558594 L 99.917969 41.113281 C 97.886719 38.484375 95.585938 36.113281 93.074219 34.011719 L 95.988281 24.492188 C 93.4375 22.640625 90.730469 21.011719 87.90625 19.617188 L 80.847656 26.636719 C 77.8125 25.398438 74.640625 24.46875 71.371094 23.902344 L 69.132812 14.1875 C 66.035156 13.863281 62.882812 13.8125 59.699219 14.027344 L 57.109375 23.625 C 55.488281 23.851562 53.875 24.15625 52.25 24.558594 C 50.632812 24.957031 49.0625 25.441406 47.523438 26 Z M 57.617188 46.234375 C 70.4375 43.058594 83.410156 50.878906 86.585938 63.699219 C 89.761719 76.511719 81.941406 89.484375 69.121094 92.660156 C 56.308594 95.832031 43.339844 88.015625 40.164062 75.203125 C 36.988281 62.378906 44.808594 49.410156 57.617188 46.234375 Z M 264.414062 18.59375 L 259.863281 13.695312 C 257.902344 14.570312 256.042969 15.585938 254.304688 16.753906 L 256.023438 23.234375 C 254.257812 24.597656 252.660156 26.144531 251.242188 27.835938 L 244.847656 25.875 C 243.605469 27.589844 242.507812 29.410156 241.570312 31.308594 L 246.289062 36.054688 C 245.449219 38.097656 244.832031 40.226562 244.449219 42.429688 L 237.917969 43.933594 C 237.699219 46.015625 237.667969 48.136719 237.808594 50.273438 L 244.265625 52.015625 C 244.414062 53.109375 244.621094 54.191406 244.890625 55.285156 C 245.160156 56.375 245.484375 57.429688 245.863281 58.464844 L 240.96875 63.019531 C 241.839844 64.976562 242.859375 66.835938 244.023438 68.574219 L 250.503906 66.855469 C 251.867188 68.625 253.410156 70.21875 255.105469 71.640625 L 253.144531 78.035156 C 254.859375 79.277344 256.679688 80.375 258.578125 81.3125 L 263.320312 76.589844 C 265.367188 77.429688 267.5 78.046875 269.699219 78.429688 L 271.203125 84.960938 C 273.285156 85.179688 275.40625 85.214844 277.546875 85.070312 L 279.289062 78.613281 C 280.378906 78.464844 281.464844 78.261719 282.550781 77.988281 C 283.644531 77.71875 284.699219 77.394531 285.734375 77.015625 L 290.289062 81.914062 C 292.246094 81.039062 294.105469 80.023438 295.847656 78.855469 L 294.125 72.375 C 295.894531 71.011719 297.488281 69.46875 298.902344 67.773438 L 305.304688 69.734375 C 306.546875 68.019531 307.644531 66.199219 308.582031 64.300781 L 303.863281 59.558594 C 304.691406 57.515625 305.320312 55.382812 305.699219 53.179688 L 312.230469 51.675781 C 312.449219 49.59375 312.484375 47.472656 312.339844 45.335938 L 305.886719 43.59375 C 305.734375 42.5 305.53125 41.417969 305.261719 40.328125 C 304.988281 39.234375 304.664062 38.179688 304.289062 37.144531 L 309.183594 32.589844 C 308.3125 30.632812 307.292969 28.773438 306.125 27.03125 L 299.648438 28.753906 C 298.28125 26.984375 296.734375 25.390625 295.046875 23.976562 L 297.003906 17.574219 C 295.289062 16.332031 293.46875 15.234375 291.570312 14.296875 L 286.824219 19.019531 C 284.785156 18.183594 282.652344 17.558594 280.453125 17.179688 L 278.949219 10.644531 C 276.863281 10.425781 274.742188 10.394531 272.605469 10.539062 L 270.863281 16.992188 C 269.769531 17.144531 268.6875 17.347656 267.59375 17.621094 C 266.507812 17.890625 265.453125 18.214844 264.414062 18.59375 Z M 271.203125 32.199219 C 279.824219 30.0625 288.546875 35.320312 290.683594 43.941406 C 292.816406 52.558594 287.558594 61.277344 278.9375 63.414062 C 270.324219 65.546875 261.601562 60.289062 259.46875 51.675781 C 257.332031 43.054688 262.589844 34.332031 271.203125 32.199219 Z M 160.75 241.300781 L 152.996094 234.632812 C 150.167969 236.292969 147.515625 238.15625 145.066406 240.222656 L 148.78125 249.777344 C 146.328125 252.152344 144.167969 254.777344 142.296875 257.585938 L 132.242188 255.695312 C 130.644531 258.511719 129.289062 261.464844 128.1875 264.507812 L 136.167969 270.921875 C 135.238281 274.164062 134.660156 277.507812 134.457031 280.917969 L 124.785156 284.3125 C 124.804688 287.515625 125.113281 290.742188 125.695312 293.96875 L 135.800781 295.519531 C 136.214844 297.15625 136.710938 298.765625 137.308594 300.382812 C 137.902344 301.988281 138.574219 303.535156 139.324219 305.046875 L 132.660156 312.800781 C 134.316406 315.628906 136.179688 318.28125 138.25 320.726562 L 147.804688 317.015625 C 150.175781 319.46875 152.792969 321.632812 155.613281 323.5 L 153.71875 333.550781 C 156.539062 335.148438 159.488281 336.507812 162.535156 337.609375 L 168.9375 329.632812 C 172.191406 330.554688 175.535156 331.136719 178.941406 331.339844 L 182.335938 341.011719 C 185.542969 340.992188 188.769531 340.683594 191.996094 340.101562 L 193.546875 329.992188 C 195.179688 329.582031 196.792969 329.085938 198.398438 328.488281 C 200.015625 327.890625 201.5625 327.21875 203.070312 326.472656 L 210.824219 333.136719 C 213.652344 331.480469 216.308594 329.617188 218.753906 327.546875 L 215.039062 317.992188 C 217.492188 315.617188 219.65625 313.003906 221.515625 310.1875 L 231.578125 312.078125 C 233.175781 309.257812 234.53125 306.308594 235.632812 303.261719 L 227.65625 296.859375 C 228.574219 293.609375 229.160156 290.261719 229.367188 286.855469 L 239.039062 283.457031 C 239.015625 280.253906 238.707031 277.027344 238.125 273.800781 L 228.019531 272.25 C 227.605469 270.617188 227.109375 269.003906 226.515625 267.394531 C 225.917969 265.78125 225.246094 264.234375 224.496094 262.722656 L 231.164062 254.96875 C 229.503906 252.140625 227.640625 249.488281 225.570312 247.042969 L 216.015625 250.757812 C 213.644531 248.304688 211.019531 246.144531 208.214844 244.28125 L 210.101562 234.21875 C 207.285156 232.621094 204.332031 231.265625 201.285156 230.164062 L 194.875 238.144531 C 191.636719 237.222656 188.285156 236.636719 184.878906 236.429688 L 181.484375 226.757812 C 178.28125 226.777344 175.054688 227.089844 171.824219 227.671875 L 170.273438 237.777344 C 168.640625 238.191406 167.027344 238.6875 165.414062 239.285156 C 163.808594 239.878906 162.257812 240.550781 160.75 241.300781 Z M 173.378906 260.824219 C 186.117188 256.113281 200.265625 262.621094 204.976562 275.359375 C 209.683594 288.089844 203.171875 302.238281 190.433594 306.949219 C 177.703125 311.65625 163.558594 305.148438 158.847656 292.417969 C 154.140625 279.679688 160.648438 265.53125 173.378906 260.824219 Z M 49.273438 250.90625 C 49.25 250.90625 49.226562 250.902344 49.207031 250.902344 C 48.929688 250.863281 48.738281 250.613281 48.773438 250.335938 L 55.855469 196.6875 C 55.871094 196.574219 55.921875 196.46875 56.007812 196.390625 L 63.441406 189.324219 C 63.644531 189.132812 63.960938 189.136719 64.152344 189.339844 C 64.34375 189.542969 64.335938 189.859375 64.136719 190.050781 L 56.828125 196.996094 L 49.769531 250.46875 C 49.734375 250.722656 49.519531 250.90625 49.273438 250.90625 Z M 315.160156 212.671875 C 315.148438 212.671875 315.140625 212.671875 315.128906 212.671875 L 307.378906 212.183594 C 307.101562 212.164062 306.890625 211.925781 306.90625 211.648438 C 306.925781 211.371094 307.15625 211.148438 307.441406 211.179688 L 315.191406 211.667969 C 315.46875 211.6875 315.679688 211.925781 315.660156 212.199219 C 315.644531 212.46875 315.421875 212.671875 315.160156 212.671875 Z M 291.402344 203.882812 C 290.425781 206.488281 288.238281 210.257812 283.742188 210.257812 C 283.464844 210.257812 283.238281 210.03125 283.238281 209.753906 C 283.238281 209.476562 283.464844 209.253906 283.742188 209.253906 C 287.53125 209.253906 289.464844 206.089844 290.378906 203.75 C 290.71875 203.796875 291.058594 203.839844 291.402344 203.882812 Z M 342.3125 209.753906 C 342.3125 210.03125 342.089844 210.257812 341.8125 210.257812 C 337.382812 210.257812 335.191406 206.605469 334.195312 204.003906 C 334.539062 203.960938 334.875 203.910156 335.214844 203.867188 C 336.148438 206.195312 338.082031 209.253906 341.808594 209.253906 C 342.089844 209.253906 342.3125 209.476562 342.3125 209.753906 Z M 342.3125 209.753906 " fill-opacity="1" fill-rule="nonzero"/></g><path fill="#6f1f2f" d="M 13.828125 343.355469 C 13.828125 343.355469 15.585938 345.101562 18.464844 343.355469 C 21.671875 341.40625 26.675781 339.234375 27.394531 343.5625 C 27.445312 351.855469 36.578125 351.960938 36.851562 359.777344 L 12.386719 359.777344 C 11.925781 353.257812 13.035156 349.285156 13.828125 343.355469 M 51.324219 344.652344 C 51.324219 344.652344 48.835938 351.085938 49.972656 359.78125 L 91.316406 359.777344 C 91.316406 359.777344 92.328125 355.363281 86.667969 353.140625 C 81.582031 351.140625 75.066406 349.59375 67.699219 341.609375 C 61.121094 348.390625 51.324219 344.652344 51.324219 344.652344 M 104.253906 134.097656 L 82.707031 118.351562 C 82.589844 118.253906 82.441406 118.140625 82.316406 118.046875 C 82.097656 117.882812 81.871094 117.738281 81.640625 117.597656 C 77.953125 112.503906 71.789062 109.214844 64.953125 109.214844 C 55.417969 109.214844 47.191406 115.902344 45.238281 125.234375 L 37.894531 157.082031 C 37.425781 159.113281 38.558594 161.160156 40.515625 161.878906 C 49.523438 165.183594 61.675781 167.042969 72.980469 165.070312 C 74.429688 164.820312 75.628906 163.800781 76.125 162.414062 C 77.476562 158.65625 80.269531 150.628906 82.433594 142.789062 L 88.316406 147.148438 Z M 255.539062 251.480469 C 249.441406 251.480469 244.5 246.535156 244.5 240.4375 C 244.5 234.339844 249.441406 229.394531 255.539062 229.394531 C 257.035156 229.394531 258.457031 229.707031 259.753906 230.246094 L 259.753906 210.78125 C 259.753906 208.378906 257.808594 206.433594 255.410156 206.433594 L 234.5625 206.433594 C 235.394531 204.882812 235.867188 203.113281 235.867188 201.230469 C 235.867188 195.132812 230.925781 190.191406 224.824219 190.191406 C 218.726562 190.191406 213.785156 195.132812 213.785156 201.230469 C 213.785156 203.113281 214.257812 204.882812 215.089844 206.433594 L 195.089844 206.433594 C 192.691406 206.433594 190.746094 208.378906 190.746094 210.78125 L 190.746094 271.101562 C 190.746094 273.5 192.691406 275.445312 195.089844 275.445312 L 255.414062 275.445312 C 257.8125 275.445312 259.757812 273.5 259.757812 271.101562 L 259.757812 250.632812 C 258.457031 251.171875 257.035156 251.480469 255.539062 251.480469 Z M 359.046875 174.953125 C 357.445312 159.121094 356.953125 140.402344 356.671875 136.699219 C 356.296875 132.328125 355.929688 127.957031 355.386719 123.597656 C 354.871094 119.492188 352.25 116.171875 348.746094 114.558594 C 348.753906 114.527344 348.753906 114.507812 348.753906 114.507812 C 340.636719 111 332.707031 108.683594 324.84375 107.550781 L 324.976562 109.289062 C 325.355469 114.734375 321.441406 119.550781 315.648438 119.945312 C 309.855469 120.335938 304.851562 116.238281 304.472656 110.792969 L 304.503906 107.316406 C 296.890625 108.246094 289.246094 110.328125 281.476562 113.570312 C 281.464844 113.578125 281.453125 113.585938 281.441406 113.589844 C 278.695312 114.539062 276.328125 116.554688 275.015625 119.414062 L 259.03125 147.503906 L 276.222656 171.59375 L 283.109375 156.042969 C 283.582031 161.890625 283.890625 166.871094 283.890625 169.6875 C 283.890625 178.277344 282.589844 193.40625 282.589844 199.691406 C 282.589844 201.363281 283.808594 202.777344 285.457031 203.042969 C 303.210938 205.917969 323.34375 206.003906 340.632812 203.066406 C 342.269531 202.789062 343.476562 201.378906 343.476562 199.71875 C 343.476562 195.234375 342.808594 186.203125 342.429688 178.277344 Z M 102.859375 82.058594 C 100.996094 82.058594 99.375 83.328125 98.546875 85.1875 C 97.800781 84.84375 97.027344 84.855469 96.28125 85.222656 C 95.457031 83.339844 93.828125 82.058594 91.957031 82.058594 C 89.257812 82.058594 87.0625 84.726562 87.0625 88.003906 C 87.0625 91.285156 89.257812 93.953125 91.957031 93.953125 C 94.65625 93.953125 96.855469 91.285156 96.855469 88.003906 C 96.855469 87.320312 96.753906 86.664062 96.578125 86.050781 C 97.144531 85.742188 97.6875 85.730469 98.25 86.019531 C 98.066406 86.640625 97.964844 87.308594 97.964844 88.003906 C 97.964844 91.285156 100.160156 93.953125 102.863281 93.953125 C 105.5625 93.953125 107.757812 91.285156 107.757812 88.003906 C 107.753906 84.726562 105.558594 82.058594 102.859375 82.058594 Z M 91.957031 93.089844 C 89.730469 93.089844 87.917969 90.808594 87.917969 88.003906 C 87.917969 85.199219 89.730469 82.917969 91.957031 82.917969 C 94.183594 82.917969 95.992188 85.199219 95.992188 88.003906 C 95.992188 90.808594 94.183594 93.089844 91.957031 93.089844 Z M 102.859375 93.089844 C 100.632812 93.089844 98.820312 90.808594 98.820312 88.003906 C 98.820312 85.199219 100.632812 82.917969 102.859375 82.917969 C 105.085938 82.917969 106.894531 85.199219 106.894531 88.003906 C 106.894531 90.808594 105.085938 93.089844 102.859375 93.089844 Z M 102.859375 93.089844 " fill-opacity="1" fill-rule="evenodd"/><g clip-path="url(#9d17daa2de)"><path fill="#f5c0a2" d="M 132.355469 99.121094 L 130.761719 101.992188 C 130.136719 104.929688 129.332031 108.226562 128.679688 111.207031 C 127.917969 114.675781 124.617188 116.304688 120.082031 115.628906 C 114.921875 114.855469 113.605469 112.472656 113.601562 112.464844 C 108.945312 107.144531 109.65625 102.003906 108.738281 98.121094 C 108.335938 96.421875 108.222656 96.003906 109.035156 95.679688 C 109.9375 95.316406 112.035156 96.054688 113.589844 99.371094 C 114.058594 100.367188 114.539062 101.296875 114.925781 102.019531 C 115.414062 98.484375 115.800781 96.222656 115.800781 96.222656 L 116.039062 96.242188 C 116.328125 95.738281 116.8125 95.359375 117.433594 95.242188 C 118.457031 95.054688 119.414062 95.652344 119.753906 96.574219 L 121.105469 96.695312 C 121.113281 96.582031 121.121094 96.480469 121.128906 96.40625 C 121.242188 95.234375 122.214844 94.332031 123.390625 94.433594 C 124.515625 94.53125 125.328125 95.5 125.285156 96.585938 C 125.6875 95.652344 126.660156 95.085938 127.675781 95.335938 C 128.570312 95.554688 129.167969 96.316406 129.234375 97.167969 C 129.707031 96.609375 130.453125 96.335938 131.199219 96.558594 C 132.277344 96.886719 132.824219 98.09375 132.355469 99.121094 Z M 333.945312 339.363281 L 319.996094 339.363281 C 319.988281 339.628906 319.976562 339.886719 319.976562 340.160156 C 319.976562 345.019531 319.691406 348.738281 319.457031 353.917969 C 320.671875 354.398438 322.265625 354.332031 324.015625 352.464844 C 327.535156 348.707031 331.320312 346.921875 335.089844 348.175781 C 334.015625 345.257812 333.839844 342.316406 333.945312 339.363281 Z M 13.828125 343.355469 C 13.828125 343.355469 15.585938 345.101562 18.464844 343.355469 C 21.46875 341.53125 26.046875 339.511719 27.207031 342.816406 C 27.25 340.738281 27.40625 338.429688 27.613281 336.199219 L 13.894531 336.199219 C 13.898438 338.394531 13.882812 340.828125 13.828125 343.355469 Z M 51.324219 344.652344 C 51.324219 344.652344 61.066406 348.367188 67.648438 341.660156 C 67.53125 340.027344 67.5 338.160156 67.519531 336.199219 L 52.050781 336.199219 C 52.101562 339.171875 51.914062 342.074219 51.324219 344.652344 Z M 135.695312 125.050781 C 132.984375 125.050781 133.070312 125.101562 124.574219 125.0625 C 124.574219 125.0625 124.417969 125.0625 124.144531 125.0625 C 123.84375 125.0625 123.535156 125.058594 123.214844 125.058594 L 123.222656 125.070312 C 120.667969 125.117188 114.960938 125.355469 110.09375 126.582031 C 109.183594 126.8125 108.355469 127.242188 107.652344 127.8125 C 107.546875 127.875 107.4375 127.933594 107.332031 128.003906 L 81.261719 145.367188 L 77.050781 138.144531 L 62.941406 147.21875 L 71.839844 160.878906 L 72.160156 161.378906 C 72.3125 161.605469 72.472656 161.828125 72.648438 162.042969 C 75.316406 165.296875 80.117188 165.773438 83.375 163.105469 L 113.296875 138.582031 C 115.167969 138.820312 117.578125 139.027344 119.960938 138.988281 L 121.65625 140.324219 C 122 140.597656 122.4375 140.71875 122.871094 140.667969 L 125.78125 140.324219 C 126.324219 140.257812 126.789062 139.910156 126.996094 139.402344 L 129.375 133.660156 C 129.796875 132.644531 129.53125 131.46875 128.714844 130.726562 L 126.964844 129.152344 C 128.898438 128.929688 132.941406 128.445312 134.773438 128.097656 C 136.886719 127.699219 138.226562 125.050781 135.695312 125.050781 Z M 259.792969 148.570312 L 259.027344 149.339844 L 243.402344 129.0625 L 201.3125 129.0625 C 201.246094 129.859375 201.800781 130.59375 203.058594 130.777344 C 203.476562 130.839844 204.003906 130.902344 204.597656 130.957031 C 204.15625 131.847656 204.480469 132.78125 205.773438 132.925781 C 206.332031 132.992188 207.175781 133.082031 208.171875 133.191406 C 208.414062 133.523438 208.785156 133.808594 209.300781 133.964844 C 211.582031 134.648438 215.945312 135.617188 217.621094 135.980469 C 218.070312 136.078125 218.523438 136.144531 218.984375 136.183594 C 218.984375 136.183594 227.75 136.914062 229.066406 136.980469 L 229.09375 136.984375 C 229.394531 136.996094 229.699219 137.003906 230.007812 137.007812 L 248.671875 170.789062 C 251.84375 175.996094 258.632812 177.648438 263.84375 174.480469 C 264.734375 173.9375 268.480469 170.101562 272.292969 166.089844 Z M 363.152344 226.382812 C 363.152344 226.375 363.15625 226.367188 363.15625 226.359375 C 363.132812 225.738281 362.980469 224.09375 362.777344 222.039062 C 362.234375 216.628906 361.320312 208.371094 361.320312 208.367188 L 357.617188 175.238281 L 342.429688 178.277344 C 342.570312 181.175781 342.746094 184.21875 342.914062 187.136719 C 345.464844 196.246094 348.464844 206.9375 349.394531 210.257812 C 349.222656 210.5 349.070312 210.742188 348.941406 210.980469 C 347.246094 214.109375 346.96875 216.179688 347.519531 220.859375 C 347.367188 220.796875 347.203125 220.746094 347.03125 220.726562 C 345.90625 220.589844 344.925781 221.492188 344.972656 222.621094 L 345.210938 228.53125 C 345.234375 229.078125 345.5 229.589844 345.941406 229.921875 L 350.609375 233.449219 L 351.820312 234.367188 C 352.476562 234.863281 353.378906 234.863281 354.035156 234.367188 L 362.4375 228.027344 C 362.917969 227.664062 363.1875 227.089844 363.164062 226.488281 Z M 292.847656 352.03125 C 292.847656 352.03125 292.851562 352.035156 292.851562 352.035156 C 292.828125 348.152344 293.375 342.941406 293.816406 339.363281 L 278.929688 339.363281 C 278.597656 343.519531 277.988281 346.324219 277.0625 348.664062 C 282.148438 355.375 288.996094 354 292.847656 352.03125 Z M 327.117188 83.222656 C 326.15625 83.144531 325.46875 85.226562 325.019531 87.308594 C 324.824219 87.195312 324.597656 87.121094 324.347656 87.113281 L 324.347656 87.117188 C 324.347656 87.117188 323.382812 79.527344 325.246094 71.8125 C 323.605469 73.433594 317.609375 73.96875 313.277344 72.898438 C 307.984375 71.589844 304.90625 69.742188 301.421875 70.160156 C 299.246094 76.902344 299.175781 83.402344 299.175781 83.402344 L 299.328125 92.460938 C 299.398438 96.558594 301.433594 100.261719 304.546875 102.511719 L 304.472656 110.792969 C 304.851562 116.238281 309.855469 120.335938 315.648438 119.945312 C 321.441406 119.550781 325.355469 114.734375 324.976562 109.289062 L 323.847656 94.34375 L 324.519531 92.304688 C 324.804688 93.003906 325.476562 93.441406 326.207031 93.257812 C 328.386719 92.703125 329.9375 90.921875 330.125 88.695312 C 330.371094 85.835938 329.023438 83.386719 327.117188 83.222656 Z M 102.859375 93.949219 C 100.160156 93.949219 97.960938 91.28125 97.960938 88.003906 C 97.960938 87.304688 98.066406 86.636719 98.25 86.015625 C 97.683594 85.730469 97.144531 85.742188 96.574219 86.050781 C 96.753906 86.664062 96.851562 87.316406 96.851562 88.003906 C 96.851562 91.28125 94.65625 93.949219 91.957031 93.949219 C 89.253906 93.949219 87.058594 91.28125 87.058594 88.003906 C 87.058594 84.722656 89.253906 82.054688 91.957031 82.054688 C 93.828125 82.054688 95.457031 83.339844 96.28125 85.21875 C 97.027344 84.851562 97.796875 84.84375 98.546875 85.1875 C 99.375 83.324219 100.996094 82.054688 102.859375 82.054688 C 103.355469 82.054688 103.832031 82.148438 104.285156 82.316406 C 104.296875 80.707031 104.011719 79.148438 103.480469 77.699219 C 102.992188 77.660156 102.503906 77.609375 102.015625 77.539062 C 97.441406 76.890625 90.210938 74.492188 85.394531 71.582031 C 82.503906 76.363281 86.4375 85.972656 80.179688 88.011719 C 80.367188 85.785156 80.105469 83.148438 77.953125 82.617188 C 75.511719 82.019531 74.007812 83.8125 73.332031 86.519531 C 72.804688 88.628906 74.140625 90.867188 76.679688 92.238281 C 77.546875 92.707031 78.570312 92.5625 79.160156 92.003906 L 71.6875 110.324219 C 75.730469 111.6875 79.210938 114.25 81.632812 117.589844 C 81.863281 117.734375 82.09375 117.882812 82.316406 118.046875 C 82.4375 118.136719 82.585938 118.253906 82.707031 118.351562 L 84.699219 119.988281 L 89.929688 106.785156 C 91.210938 106.996094 92.546875 106.988281 93.894531 106.707031 C 98.519531 105.742188 101.835938 101.933594 102.417969 97.503906 L 102.875 93.949219 C 102.871094 93.949219 102.867188 93.949219 102.859375 93.949219 Z M 102.859375 82.914062 C 100.632812 82.914062 98.820312 85.199219 98.820312 88.003906 C 98.820312 90.808594 100.632812 93.089844 102.859375 93.089844 C 102.902344 93.089844 102.945312 93.082031 102.992188 93.082031 L 104.179688 83.894531 C 104.207031 83.671875 104.226562 83.449219 104.246094 83.230469 C 103.8125 83.03125 103.347656 82.914062 102.859375 82.914062 Z M 91.957031 82.914062 C 89.730469 82.914062 87.917969 85.199219 87.917969 88.003906 C 87.917969 90.808594 89.730469 93.089844 91.957031 93.089844 C 94.183594 93.089844 95.992188 90.808594 95.992188 88.003906 C 95.992188 85.199219 94.183594 82.914062 91.957031 82.914062 Z M 91.957031 82.914062 " fill-opacity="1" fill-rule="evenodd"/></g><path fill="#293237" d="M 35.574219 355.871094 L 12.203125 355.871094 C 11.96875 355.871094 11.78125 356.058594 11.78125 356.292969 C 11.78125 356.523438 11.96875 356.710938 12.203125 356.710938 L 35.574219 356.710938 C 35.808594 356.710938 35.996094 356.523438 35.996094 356.292969 C 35.996094 356.058594 35.808594 355.871094 35.574219 355.871094 Z M 35.574219 355.871094 " fill-opacity="1" fill-rule="nonzero"/><path fill="#293237" d="M 124.75 135.042969 L 128.027344 136.636719 C 128.089844 136.664062 128.152344 136.675781 128.214844 136.675781 C 128.371094 136.675781 128.519531 136.589844 128.59375 136.441406 C 128.695312 136.230469 128.605469 135.980469 128.398438 135.875 L 125.117188 134.285156 C 124.90625 134.183594 124.65625 134.269531 124.554688 134.476562 C 124.453125 134.6875 124.539062 134.941406 124.75 135.042969 Z M 124.75 135.042969 " fill-opacity="1" fill-rule="nonzero"/><path fill="#293237" d="M 90.667969 355.871094 L 49.691406 355.871094 C 49.460938 355.871094 49.269531 356.058594 49.269531 356.292969 C 49.269531 356.523438 49.460938 356.710938 49.691406 356.710938 L 90.667969 356.710938 C 90.902344 356.710938 91.089844 356.523438 91.089844 356.292969 C 91.089844 356.058594 90.902344 355.871094 90.667969 355.871094 Z M 90.667969 355.871094 " fill-opacity="1" fill-rule="nonzero"/><path fill="#293237" d="M 21.699219 195.394531 L 22.53125 239.4375 C 22.621094 245.515625 21.609375 251.566406 19.515625 257.277344 C 10.773438 281.136719 12.417969 319.542969 12.417969 336.199219 L 29.289062 336.199219 L 47.628906 256.933594 L 49.828125 241.890625 C 49.835938 241.984375 49.84375 242.074219 49.851562 242.164062 L 55.855469 196.6875 C 55.871094 196.574219 55.921875 196.46875 56.007812 196.386719 L 63.441406 189.324219 C 63.644531 189.128906 63.960938 189.136719 64.152344 189.339844 C 64.34375 189.542969 64.335938 189.859375 64.136719 190.050781 L 56.828125 196.992188 L 50.105469 247.921875 C 50.058594 251.105469 49.699219 254.238281 49.015625 257.273438 C 43.636719 281.136719 48.835938 319.542969 51.1875 336.199219 L 68.058594 336.199219 L 75.328125 256.933594 L 73.628906 188.0625 L 73.628906 164.894531 C 73.417969 164.96875 73.203125 165.03125 72.980469 165.070312 C 61.882812 167.007812 49.972656 165.246094 41.015625 162.050781 L 38.375 162.371094 C 38.285156 162.289062 38.210938 162.203125 38.121094 162.121094 C 32.75 167.304688 21.699219 179.859375 21.699219 195.394531 Z M 21.699219 195.394531 " fill-opacity="1" fill-rule="nonzero"/><path fill="#293237" d="M 77.828125 137.664062 L 68.523438 121.683594 C 68.402344 121.484375 68.144531 121.414062 67.945312 121.535156 C 67.746094 121.652344 67.675781 121.90625 67.792969 122.109375 L 77.101562 138.089844 C 77.179688 138.222656 77.320312 138.296875 77.464844 138.296875 C 77.539062 138.296875 77.609375 138.28125 77.679688 138.242188 C 77.878906 138.121094 77.949219 137.867188 77.828125 137.664062 Z M 77.828125 137.664062 " fill-opacity="1" fill-rule="nonzero"/><path fill="#293237" d="M 349.402344 210.695312 C 349.441406 210.695312 349.484375 210.6875 349.523438 210.675781 L 351.21875 210.160156 C 351.441406 210.089844 351.566406 209.855469 351.5 209.632812 C 351.429688 209.410156 351.199219 209.285156 350.972656 209.351562 L 349.277344 209.871094 C 349.054688 209.9375 348.929688 210.171875 348.996094 210.398438 C 349.054688 210.578125 349.222656 210.695312 349.402344 210.695312 Z M 349.402344 210.695312 " fill-opacity="1" fill-rule="nonzero"/><path fill="#293237" d="M 342.738281 178.089844 C 342.742188 178.089844 342.75 178.089844 342.753906 178.089844 C 342.988281 178.082031 343.167969 177.882812 343.160156 177.652344 L 342.515625 163.019531 L 346.925781 131.09375 C 346.960938 130.863281 346.796875 130.652344 346.566406 130.621094 C 346.339844 130.59375 346.125 130.75 346.09375 130.980469 L 341.675781 162.980469 L 342.316406 177.691406 C 342.324219 177.914062 342.511719 178.089844 342.738281 178.089844 Z M 342.738281 178.089844 " fill-opacity="1" fill-rule="nonzero"/><path fill="#293237" d="M 301.421875 70.160156 C 304.90625 69.742188 307.984375 71.589844 313.277344 72.898438 C 317.613281 73.96875 323.605469 73.433594 325.246094 71.8125 C 323.382812 79.527344 324.347656 87.113281 324.347656 87.113281 C 324.597656 87.117188 324.824219 87.191406 325.019531 87.308594 C 325.46875 85.226562 326.15625 83.140625 327.117188 83.222656 C 329.023438 83.382812 330.371094 85.835938 330.128906 88.695312 C 329.9375 90.921875 328.386719 92.703125 326.207031 93.257812 C 325.480469 93.441406 324.804688 93.003906 324.519531 92.304688 L 323.851562 94.34375 L 323.882812 94.761719 C 326.109375 94.371094 334.890625 92.316406 333.894531 84.339844 C 333.894531 84.339844 340.808594 76.402344 333.945312 70.222656 C 334.023438 63.050781 330.15625 59.566406 322.949219 59.21875 C 322.949219 59.21875 306.65625 57.832031 303.035156 57.613281 C 297.875 57.292969 297.664062 61.757812 299.195312 67.796875 C 299.285156 68.144531 299.414062 68.441406 299.566406 68.714844 C 298.640625 70.546875 298.039062 72.578125 297.859375 74.746094 C 297.628906 77.574219 298.128906 80.289062 299.199219 82.710938 C 299.28125 80.875 299.667969 75.597656 301.421875 70.160156 Z M 301.421875 70.160156 " fill-opacity="1" fill-rule="nonzero"/><path fill="#293237" d="M 283.257812 159.226562 C 283.269531 159.226562 283.28125 159.222656 283.296875 159.222656 C 283.527344 159.203125 283.699219 158.996094 283.675781 158.765625 L 281.121094 131.355469 C 281.101562 131.125 280.910156 130.960938 280.664062 130.976562 C 280.429688 131 280.261719 131.203125 280.28125 131.4375 L 282.839844 158.84375 C 282.859375 159.0625 283.042969 159.226562 283.257812 159.226562 Z M 283.257812 159.226562 " fill-opacity="1" fill-rule="nonzero"/><path fill="#293237" d="M 283.738281 209.253906 C 287.53125 209.253906 289.464844 206.089844 290.378906 203.75 C 288.722656 203.535156 287.078125 203.304688 285.457031 203.042969 C 284.875 202.949219 284.351562 202.707031 283.910156 202.363281 L 283.65625 209.269531 C 283.6875 209.265625 283.710938 209.253906 283.738281 209.253906 Z M 283.738281 209.253906 " fill-opacity="1" fill-rule="nonzero"/><path fill="#293237" d="M 125.433594 132.277344 L 128.917969 134.382812 C 128.984375 134.425781 129.058594 134.445312 129.136719 134.445312 C 129.277344 134.445312 129.417969 134.371094 129.496094 134.242188 C 129.617188 134.042969 129.550781 133.78125 129.351562 133.660156 L 125.867188 131.554688 C 125.671875 131.4375 125.410156 131.5 125.289062 131.699219 C 125.171875 131.898438 125.234375 132.15625 125.433594 132.277344 Z M 125.433594 132.277344 " fill-opacity="1" fill-rule="nonzero"/><path fill="#293237" d="M 253.007812 366.257812 C 252.890625 367.160156 253.597656 367.964844 254.511719 367.964844 L 292.671875 367.964844 C 293.464844 367.964844 294.125 367.359375 294.179688 366.566406 C 294.230469 365.921875 294.273438 365.074219 294.296875 364.09375 L 262.925781 364.09375 L 260.308594 360.011719 C 259.394531 360.457031 258.519531 360.859375 257.707031 361.210938 C 254.140625 362.757812 253.238281 364.539062 253.007812 366.257812 Z M 253.007812 366.257812 " fill-opacity="1" fill-rule="nonzero"/><path fill="#293237" d="M 277.0625 348.664062 C 274.097656 352.367188 266.332031 357.085938 260.308594 360.011719 L 262.925781 364.09375 L 294.296875 364.09375 C 294.375 360.867188 294.1875 356.152344 292.847656 352.03125 C 288.996094 354 282.148438 355.375 277.0625 348.664062 Z M 277.0625 348.664062 " fill-opacity="1" fill-rule="nonzero"/><path fill="#293237" d="M 341.464844 304.941406 C 343.265625 291.433594 340.597656 271.582031 340.597656 271.582031 L 341.800781 210.257812 C 337.378906 210.25 335.191406 206.601562 334.195312 204.003906 C 334.539062 203.960938 334.875 203.910156 335.214844 203.867188 C 336.148438 206.195312 338.082031 209.253906 341.808594 209.253906 C 341.8125 209.253906 341.816406 209.253906 341.820312 209.253906 L 341.953125 202.53125 C 341.5625 202.792969 341.121094 202.984375 340.632812 203.066406 C 325.207031 205.6875 307.511719 205.894531 291.261719 203.867188 C 291.308594 203.871094 291.355469 203.878906 291.398438 203.882812 C 290.425781 206.488281 288.234375 210.257812 283.738281 210.257812 C 283.695312 210.257812 283.660156 210.242188 283.621094 210.234375 L 281.390625 270.925781 L 278.476562 339.363281 L 295.53125 339.363281 C 299.242188 327.042969 307.863281 296.664062 303.65625 274.839844 L 312.851562 212.527344 L 307.375 212.179688 C 307.097656 212.164062 306.890625 211.925781 306.90625 211.648438 C 306.925781 211.371094 307.15625 211.144531 307.4375 211.179688 L 315.191406 211.667969 C 315.46875 211.683594 315.675781 211.921875 315.660156 212.199219 C 315.644531 212.460938 315.429688 212.660156 315.175781 212.667969 L 319.042969 339.363281 L 336.0625 339.363281 C 337.488281 330.878906 340.175781 314.601562 341.464844 304.941406 Z M 341.464844 304.941406 " fill-opacity="1" fill-rule="nonzero"/><path fill="#293237" d="M 356.546875 216.964844 C 356.328125 216.949219 356.113281 217.117188 356.09375 217.347656 L 355.621094 222.800781 L 352.574219 233.042969 C 352.503906 233.273438 352.324219 233.457031 352.09375 233.53125 C 351.867188 233.605469 351.636719 233.5625 351.457031 233.421875 C 350.773438 232.886719 350.378906 232.003906 350.285156 230.800781 C 350.023438 227.457031 350.191406 223.480469 350.195312 223.441406 C 350.203125 223.269531 350.101562 223.109375 349.941406 223.039062 C 349.890625 223.015625 348.613281 222.421875 348.078125 220.59375 C 348.015625 220.371094 347.78125 220.242188 347.554688 220.308594 C 347.332031 220.371094 347.203125 220.605469 347.269531 220.828125 C 347.769531 222.542969 348.84375 223.367188 349.339844 223.667969 C 349.308594 224.621094 349.21875 227.972656 349.445312 230.867188 C 349.558594 232.316406 350.058594 233.398438 350.9375 234.085938 C 351.207031 234.296875 351.539062 234.410156 351.875 234.410156 C 352.035156 234.410156 352.195312 234.386719 352.347656 234.335938 C 352.847656 234.175781 353.234375 233.78125 353.382812 233.28125 L 356.445312 223 C 356.453125 222.972656 356.457031 222.945312 356.460938 222.914062 L 356.933594 217.421875 C 356.953125 217.1875 356.78125 216.984375 356.546875 216.964844 Z M 356.546875 216.964844 " fill-opacity="1" fill-rule="nonzero"/><path fill="#293237" d="M 343.441406 358.066406 C 343.441406 358.066406 343.445312 358.066406 343.445312 358.066406 C 343.355469 357.984375 343.261719 357.90625 343.171875 357.824219 C 342.410156 357.136719 341.632812 356.457031 340.859375 355.765625 C 340.679688 355.605469 340.5 355.441406 340.324219 355.277344 C 340.132812 355.101562 339.945312 354.925781 339.757812 354.75 C 339.566406 354.570312 339.382812 354.386719 339.195312 354.199219 C 339.027344 354.03125 338.859375 353.863281 338.695312 353.691406 C 338.503906 353.496094 338.320312 353.289062 338.140625 353.085938 C 337.988281 352.917969 337.835938 352.753906 337.691406 352.578125 C 337.503906 352.359375 337.332031 352.128906 337.15625 351.898438 C 337.027344 351.730469 336.898438 351.566406 336.777344 351.398438 C 336.59375 351.132812 336.421875 350.855469 336.253906 350.578125 C 336.164062 350.429688 336.0625 350.285156 335.976562 350.128906 C 335.734375 349.695312 335.511719 349.246094 335.320312 348.777344 C 335.316406 348.769531 335.3125 348.765625 335.308594 348.757812 C 335.230469 348.566406 335.164062 348.371094 335.09375 348.175781 C 334.152344 347.863281 333.214844 347.742188 332.277344 347.789062 C 331.804688 347.8125 331.332031 347.878906 330.859375 347.992188 C 328.523438 348.539062 326.21875 350.113281 324.019531 352.460938 C 322.683594 353.886719 321.441406 354.261719 320.386719 354.144531 C 320.058594 354.109375 319.746094 354.027344 319.460938 353.914062 C 319.441406 354.300781 319.425781 354.699219 319.410156 355.105469 C 319.402344 355.257812 319.394531 355.414062 319.390625 355.566406 C 319.378906 355.796875 319.371094 356.027344 319.363281 356.261719 C 319.351562 356.511719 319.34375 356.769531 319.335938 357.027344 C 319.328125 357.175781 319.324219 357.324219 319.320312 357.476562 C 319.308594 357.785156 319.300781 358.097656 319.289062 358.414062 C 319.285156 358.503906 319.285156 358.597656 319.28125 358.6875 C 319.214844 360.945312 319.167969 363.480469 319.15625 366.441406 C 319.148438 367.277344 319.828125 367.964844 320.667969 367.964844 L 347.238281 367.964844 C 348.164062 367.964844 348.886719 367.136719 348.738281 366.226562 C 348.175781 362.785156 345.964844 360.367188 343.441406 358.066406 Z M 343.441406 358.066406 " fill-opacity="1" fill-rule="nonzero"/><path fill="#293237" d="M 52.628906 134.019531 C 52.433594 134.144531 52.378906 134.40625 52.503906 134.601562 L 61.378906 148.226562 C 61.460938 148.351562 61.59375 148.417969 61.730469 148.417969 C 61.8125 148.417969 61.890625 148.398438 61.960938 148.351562 C 62.15625 148.226562 62.210938 147.964844 62.082031 147.769531 L 53.210938 134.144531 C 53.082031 133.949219 52.820312 133.894531 52.628906 134.019531 Z M 52.628906 134.019531 " fill-opacity="1" fill-rule="nonzero"/><path fill="#293237" d="M 170.507812 192.042969 L 149.664062 192.042969 C 150.492188 190.492188 150.964844 188.722656 150.964844 186.839844 C 150.964844 180.742188 146.023438 175.800781 139.925781 175.800781 C 133.824219 175.800781 128.882812 180.742188 128.882812 186.839844 C 128.882812 188.722656 129.355469 190.492188 130.183594 192.042969 L 110.1875 192.042969 C 107.789062 192.042969 105.84375 193.988281 105.84375 196.390625 L 105.84375 256.710938 C 105.84375 259.109375 107.789062 261.054688 110.1875 261.054688 L 170.507812 261.054688 C 172.910156 261.054688 174.855469 259.109375 174.855469 256.710938 L 174.855469 196.390625 C 174.855469 193.988281 172.910156 192.042969 170.507812 192.042969 Z M 170.507812 192.042969 " fill-opacity="1" fill-rule="nonzero"/><path fill="#293237" d="M 108.554688 108.933594 C 106.921875 91.296875 110.671875 88.464844 111.402344 76.367188 C 112.132812 64.269531 99.652344 53.605469 83.144531 57.171875 C 69.660156 59.628906 61.851562 59.207031 59.15625 74.609375 C 56.460938 90.015625 59.765625 91.976562 46.480469 104.042969 C 33.257812 116.050781 20.089844 145.292969 38.121094 162.121094 C 38.511719 161.742188 38.878906 161.398438 39.203125 161.101562 C 38.085938 160.125 37.542969 158.601562 37.894531 157.082031 L 45.238281 125.234375 C 47.191406 115.902344 55.417969 109.214844 64.953125 109.214844 C 67.347656 109.214844 69.652344 109.625 71.800781 110.367188 C 71.761719 110.355469 71.726562 110.335938 71.6875 110.324219 L 79.160156 92.007812 C 78.570312 92.5625 77.546875 92.707031 76.679688 92.238281 C 74.140625 90.871094 72.804688 88.628906 73.332031 86.523438 C 74.007812 83.816406 75.511719 82.019531 77.953125 82.621094 C 80.105469 83.148438 80.367188 85.789062 80.179688 88.011719 C 86.4375 85.976562 82.507812 76.363281 85.394531 71.585938 C 90.210938 74.492188 97.441406 76.894531 102.015625 77.542969 C 102.503906 77.613281 102.992188 77.660156 103.480469 77.699219 C 104.183594 79.621094 104.457031 81.726562 104.179688 83.894531 L 102.417969 97.503906 C 101.835938 101.9375 98.519531 105.742188 93.894531 106.707031 C 92.546875 106.988281 91.207031 106.996094 89.929688 106.785156 L 84.699219 119.988281 L 100.726562 132.449219 L 104.960938 129.863281 C 105.78125 123.351562 109.316406 117.171875 108.554688 108.933594 Z M 108.554688 108.933594 " fill-opacity="1" fill-rule="nonzero"/><path fill="#293237" d="M 257.695312 124.742188 L 257.695312 64.804688 C 257.695312 62.417969 255.761719 60.484375 253.378906 60.484375 L 234.734375 60.484375 C 235.542969 62.011719 236.007812 63.753906 236.007812 65.601562 C 236.007812 71.632812 231.121094 76.519531 225.089844 76.519531 C 219.058594 76.519531 214.171875 71.632812 214.171875 65.601562 C 214.171875 63.753906 214.636719 62.011719 215.449219 60.484375 L 193.4375 60.484375 C 191.054688 60.484375 189.121094 62.417969 189.121094 64.804688 L 189.121094 84.699219 C 190.691406 84.078125 192.433594 83.800781 194.269531 84 C 199.566406 84.574219 203.742188 89.054688 203.929688 94.378906 C 204.148438 100.542969 199.214844 105.609375 193.097656 105.609375 C 191.691406 105.609375 190.351562 105.335938 189.121094 104.847656 L 189.121094 124.742188 C 189.121094 127.128906 191.054688 129.0625 193.4375 129.0625 L 253.378906 129.0625 C 255.761719 129.0625 257.695312 127.128906 257.695312 124.742188 Z M 257.695312 124.742188 " fill-opacity="1" fill-rule="nonzero"/><path fill="#293237" d="M 236.214844 136.671875 L 230.8125 136.671875 C 230.582031 136.671875 230.390625 136.859375 230.390625 137.09375 C 230.390625 137.324219 230.582031 137.515625 230.8125 137.515625 L 236.214844 137.515625 C 236.449219 137.515625 236.636719 137.324219 236.636719 137.09375 C 236.636719 136.859375 236.449219 136.671875 236.214844 136.671875 Z M 236.214844 136.671875 " fill-opacity="1" fill-rule="nonzero"/><path fill="#b48992" d="M 178.488281 125.101562 C 176.628906 125.101562 174.875 125.570312 173.34375 126.390625 L 173.34375 106.617188 C 173.34375 104.246094 171.421875 102.320312 169.046875 102.320312 L 130.597656 102.320312 C 129.984375 103.390625 128.625 103.285156 128.117188 102.320312 L 127.417969 102.320312 C 126.804688 103.773438 125.007812 103.65625 124.496094 102.320312 L 124.144531 102.320312 C 123.679688 103.953125 121.589844 103.964844 121.066406 102.320312 L 120.035156 102.320312 C 119.628906 103.679688 117.738281 103.929688 116.980469 102.320312 L 109.402344 102.320312 C 107.027344 102.320312 105.105469 104.246094 105.105469 106.617188 L 105.105469 129.484375 L 107.335938 128 C 107.4375 127.933594 107.546875 127.875 107.652344 127.8125 C 108.355469 127.242188 109.1875 126.8125 110.09375 126.582031 C 114.960938 125.355469 120.671875 125.113281 123.222656 125.070312 L 123.214844 125.058594 C 123.535156 125.058594 123.847656 125.058594 124.148438 125.0625 C 124.417969 125.0625 124.578125 125.0625 124.578125 125.0625 C 133.070312 125.101562 132.984375 125.046875 135.695312 125.046875 C 138.226562 125.046875 136.886719 127.695312 134.777344 128.097656 C 132.945312 128.445312 128.902344 128.925781 126.96875 129.148438 L 128.71875 130.726562 C 129.535156 131.464844 129.800781 132.640625 129.378906 133.660156 L 127 139.402344 C 126.792969 139.90625 126.328125 140.257812 125.785156 140.320312 L 122.875 140.667969 C 122.4375 140.71875 122.003906 140.59375 121.660156 140.324219 L 119.964844 138.984375 C 117.578125 139.023438 115.171875 138.820312 113.300781 138.582031 L 105.105469 145.296875 L 105.105469 166.261719 C 105.105469 168.636719 107.03125 170.558594 109.402344 170.558594 L 128.394531 170.558594 C 127.882812 169.289062 127.597656 167.90625 127.597656 166.453125 C 127.597656 160.355469 132.539062 155.414062 138.636719 155.414062 C 144.738281 155.414062 149.679688 160.355469 149.679688 166.453125 C 149.679688 167.90625 149.394531 169.289062 148.882812 170.558594 L 169.050781 170.558594 C 171.421875 170.558594 173.347656 168.636719 173.347656 166.261719 L 173.347656 145.648438 C 174.878906 146.46875 176.628906 146.9375 178.492188 146.9375 C 184.519531 146.9375 189.410156 142.050781 189.410156 136.019531 C 189.40625 129.992188 184.515625 125.101562 178.488281 125.101562 Z M 178.488281 125.101562 " fill-opacity="1" fill-rule="nonzero"/><path fill="#6f1f2f" d="M 102.746094 81.933594 C 100.890625 81.933594 99.285156 83.257812 98.488281 85.1875 C 97.605469 84.65625 96.738281 84.933594 96.199219 85.292969 C 95.398438 83.367188 93.796875 82.050781 91.945312 82.050781 C 89.296875 82.050781 87.148438 84.742188 87.148438 88.058594 C 87.148438 91.371094 89.296875 94.0625 91.945312 94.0625 C 94.59375 94.0625 96.742188 91.371094 96.742188 88.058594 C 96.742188 87.382812 96.648438 86.734375 96.484375 86.128906 C 96.605469 86.019531 97.363281 85.398438 98.203125 86.027344 C 98.042969 86.628906 97.949219 87.269531 97.949219 87.9375 C 97.949219 91.253906 100.097656 93.941406 102.746094 93.941406 C 105.394531 93.941406 107.542969 91.253906 107.542969 87.9375 C 107.542969 84.621094 105.394531 81.933594 102.746094 81.933594 Z M 91.945312 93.21875 C 89.765625 93.21875 87.992188 90.902344 87.992188 88.054688 C 87.992188 85.210938 89.765625 82.894531 91.945312 82.894531 C 94.125 82.894531 95.898438 85.210938 95.898438 88.054688 C 95.898438 90.902344 94.125 93.21875 91.945312 93.21875 Z M 102.746094 93.101562 C 100.566406 93.101562 98.792969 90.785156 98.792969 87.9375 C 98.792969 85.09375 100.566406 82.777344 102.746094 82.777344 C 104.925781 82.777344 106.699219 85.09375 106.699219 87.9375 C 106.699219 90.785156 104.925781 93.101562 102.746094 93.101562 Z M 102.746094 93.101562 " fill-opacity="1" fill-rule="nonzero"/></svg>