<svg xmlns="http://www.w3.org/2000/svg" xmlns:xlink="http://www.w3.org/1999/xlink" width="500" zoomAndPan="magnify" viewBox="0 0 375 374.999991" height="500" preserveAspectRatio="xMidYMid meet" version="1.0"><defs><clipPath id="fc7692013b"><path d="M 8.429688 37.5 L 366.929688 37.5 L 366.929688 327.75 L 8.429688 327.75 Z M 8.429688 37.5 " clip-rule="nonzero"/></clipPath><clipPath id="c091257792"><path d="M 34 65 L 366 65 L 366 327.75 L 34 327.75 Z M 34 65 " clip-rule="nonzero"/></clipPath><clipPath id="899757a7af"><path d="M 8.429688 37.5 L 366.929688 37.5 L 366.929688 292 L 8.429688 292 Z M 8.429688 37.5 " clip-rule="nonzero"/></clipPath></defs><g clip-path="url(#fc7692013b)"><path fill="#ffffff" d="M 336.351562 274.246094 C 336.628906 274.027344 336.765625 273.652344 336.664062 273.289062 L 333.75 262.785156 C 334.996094 261.027344 339.34375 254.429688 337.394531 250.390625 C 335.515625 246.5 327.320312 244.859375 324.742188 244.4375 C 324.308594 241.679688 322.679688 232.511719 319.726562 230.464844 C 319.109375 230.035156 318.429688 229.890625 317.761719 230.039062 C 314.394531 230.785156 315.179688 240.890625 316.246094 248.390625 C 315.167969 249.011719 313.050781 250.472656 312.347656 252.707031 C 312.328125 252.777344 312.3125 252.851562 312.292969 252.921875 C 307.839844 247.136719 302.707031 240.453125 297.261719 233.34375 C 282.429688 213.976562 276.136719 206.921875 255.671875 203.761719 L 259.28125 187.644531 C 267.695312 187.902344 275.945312 177.613281 281.222656 169.691406 C 286.800781 161.316406 289.175781 155.378906 289.890625 148.019531 C 290.601562 140.65625 286.089844 133.234375 282.113281 132.96875 C 278.132812 132.699219 277.898438 138.636719 277.898438 138.636719 C 277.898438 138.636719 275.078125 126.734375 270.058594 126.761719 C 265.042969 126.792969 266.023438 133.414062 266.023438 133.414062 C 266.023438 133.414062 260.144531 121.539062 255.691406 122.25 C 251.238281 122.964844 252.011719 128.425781 252.011719 128.425781 C 252.011719 128.425781 246.667969 119.699219 242.453125 120.796875 C 238.238281 121.894531 239.425781 127.238281 239.425781 127.238281 C 239.425781 127.238281 235.03125 118.628906 231.765625 121.65625 C 228.644531 124.550781 224.792969 139.191406 230.125 142.667969 C 229.734375 143.320312 226.820312 148.21875 223.699219 154.664062 C 222.707031 155.539062 217.492188 160.234375 215.257812 163.804688 C 214.445312 165.105469 214.28125 166.289062 214.765625 167.328125 C 215.34375 168.5625 216.695312 169.175781 217.660156 169.46875 C 215.714844 175.683594 214.796875 181.636719 216.371094 185.640625 C 218.160156 190.179688 221.484375 192.652344 224.976562 193.976562 L 222.808594 200.617188 C 222.800781 200.636719 222.804688 200.652344 222.800781 200.671875 C 216.671875 199.050781 209.652344 196.492188 202.847656 192.457031 C 202.929688 192.320312 202.988281 192.171875 202.988281 192 L 202.988281 154.660156 C 202.988281 154.15625 202.578125 153.75 202.078125 153.75 L 202.078125 146.164062 L 167.128906 146.164062 C 167.8125 147.570312 168.523438 148.996094 169.25 150.429688 C 163.65625 139.4375 159.296875 129.003906 157.285156 123.324219 C 156.296875 123.808594 155.140625 124.363281 153.882812 124.964844 L 147.101562 107.332031 L 150.140625 103.089844 C 150.824219 102.183594 153.097656 99.054688 154.339844 95.96875 L 251.199219 95.96875 C 251.703125 95.96875 252.109375 95.558594 252.109375 95.058594 L 252.109375 47.535156 C 252.109375 47.035156 251.703125 46.625 251.199219 46.625 L 251.199219 38.5 L 89.566406 38.5 C 89.5625 38 89.15625 37.59375 88.65625 37.59375 L 59.015625 37.59375 C 58.511719 37.59375 58.105469 38.003906 58.105469 38.503906 L 58.105469 65.871094 L 43.878906 65.871094 C 43.375 65.871094 42.96875 66.277344 42.96875 66.78125 C 42.96875 67.285156 43.375 67.691406 43.878906 67.691406 L 58.105469 67.691406 L 58.105469 95.058594 C 58.105469 95.558594 58.511719 95.96875 59.015625 95.96875 L 113.003906 95.96875 C 112.472656 97.796875 114.265625 101.269531 116.667969 104.835938 L 106.015625 104.835938 C 105.515625 104.835938 105.105469 105.246094 105.105469 105.746094 C 105.105469 106.25 105.515625 106.65625 106.015625 106.65625 L 117.691406 106.65625 C 117.769531 106.65625 117.835938 106.632812 117.90625 106.617188 C 120.199219 109.8125 122.746094 112.867188 124.285156 114.664062 L 85.59375 114.664062 C 85.089844 114.664062 84.683594 115.070312 84.683594 115.574219 C 84.683594 116.074219 85.089844 116.484375 85.59375 116.484375 L 124.816406 116.484375 C 124.894531 116.484375 124.964844 116.457031 125.039062 116.4375 L 130.367188 135.605469 C 130.390625 135.695312 130.429688 135.769531 130.476562 135.84375 C 129.417969 136.332031 128.429688 136.78125 127.5625 137.179688 C 128.160156 139.429688 129.332031 142.746094 130.859375 146.765625 C 130.785156 146.566406 130.707031 146.359375 130.632812 146.164062 L 50.15625 146.164062 C 50.15625 145.664062 49.75 145.253906 49.246094 145.253906 L 21.378906 145.253906 C 20.878906 145.253906 20.46875 145.664062 20.46875 146.164062 L 20.46875 199.347656 C 20.46875 199.851562 20.878906 200.257812 21.378906 200.257812 L 152.515625 200.257812 C 152.664062 200.257812 152.800781 200.214844 152.925781 200.152344 C 160.652344 215.289062 169.519531 228.605469 175.847656 237.417969 L 165.554688 237.417969 C 165.554688 236.914062 165.144531 236.507812 164.644531 236.507812 L 21.378906 236.507812 C 20.878906 236.507812 20.46875 236.914062 20.46875 237.417969 L 20.46875 290.601562 C 20.46875 291.105469 20.878906 291.511719 21.378906 291.511719 L 185.210938 291.511719 L 186.179688 326.515625 C 186.183594 326.652344 186.226562 326.78125 186.285156 326.894531 L 186.292969 327.800781 L 283.117188 327.800781 L 283.117188 316.675781 L 283.503906 292.03125 C 285.816406 295.339844 298.484375 312.054688 318.382812 311.414062 C 340.46875 310.695312 339.09375 287.234375 338.03125 278.332031 C 337.851562 276.8125 337.234375 275.457031 336.351562 274.246094 Z M 135.066406 157.492188 C 135.570312 158.761719 136.089844 160.0625 136.617188 161.382812 C 136 159.839844 135.398438 158.328125 134.8125 156.855469 C 134.894531 157.0625 134.980469 157.28125 135.066406 157.492188 Z M 133.574219 153.742188 C 133.972656 154.746094 134.378906 155.773438 134.796875 156.824219 C 134.382812 155.777344 133.972656 154.746094 133.574219 153.742188 Z M 135.226562 157.898438 C 135.492188 158.5625 135.753906 159.21875 136.023438 159.894531 C 135.753906 159.21875 135.488281 158.558594 135.226562 157.898438 Z M 137.207031 162.859375 C 137.335938 163.183594 137.464844 163.503906 137.59375 163.828125 C 137.464844 163.503906 137.335938 163.179688 137.207031 162.859375 Z M 138.496094 166.089844 C 138.664062 166.507812 138.828125 166.925781 138.996094 167.34375 C 138.828125 166.925781 138.660156 166.507812 138.496094 166.089844 Z M 139.804688 169.382812 C 139.976562 169.824219 140.152344 170.261719 140.324219 170.703125 C 140.152344 170.261719 139.976562 169.824219 139.804688 169.382812 Z M 141.125 172.730469 C 141.296875 173.167969 141.46875 173.601562 141.636719 174.042969 C 141.46875 173.601562 141.296875 173.167969 141.125 172.730469 Z M 142.476562 176.191406 C 142.628906 176.582031 142.78125 176.972656 142.933594 177.363281 C 142.78125 176.972656 142.628906 176.582031 142.476562 176.191406 Z M 24.300781 38.503906 C 24.300781 38.003906 24.710938 37.59375 25.210938 37.59375 L 49.871094 37.59375 C 50.371094 37.59375 50.78125 38.003906 50.78125 38.503906 C 50.78125 39.007812 50.371094 39.414062 49.871094 39.414062 L 25.210938 39.414062 C 24.710938 39.414062 24.300781 39.007812 24.300781 38.503906 Z M 290.144531 174.902344 L 356.199219 174.902344 C 356.703125 174.902344 357.109375 175.308594 357.109375 175.8125 L 365.667969 175.8125 L 365.667969 191.09375 L 308.011719 191.09375 C 308.011719 191.597656 307.605469 192.003906 307.101562 192.003906 L 290.144531 192.003906 C 289.644531 192.003906 289.234375 191.597656 289.234375 191.09375 L 289.234375 175.8125 C 289.234375 175.308594 289.640625 174.902344 290.144531 174.902344 Z M 22.878906 95.058594 C 22.878906 94.554688 23.285156 94.148438 23.789062 94.148438 L 49.246094 94.148438 C 49.75 94.148438 50.15625 94.554688 50.15625 95.058594 C 50.15625 95.558594 49.75 95.96875 49.246094 95.96875 L 23.789062 95.96875 C 23.285156 95.96875 22.878906 95.558594 22.878906 95.058594 Z M 67.007812 116.484375 C 66.507812 116.484375 66.097656 116.074219 66.097656 115.574219 C 66.097656 115.070312 66.507812 114.664062 67.007812 114.664062 L 76.765625 114.664062 C 77.269531 114.664062 77.675781 115.070312 77.675781 115.574219 C 77.675781 116.074219 77.269531 116.484375 76.765625 116.484375 Z M 15.910156 38.503906 C 15.910156 39.007812 15.503906 39.414062 15 39.414062 L 9.339844 39.414062 C 8.839844 39.414062 8.429688 39.007812 8.429688 38.503906 C 8.429688 38.003906 8.839844 37.59375 9.339844 37.59375 L 15 37.59375 C 15.503906 37.59375 15.910156 38.003906 15.910156 38.503906 Z M 366.574219 210.546875 L 366.574219 218.191406 C 366.574219 218.695312 366.167969 219.101562 365.664062 219.101562 L 332.601562 219.101562 C 332.097656 219.101562 331.691406 218.695312 331.691406 218.191406 L 308.015625 218.191406 L 308.015625 202.90625 L 365.667969 202.90625 L 365.667969 209.636719 C 366.167969 209.636719 366.574219 210.046875 366.574219 210.546875 Z M 366.574219 210.546875 " fill-opacity="1" fill-rule="nonzero"/></g><path fill="#ffffff" d="M 22.289062 253.582031 L 185.878906 253.582031 L 185.878906 291.511719 L 22.289062 291.511719 Z M 228.378906 163.042969 C 228.886719 163.339844 229.410156 163.589844 229.953125 163.773438 C 232.539062 164.636719 235.121094 164.023438 236.453125 163.570312 C 235.667969 162.402344 233.984375 160.351562 231.398438 159.480469 C 231.085938 159.375 230.765625 159.296875 230.445312 159.230469 C 230.617188 159.816406 230.617188 160.457031 230.40625 161.078125 C 230.078125 162.0625 229.300781 162.757812 228.378906 163.042969 Z M 88.65625 52.179688 C 90.164062 52.179688 91.394531 50.953125 91.394531 49.445312 C 91.394531 47.933594 90.164062 46.707031 88.65625 46.707031 C 87.148438 46.707031 85.917969 47.933594 85.917969 49.445312 C 85.917969 50.953125 87.148438 52.179688 88.65625 52.179688 Z M 71.519531 52.179688 C 73.027344 52.179688 74.257812 50.953125 74.257812 49.445312 C 74.257812 47.933594 73.027344 46.707031 71.519531 46.707031 C 70.011719 46.707031 68.78125 47.933594 68.78125 49.445312 C 68.78125 50.953125 70.011719 52.179688 71.519531 52.179688 Z M 186.753906 281.4375 L 281.75 287.925781 L 282.183594 260.191406 L 185.878906 249.882812 Z M 332.027344 262.0625 C 333.539062 260.027344 337.160156 254.097656 335.753906 251.179688 C 334.324219 248.214844 326.648438 246.535156 323.8125 246.132812 C 323.410156 246.078125 323.09375 245.761719 323.039062 245.359375 C 322.410156 240.910156 320.675781 233.335938 318.6875 231.960938 C 318.433594 231.785156 318.269531 231.789062 318.15625 231.816406 C 316.808594 232.113281 316.871094 239.71875 318.148438 248.742188 C 318.15625 248.792969 318.167969 248.839844 318.167969 248.886719 C 318.371094 250.289062 318.597656 251.722656 318.855469 253.167969 C 318.945312 253.664062 318.613281 254.136719 318.121094 254.222656 C 317.625 254.316406 317.152344 253.984375 317.0625 253.488281 C 316.902344 252.585938 316.722656 251.523438 316.539062 250.355469 C 315.652344 250.957031 314.488281 251.953125 314.085938 253.257812 C 313.875 253.925781 313.90625 254.605469 314.140625 255.3125 C 317.5 259.675781 320.394531 263.425781 322.644531 266.335938 C 325.242188 267.070312 330.785156 268.921875 334.476562 272.203125 L 331.878906 262.847656 C 331.804688 262.578125 331.859375 262.289062 332.027344 262.0625 Z M 246.570312 167.167969 C 248.304688 165.820312 252.160156 163.304688 254.332031 163.949219 C 255.015625 164.152344 255.488281 164.699219 255.773438 165.625 C 257.453125 171.089844 250.210938 176.261719 250.136719 176.316406 C 249.960938 176.441406 249.832031 176.625 249.777344 176.839844 C 249.738281 176.992188 248.871094 180.597656 250.929688 183.832031 C 252.234375 185.875 254.386719 187.28125 257.335938 188.015625 L 253.867188 203.503906 C 252.117188 203.261719 250.28125 203.039062 248.316406 202.84375 C 247.808594 202.800781 247.371094 203.160156 247.320312 203.660156 C 247.320312 203.671875 247.324219 203.683594 247.324219 203.695312 C 245.21875 203.554688 243.027344 203.472656 240.734375 203.472656 C 240.734375 203.472656 233.886719 203.382812 224.5625 201.117188 L 226.707031 194.550781 C 229.125 195.214844 231.515625 195.402344 233.433594 195.402344 C 235.8125 195.402344 237.460938 195.117188 237.511719 195.105469 C 238.007812 195.015625 238.332031 194.542969 238.242188 194.046875 C 238.152344 193.554688 237.679688 193.226562 237.183594 193.316406 C 236.578125 193.425781 222.367188 195.882812 218.066406 184.972656 C 215.867188 179.390625 219.199219 169.175781 223.121094 160.285156 C 223.261719 160.515625 223.441406 160.789062 223.664062 161.097656 C 224.183594 161.820312 225.066406 162.886719 226.320312 163.855469 C 227.261719 164.578125 228.289062 165.128906 229.371094 165.5 C 230.539062 165.886719 231.6875 166.03125 232.753906 166.03125 C 235.738281 166.03125 238.058594 164.898438 238.191406 164.832031 C 238.636719 164.605469 238.820312 164.066406 238.601562 163.613281 C 238.515625 163.4375 236.410156 159.246094 231.980469 157.753906 C 231.347656 157.542969 230.695312 157.394531 230.054688 157.316406 C 227.753906 157.011719 225.675781 157.496094 224.339844 157.953125 C 224.269531 157.976562 224.210938 157.996094 224.148438 158.019531 C 227.820312 150.078125 231.632812 143.699219 231.714844 143.5625 C 231.761719 143.484375 231.78125 143.398438 231.800781 143.316406 C 233.875 143.890625 239.0625 145.5625 240.195312 148.257812 C 241.621094 151.640625 240.195312 156.09375 240.195312 156.09375 L 243.402344 159.242188 L 238.476562 168.800781 L 243.046875 170.996094 C 243.046875 170.996094 244.589844 169.113281 246.570312 167.167969 Z M 239.007812 158.492188 C 239.148438 158.492188 239.289062 158.460938 239.425781 158.390625 C 239.871094 158.164062 240.046875 157.613281 239.816406 157.164062 C 238.035156 153.703125 235.335938 149.726562 229.960938 149.867188 C 229.460938 149.878906 229.0625 150.296875 229.074219 150.796875 C 229.082031 151.300781 229.488281 151.707031 230.003906 151.6875 C 233.433594 151.609375 235.882812 153.496094 238.199219 158 C 238.359375 158.3125 238.679688 158.492188 239.007812 158.492188 Z M 229.488281 179.753906 C 229.46875 179.253906 229.074219 178.859375 228.542969 178.882812 C 223.058594 179.082031 221.179688 176.652344 221.089844 176.53125 C 220.800781 176.125 220.238281 176.027344 219.828125 176.316406 C 219.417969 176.605469 219.316406 177.171875 219.605469 177.582031 C 219.699219 177.714844 221.875 180.714844 227.886719 180.714844 C 228.121094 180.714844 228.363281 180.710938 228.613281 180.699219 C 229.113281 180.679688 229.507812 180.257812 229.488281 179.753906 Z M 248.101562 168.648438 C 248.441406 169.003906 249.019531 169.011719 249.382812 168.675781 C 249.949219 168.160156 252.253906 167.097656 252.726562 167.492188 C 252.945312 168.414062 251.082031 170.269531 249.652344 171.257812 C 249.242188 171.542969 249.136719 172.109375 249.421875 172.523438 C 249.597656 172.78125 249.882812 172.917969 250.171875 172.917969 C 250.351562 172.917969 250.53125 172.863281 250.6875 172.757812 C 251.429688 172.246094 255.089844 169.574219 254.5 167.078125 C 254.332031 166.351562 253.855469 165.84375 253.160156 165.648438 C 251.316406 165.125 248.457031 167.03125 248.105469 167.382812 C 247.753906 167.734375 247.757812 168.289062 248.101562 168.648438 Z M 216.804688 164.769531 C 216.339844 165.511719 216.210938 166.113281 216.414062 166.554688 C 216.691406 167.152344 217.546875 167.527344 218.226562 167.730469 C 219.21875 164.824219 220.398438 161.898438 221.632812 159.117188 C 219.890625 160.855469 217.914062 162.996094 216.804688 164.769531 Z M 30.617188 247.703125 C 30.617188 249.09375 31.746094 250.222656 33.132812 250.222656 C 34.523438 250.222656 35.652344 249.09375 35.652344 247.703125 C 35.652344 246.316406 34.523438 245.183594 33.132812 245.183594 C 31.746094 245.183594 30.617188 246.316406 30.617188 247.703125 Z M 33.132812 158.972656 C 34.523438 158.972656 35.652344 157.84375 35.652344 156.453125 C 35.652344 155.066406 34.523438 153.933594 33.132812 153.933594 C 31.746094 153.933594 30.617188 155.066406 30.617188 156.453125 C 30.617188 157.84375 31.746094 158.972656 33.132812 158.972656 Z M 49.246094 158.972656 C 50.632812 158.972656 51.765625 157.84375 51.765625 156.453125 C 51.765625 155.066406 50.636719 153.933594 49.246094 153.933594 C 47.855469 153.933594 46.726562 155.066406 46.726562 156.453125 C 46.726562 157.84375 47.859375 158.972656 49.246094 158.972656 Z M 137.550781 71.425781 L 131.179688 71.425781 C 132.816406 74.398438 134.40625 78.636719 135.621094 82.285156 C 135.941406 77.902344 136.523438 73.730469 137.550781 71.425781 Z M 46.726562 247.703125 C 46.726562 249.09375 47.855469 250.222656 49.246094 250.222656 C 50.632812 250.222656 51.765625 249.09375 51.765625 247.703125 C 51.765625 246.316406 50.636719 245.183594 49.246094 245.183594 C 47.859375 245.183594 46.726562 246.316406 46.726562 247.703125 Z M 148.675781 102.011719 C 150.25 99.929688 152.019531 97.035156 152.863281 94.734375 C 152.871094 94.71875 152.878906 94.703125 152.882812 94.683594 C 153.382812 93.308594 153.546875 92.152344 153.132812 91.519531 C 153.011719 91.335938 152.886719 91.261719 152.675781 91.246094 C 151.261719 91.148438 148.339844 93.585938 146.320312 95.683594 C 146.308594 95.691406 146.304688 95.699219 146.292969 95.710938 C 146.066406 95.945312 145.847656 96.179688 145.644531 96.40625 C 145.40625 96.671875 145.03125 96.773438 144.691406 96.667969 C 144.351562 96.558594 144.101562 96.261719 144.0625 95.902344 C 144.03125 95.628906 144 95.351562 143.964844 95.078125 C 143.964844 95.070312 143.960938 95.0625 143.960938 95.058594 C 143.960938 95.054688 143.960938 95.054688 143.960938 95.050781 C 142.738281 84.78125 140.742188 73.476562 139.414062 71.542969 C 138.351562 72.980469 137.414062 80.640625 137.175781 87.398438 C 137.160156 87.84375 136.824219 88.210938 136.378906 88.269531 C 135.933594 88.320312 135.519531 88.050781 135.394531 87.625 C 132.605469 78.230469 129.089844 70.089844 127.597656 69.515625 C 126.527344 70.929688 127.167969 81.074219 128.472656 89.917969 C 128.53125 90.328125 128.308594 90.726562 127.925781 90.886719 C 127.542969 91.050781 127.101562 90.933594 126.847656 90.605469 C 126.808594 90.554688 122.953125 85.59375 119.996094 87.289062 C 119.453125 87.601562 119.140625 88.015625 119.003906 88.601562 C 118.570312 90.460938 120.140625 93.339844 120.78125 94.292969 C 121.011719 94.632812 120.984375 95.085938 120.714844 95.398438 C 120.445312 95.707031 120.003906 95.800781 119.632812 95.621094 C 119.042969 95.34375 117.234375 94.71875 115.980469 95.199219 C 115.703125 95.304688 115.460938 95.460938 115.257812 95.671875 C 115.246094 95.683594 115.238281 95.695312 115.226562 95.707031 C 115.039062 95.910156 114.878906 96.160156 114.75 96.464844 C 113.96875 98.324219 120.074219 107.046875 126.179688 114.066406 C 126.265625 114.167969 126.332031 114.289062 126.367188 114.417969 L 132.117188 135.09375 C 138.148438 132.324219 146.148438 128.625 152.234375 125.746094 L 145.230469 107.527344 C 145.121094 107.242188 145.160156 106.917969 145.339844 106.667969 Z M 152.066406 198.4375 L 22.289062 198.4375 L 22.289062 164.453125 L 137.84375 164.453125 C 136.796875 161.835938 135.78125 159.292969 134.808594 156.855469 C 137.734375 164.203125 141.105469 172.542969 144.195312 180.660156 C 146.507812 186.730469 149.199219 192.703125 152.066406 198.4375 Z M 34.109375 177.640625 L 115.695312 177.640625 L 115.695312 171.941406 L 34.109375 171.941406 Z M 134.21875 183.542969 L 34.109375 183.542969 L 34.109375 189.242188 L 134.21875 189.242188 Z M 114.25 94.148438 L 59.925781 94.148438 L 59.925781 57.953125 L 250.289062 57.953125 L 250.289062 94.148438 L 154.929688 94.148438 C 155.265625 92.753906 155.273438 91.46875 154.652344 90.523438 C 154.222656 89.867188 153.585938 89.488281 152.8125 89.429688 C 150.578125 89.265625 147.472656 91.957031 145.640625 93.769531 C 143.960938 79.859375 142.429688 73.941406 141.273438 71.425781 L 178.390625 71.425781 L 178.390625 65.726562 L 72.996094 65.726562 L 72.996094 71.425781 L 125.363281 71.425781 C 124.929688 75.714844 125.691406 82.886719 126.28125 87.394531 C 124.476562 85.828125 121.71875 84.199219 119.085938 85.710938 C 118.105469 86.277344 117.476562 87.113281 117.226562 88.195312 C 116.835938 89.878906 117.488281 91.851562 118.15625 93.296875 C 117.28125 93.152344 116.269531 93.140625 115.339844 93.496094 C 114.929688 93.648438 114.574219 93.878906 114.25 94.148438 Z M 210.476562 87.246094 C 210.476562 87.75 210.886719 88.15625 211.390625 88.15625 L 240.566406 88.15625 C 241.070312 88.15625 241.476562 87.75 241.476562 87.246094 L 241.476562 71.296875 C 241.476562 70.792969 241.070312 70.386719 240.566406 70.386719 C 240.0625 70.386719 239.65625 70.792969 239.65625 71.296875 L 239.65625 86.335938 L 211.390625 86.335938 C 210.886719 86.335938 210.476562 86.746094 210.476562 87.246094 Z M 193.789062 86.335938 L 173.644531 86.335938 C 173.140625 86.335938 172.734375 86.746094 172.734375 87.246094 C 172.734375 87.75 173.140625 88.15625 173.644531 88.15625 L 193.789062 88.15625 C 194.292969 88.15625 194.699219 87.75 194.699219 87.246094 C 194.699219 86.746094 194.292969 86.335938 193.789062 86.335938 Z M 192.636719 184.945312 C 195.359375 187.425781 198.234375 189.558594 201.167969 191.421875 L 201.167969 164.453125 L 176.992188 164.453125 C 181.921875 172.628906 187.296875 180.089844 192.636719 184.945312 Z M 192.636719 184.945312 " fill-opacity="1" fill-rule="nonzero"/><path fill="#b48992" d="M 89.566406 38.503906 C 89.566406 39.007812 89.15625 39.414062 88.65625 39.414062 L 59.925781 39.414062 L 59.925781 57.953125 L 250.289062 57.953125 L 250.289062 47.535156 C 250.289062 47.035156 250.699219 46.625 251.199219 46.625 L 251.199219 38.5 L 89.566406 38.5 C 89.566406 38.503906 89.566406 38.503906 89.566406 38.503906 Z M 71.519531 54 C 69.007812 54 66.960938 51.957031 66.960938 49.445312 C 66.960938 46.929688 69.007812 44.886719 71.519531 44.886719 C 74.03125 44.886719 76.078125 46.929688 76.078125 49.445312 C 76.078125 51.957031 74.03125 54 71.519531 54 Z M 93.214844 49.445312 C 93.214844 51.957031 91.167969 54 88.65625 54 C 86.144531 54 84.097656 51.957031 84.097656 49.445312 C 84.097656 46.929688 86.144531 44.886719 88.65625 44.886719 C 91.167969 44.886719 93.214844 46.929688 93.214844 49.445312 Z M 133.574219 153.742188 C 133.546875 153.667969 133.515625 153.589844 133.484375 153.511719 C 133.179688 152.742188 132.882812 151.984375 132.589844 151.242188 C 132.53125 151.09375 132.472656 150.941406 132.414062 150.792969 C 132.269531 150.421875 132.128906 150.058594 131.988281 149.695312 C 131.902344 149.472656 131.820312 149.257812 131.734375 149.039062 C 131.519531 148.484375 131.308594 147.9375 131.105469 147.402344 C 131.023438 147.191406 130.941406 146.976562 130.863281 146.765625 C 130.785156 146.570312 130.707031 146.359375 130.632812 146.164062 L 50.15625 146.164062 C 50.15625 146.667969 49.75 147.074219 49.246094 147.074219 L 22.289062 147.074219 L 22.289062 164.453125 L 137.84375 164.453125 C 136.34375 160.703125 134.898438 157.09375 133.574219 153.742188 Z M 33.132812 160.792969 C 30.742188 160.792969 28.792969 158.847656 28.792969 156.453125 C 28.792969 154.0625 30.742188 152.113281 33.132812 152.113281 C 35.527344 152.113281 37.472656 154.0625 37.472656 156.453125 C 37.472656 158.847656 35.527344 160.792969 33.132812 160.792969 Z M 49.246094 160.792969 C 46.851562 160.792969 44.90625 158.847656 44.90625 156.453125 C 44.90625 154.0625 46.851562 152.113281 49.246094 152.113281 C 51.636719 152.113281 53.585938 154.0625 53.585938 156.453125 C 53.585938 158.847656 51.640625 160.792969 49.246094 160.792969 Z M 167.128906 146.164062 L 202.078125 146.164062 L 202.078125 153.75 C 201.574219 153.75 201.167969 154.15625 201.167969 154.660156 L 201.167969 164.453125 L 176.988281 164.453125 C 176.9375 164.371094 176.890625 164.285156 176.839844 164.199219 C 176.019531 162.832031 175.210938 161.449219 174.417969 160.054688 C 174.34375 159.925781 174.273438 159.792969 174.199219 159.660156 C 173.421875 158.289062 172.660156 156.90625 171.914062 155.523438 C 171.8125 155.332031 171.714844 155.144531 171.613281 154.957031 C 170.890625 153.605469 170.179688 152.25 169.492188 150.902344 C 169.410156 150.746094 169.332031 150.589844 169.253906 150.429688 C 168.523438 148.996094 167.8125 147.570312 167.128906 146.164062 Z M 175.851562 237.417969 L 165.554688 237.417969 C 165.554688 237.921875 165.144531 238.332031 164.644531 238.332031 L 22.289062 238.332031 L 22.289062 255.710938 L 184.816406 255.710938 L 184.253906 248.535156 C 184.253906 248.535156 180.847656 244.382812 175.851562 237.417969 Z M 33.132812 252.042969 C 30.742188 252.042969 28.792969 250.097656 28.792969 247.703125 C 28.792969 245.3125 30.742188 243.363281 33.132812 243.363281 C 35.527344 243.363281 37.472656 245.3125 37.472656 247.703125 C 37.472656 250.097656 35.527344 252.042969 33.132812 252.042969 Z M 49.246094 252.042969 C 46.851562 252.042969 44.90625 250.097656 44.90625 247.703125 C 44.90625 245.3125 46.851562 243.363281 49.246094 243.363281 C 51.636719 243.363281 53.585938 245.3125 53.585938 247.703125 C 53.585938 250.097656 51.640625 252.042969 49.246094 252.042969 Z M 365.664062 175.8125 L 365.664062 191.09375 L 308.011719 191.09375 C 308.011719 190.59375 307.601562 190.183594 307.101562 190.183594 L 291.054688 190.183594 L 291.054688 176.722656 L 356.199219 176.722656 C 356.703125 176.722656 357.109375 176.316406 357.109375 175.8125 Z M 365.664062 175.8125 " fill-opacity="1" fill-rule="nonzero"/><g clip-path="url(#c091257792)"><path fill="#6f1f2f" d="M 336.351562 274.246094 C 336.257812 274.320312 336.152344 274.375 336.03125 274.410156 C 335.949219 274.429688 335.867188 274.441406 335.789062 274.441406 C 335.390625 274.441406 335.023438 274.175781 334.910156 273.773438 L 334.476562 272.207031 C 330.785156 268.925781 325.242188 267.070312 322.644531 266.339844 C 325.835938 270.46875 327.726562 272.910156 327.777344 272.972656 C 328.085938 273.371094 328.011719 273.941406 327.613281 274.25 C 327.449219 274.378906 327.253906 274.441406 327.058594 274.441406 C 326.785156 274.441406 326.515625 274.320312 326.335938 274.089844 C 326.253906 273.984375 321.242188 267.519531 313.652344 257.667969 C 313.398438 257.625 313.160156 257.480469 313.019531 257.242188 C 312.808594 256.882812 312.636719 256.527344 312.5 256.171875 C 307.6875 249.921875 301.945312 242.457031 295.816406 234.449219 C 279.371094 212.976562 274.003906 207.25 248.132812 204.65625 C 247.644531 204.605469 247.292969 204.175781 247.324219 203.691406 C 245.214844 203.550781 243.027344 203.472656 240.730469 203.472656 C 240.730469 203.472656 233.886719 203.378906 224.558594 201.117188 L 224.539062 201.179688 C 224.414062 201.5625 224.054688 201.808594 223.671875 201.808594 C 223.578125 201.808594 223.484375 201.792969 223.390625 201.761719 C 222.929688 201.613281 222.679688 201.128906 222.800781 200.667969 C 216.671875 199.046875 209.648438 196.488281 202.847656 192.453125 C 202.6875 192.722656 202.410156 192.910156 202.074219 192.910156 C 201.574219 192.910156 201.164062 192.503906 201.164062 192 L 201.164062 191.417969 C 198.230469 189.558594 195.355469 187.421875 192.636719 184.945312 C 187.296875 180.085938 181.917969 172.628906 176.988281 164.453125 L 176.984375 164.453125 C 176.9375 164.367188 176.886719 164.28125 176.835938 164.199219 C 176.015625 162.832031 175.210938 161.449219 174.417969 160.054688 C 174.34375 159.921875 174.269531 159.792969 174.195312 159.660156 C 173.417969 158.285156 172.65625 156.90625 171.910156 155.519531 C 171.8125 155.332031 171.710938 155.144531 171.609375 154.957031 C 170.886719 153.601562 170.179688 152.25 169.488281 150.902344 C 169.410156 150.742188 169.328125 150.585938 169.25 150.429688 C 163.65625 139.4375 159.296875 129 157.285156 123.324219 C 156.296875 123.804688 155.140625 124.363281 153.882812 124.960938 L 153.945312 125.128906 C 154.125 125.601562 153.890625 126.125 153.421875 126.304688 C 152.953125 126.488281 152.425781 126.253906 152.246094 125.78125 L 152.230469 125.746094 C 146.144531 128.625 138.144531 132.320312 132.113281 135.09375 L 132.117188 135.117188 C 132.253906 135.601562 131.96875 136.101562 131.484375 136.238281 C 131.402344 136.261719 131.320312 136.269531 131.242188 136.269531 C 130.929688 136.269531 130.640625 136.105469 130.476562 135.84375 C 129.414062 136.332031 128.429688 136.78125 127.5625 137.179688 C 128.160156 139.425781 129.332031 142.742188 130.859375 146.765625 C 130.9375 146.972656 131.019531 147.1875 131.101562 147.402344 C 131.304688 147.9375 131.515625 148.480469 131.730469 149.039062 C 131.816406 149.257812 131.898438 149.472656 131.984375 149.695312 C 132.125 150.054688 132.269531 150.421875 132.414062 150.792969 C 132.472656 150.941406 132.53125 151.09375 132.589844 151.242188 C 132.878906 151.984375 133.175781 152.738281 133.480469 153.511719 C 133.511719 153.585938 133.542969 153.664062 133.574219 153.742188 C 136.753906 161.789062 140.660156 171.371094 144.195312 180.65625 C 146.503906 186.730469 149.195312 192.699219 152.0625 198.4375 L 152.515625 198.4375 C 153.015625 198.4375 153.425781 198.84375 153.425781 199.347656 C 153.425781 199.699219 153.214844 200 152.921875 200.148438 C 160.648438 215.289062 169.515625 228.601562 175.84375 237.417969 L 175.847656 237.417969 C 180.84375 244.382812 184.25 248.53125 184.25 248.53125 L 184.8125 255.707031 L 184.21875 255.707031 L 186.179688 326.511719 C 186.183594 326.652344 186.222656 326.777344 186.28125 326.894531 L 186.289062 327.796875 L 283.117188 327.796875 L 283.117188 316.675781 L 283.503906 292.027344 C 285.816406 295.339844 298.480469 312.050781 318.382812 311.410156 C 340.46875 310.691406 339.09375 287.230469 338.027344 278.328125 C 337.851562 276.8125 337.234375 275.457031 336.351562 274.246094 Z M 281.75 287.925781 L 186.753906 281.4375 L 185.878906 249.882812 L 282.183594 260.191406 Z M 34.109375 264.746094 L 123.699219 264.746094 L 123.699219 270.445312 L 34.109375 270.445312 Z M 115.695312 177.640625 L 34.109375 177.640625 L 34.109375 171.941406 L 115.695312 171.941406 Z M 125.363281 71.425781 L 72.996094 71.425781 L 72.996094 65.726562 L 178.390625 65.726562 L 178.390625 71.425781 L 141.273438 71.425781 C 140.414062 69.542969 139.757812 69.558594 139.414062 69.570312 C 138.667969 69.59375 138.054688 70.289062 137.550781 71.425781 L 131.179688 71.425781 C 129.988281 69.265625 128.769531 67.769531 127.644531 67.671875 C 127.160156 67.636719 126.691406 67.816406 126.335938 68.195312 C 125.820312 68.742188 125.519531 69.902344 125.363281 71.425781 Z M 34.109375 183.542969 L 134.21875 183.542969 L 134.21875 189.242188 L 34.109375 189.242188 Z M 365.664062 202.90625 L 365.664062 209.636719 C 365.164062 209.636719 364.753906 210.046875 364.753906 210.546875 L 364.753906 217.28125 L 332.601562 217.28125 C 332.097656 217.28125 331.691406 217.6875 331.691406 218.191406 L 308.015625 218.191406 L 308.015625 202.90625 Z M 365.664062 202.90625 " fill-opacity="1" fill-rule="nonzero"/></g><g clip-path="url(#899757a7af)"><path fill="#000000" d="M 337.394531 250.390625 C 335.515625 246.5 327.320312 244.859375 324.742188 244.4375 C 324.308594 241.679688 322.679688 232.511719 319.726562 230.464844 C 319.109375 230.035156 318.429688 229.890625 317.761719 230.039062 C 314.394531 230.785156 315.179688 240.890625 316.246094 248.390625 C 315.167969 249.011719 313.050781 250.472656 312.347656 252.707031 C 312.328125 252.777344 312.3125 252.847656 312.292969 252.921875 C 307.839844 247.136719 302.707031 240.453125 297.261719 233.34375 C 282.429688 213.976562 276.136719 206.921875 255.671875 203.761719 L 259.28125 187.644531 C 267.695312 187.902344 275.945312 177.613281 281.222656 169.691406 C 286.800781 161.316406 289.175781 155.378906 289.890625 148.019531 C 290.601562 140.65625 286.089844 133.234375 282.113281 132.96875 C 278.132812 132.699219 277.898438 138.636719 277.898438 138.636719 C 277.898438 138.636719 275.078125 126.734375 270.058594 126.761719 C 265.042969 126.792969 266.023438 133.414062 266.023438 133.414062 C 266.023438 133.414062 260.144531 121.539062 255.691406 122.25 C 251.238281 122.964844 252.011719 128.425781 252.011719 128.425781 C 252.011719 128.425781 246.667969 119.699219 242.453125 120.796875 C 238.238281 121.894531 239.425781 127.238281 239.425781 127.238281 C 239.425781 127.238281 235.03125 118.628906 231.765625 121.65625 C 228.644531 124.550781 224.792969 139.191406 230.125 142.667969 C 229.734375 143.320312 226.820312 148.21875 223.699219 154.664062 C 222.707031 155.539062 217.492188 160.234375 215.257812 163.804688 C 214.445312 165.105469 214.28125 166.289062 214.765625 167.328125 C 215.34375 168.5625 216.695312 169.175781 217.660156 169.46875 C 215.714844 175.683594 214.796875 181.636719 216.371094 185.640625 C 218.160156 190.179688 221.484375 192.652344 224.976562 193.976562 L 222.808594 200.617188 C 222.800781 200.636719 222.804688 200.652344 222.800781 200.671875 C 222.679688 201.132812 222.929688 201.613281 223.390625 201.765625 C 223.484375 201.796875 223.578125 201.808594 223.671875 201.808594 C 224.054688 201.808594 224.414062 201.566406 224.539062 201.183594 L 224.558594 201.117188 L 226.703125 194.550781 C 229.125 195.214844 231.515625 195.402344 233.429688 195.402344 C 235.8125 195.402344 237.460938 195.117188 237.511719 195.105469 C 238.003906 195.015625 238.332031 194.542969 238.242188 194.046875 C 238.152344 193.554688 237.675781 193.226562 237.183594 193.316406 C 236.578125 193.425781 222.363281 195.882812 218.066406 184.972656 C 215.867188 179.390625 219.199219 169.175781 223.117188 160.285156 C 223.257812 160.515625 223.441406 160.789062 223.660156 161.097656 C 224.183594 161.820312 225.066406 162.886719 226.320312 163.855469 C 227.261719 164.578125 228.285156 165.128906 229.371094 165.5 C 230.539062 165.886719 231.6875 166.03125 232.753906 166.03125 C 235.738281 166.03125 238.058594 164.898438 238.191406 164.832031 C 238.636719 164.605469 238.820312 164.066406 238.601562 163.613281 C 238.511719 163.4375 236.410156 159.246094 231.976562 157.753906 C 231.347656 157.542969 230.695312 157.394531 230.054688 157.316406 C 227.753906 157.011719 225.675781 157.496094 224.335938 157.953125 C 224.265625 157.976562 224.210938 157.996094 224.144531 158.019531 C 227.820312 150.078125 231.628906 143.699219 231.714844 143.5625 C 231.761719 143.484375 231.78125 143.398438 231.800781 143.316406 C 233.871094 143.890625 239.0625 145.5625 240.195312 148.257812 C 241.621094 151.640625 240.195312 156.09375 240.195312 156.09375 L 243.402344 159.242188 L 238.472656 168.800781 L 243.046875 170.996094 C 243.046875 170.996094 244.589844 169.113281 246.570312 167.171875 C 248.304688 165.820312 252.160156 163.304688 254.332031 163.949219 C 255.015625 164.152344 255.488281 164.703125 255.773438 165.625 C 257.453125 171.089844 250.210938 176.265625 250.136719 176.316406 C 249.957031 176.441406 249.832031 176.628906 249.777344 176.839844 C 249.738281 176.992188 248.871094 180.597656 250.929688 183.832031 C 252.234375 185.875 254.386719 187.28125 257.335938 188.015625 L 253.863281 203.503906 C 252.113281 203.261719 250.277344 203.042969 248.316406 202.84375 C 247.808594 202.800781 247.371094 203.160156 247.320312 203.660156 C 247.320312 203.671875 247.324219 203.683594 247.324219 203.695312 C 247.292969 204.179688 247.648438 204.609375 248.132812 204.65625 C 274.003906 207.253906 279.371094 212.976562 295.816406 234.453125 C 301.945312 242.460938 307.6875 249.925781 312.5 256.175781 C 312.636719 256.53125 312.808594 256.886719 313.019531 257.242188 C 313.160156 257.484375 313.398438 257.628906 313.652344 257.671875 C 321.246094 267.519531 326.253906 273.984375 326.339844 274.089844 C 326.519531 274.324219 326.785156 274.445312 327.058594 274.445312 C 327.253906 274.445312 327.449219 274.382812 327.617188 274.253906 C 328.011719 273.945312 328.085938 273.371094 327.777344 272.976562 C 327.726562 272.914062 325.835938 270.472656 322.644531 266.34375 C 320.394531 263.429688 317.5 259.679688 314.140625 255.320312 C 313.90625 254.609375 313.878906 253.929688 314.085938 253.261719 C 314.492188 251.957031 315.652344 250.960938 316.539062 250.363281 C 316.722656 251.527344 316.902344 252.59375 317.066406 253.492188 C 317.152344 253.988281 317.625 254.320312 318.121094 254.230469 C 318.613281 254.140625 318.945312 253.667969 318.855469 253.171875 C 318.597656 251.726562 318.371094 250.292969 318.171875 248.894531 C 318.171875 248.84375 318.15625 248.796875 318.148438 248.75 C 316.871094 239.722656 316.808594 232.121094 318.15625 231.820312 C 318.273438 231.792969 318.433594 231.789062 318.6875 231.964844 C 320.675781 233.34375 322.410156 240.914062 323.039062 245.367188 C 323.09375 245.765625 323.410156 246.082031 323.8125 246.140625 C 326.648438 246.539062 334.324219 248.222656 335.753906 251.1875 C 337.160156 254.101562 333.542969 260.03125 332.027344 262.070312 C 331.859375 262.292969 331.804688 262.585938 331.878906 262.855469 L 334.476562 272.210938 L 334.914062 273.78125 C 335.023438 274.183594 335.390625 274.445312 335.789062 274.445312 C 335.867188 274.445312 335.949219 274.433594 336.03125 274.414062 C 336.152344 274.378906 336.257812 274.324219 336.351562 274.25 C 336.632812 274.03125 336.765625 273.65625 336.667969 273.292969 L 333.753906 262.789062 C 334.996094 261.027344 339.34375 254.429688 337.394531 250.390625 Z M 218.226562 167.730469 C 217.550781 167.527344 216.691406 167.152344 216.414062 166.550781 C 216.207031 166.113281 216.339844 165.511719 216.804688 164.769531 C 217.914062 162.992188 219.890625 160.851562 221.632812 159.117188 C 220.398438 161.898438 219.21875 164.824219 218.226562 167.730469 Z M 230.40625 161.078125 C 230.617188 160.457031 230.617188 159.816406 230.445312 159.230469 C 230.765625 159.296875 231.085938 159.375 231.398438 159.480469 C 233.984375 160.351562 235.667969 162.402344 236.453125 163.570312 C 235.121094 164.023438 232.539062 164.636719 229.953125 163.773438 C 229.410156 163.589844 228.886719 163.339844 228.378906 163.042969 C 229.300781 162.757812 230.078125 162.0625 230.40625 161.078125 Z M 229.488281 179.753906 C 229.507812 180.257812 229.113281 180.679688 228.613281 180.699219 C 228.367188 180.710938 228.125 180.714844 227.886719 180.714844 C 221.875 180.714844 219.699219 177.714844 219.605469 177.582031 C 219.316406 177.171875 219.417969 176.605469 219.828125 176.316406 C 220.238281 176.027344 220.800781 176.125 221.09375 176.53125 C 221.183594 176.652344 223.0625 179.082031 228.542969 178.882812 C 229.074219 178.859375 229.46875 179.253906 229.488281 179.753906 Z M 252.726562 167.492188 C 252.253906 167.097656 249.949219 168.160156 249.382812 168.675781 C 249.019531 169.015625 248.441406 169.003906 248.101562 168.648438 C 247.757812 168.289062 247.753906 167.734375 248.101562 167.382812 C 248.453125 167.03125 251.316406 165.125 253.15625 165.648438 C 253.851562 165.84375 254.328125 166.351562 254.5 167.078125 C 255.085938 169.574219 251.425781 172.246094 250.6875 172.757812 C 250.53125 172.863281 250.347656 172.917969 250.171875 172.917969 C 249.882812 172.917969 249.597656 172.78125 249.421875 172.523438 C 249.136719 172.109375 249.238281 171.542969 249.652344 171.257812 C 251.082031 170.269531 252.945312 168.414062 252.726562 167.492188 Z M 210.476562 87.246094 C 210.476562 86.746094 210.886719 86.335938 211.390625 86.335938 L 239.65625 86.335938 L 239.65625 71.296875 C 239.65625 70.792969 240.0625 70.386719 240.566406 70.386719 C 241.070312 70.386719 241.476562 70.792969 241.476562 71.296875 L 241.476562 87.246094 C 241.476562 87.75 241.070312 88.15625 240.566406 88.15625 L 211.390625 88.15625 C 210.886719 88.15625 210.476562 87.75 210.476562 87.246094 Z M 172.730469 87.246094 C 172.730469 86.746094 173.140625 86.335938 173.640625 86.335938 L 193.789062 86.335938 C 194.292969 86.335938 194.699219 86.746094 194.699219 87.246094 C 194.699219 87.75 194.292969 88.15625 193.789062 88.15625 L 173.640625 88.15625 C 173.140625 88.15625 172.730469 87.75 172.730469 87.246094 Z M 66.960938 49.445312 C 66.960938 51.957031 69.007812 54 71.519531 54 C 74.03125 54 76.074219 51.957031 76.074219 49.445312 C 76.074219 46.929688 74.03125 44.886719 71.519531 44.886719 C 69.007812 44.886719 66.960938 46.929688 66.960938 49.445312 Z M 74.257812 49.445312 C 74.257812 50.953125 73.027344 52.179688 71.519531 52.179688 C 70.011719 52.179688 68.78125 50.953125 68.78125 49.445312 C 68.78125 47.933594 70.011719 46.707031 71.519531 46.707031 C 73.027344 46.707031 74.257812 47.933594 74.257812 49.445312 Z M 84.097656 49.445312 C 84.097656 51.957031 86.144531 54 88.65625 54 C 91.167969 54 93.210938 51.957031 93.210938 49.445312 C 93.210938 46.929688 91.167969 44.886719 88.65625 44.886719 C 86.144531 44.886719 84.097656 46.929688 84.097656 49.445312 Z M 91.394531 49.445312 C 91.394531 50.953125 90.164062 52.179688 88.65625 52.179688 C 87.148438 52.179688 85.917969 50.953125 85.917969 49.445312 C 85.917969 47.933594 87.148438 46.707031 88.65625 46.707031 C 90.164062 46.707031 91.394531 47.933594 91.394531 49.445312 Z M 202.988281 154.660156 L 202.988281 192 C 202.988281 192.171875 202.929688 192.320312 202.847656 192.457031 C 202.691406 192.722656 202.410156 192.914062 202.078125 192.914062 C 201.574219 192.914062 201.167969 192.503906 201.167969 192 L 201.167969 154.660156 C 201.167969 154.15625 201.574219 153.75 202.078125 153.75 C 202.578125 153.75 202.988281 154.15625 202.988281 154.660156 Z M 20.46875 199.347656 L 20.46875 146.164062 C 20.46875 145.664062 20.878906 145.253906 21.378906 145.253906 L 49.246094 145.253906 C 49.75 145.253906 50.15625 145.664062 50.15625 146.164062 C 50.15625 146.667969 49.75 147.074219 49.246094 147.074219 L 22.289062 147.074219 L 22.289062 198.4375 L 152.515625 198.4375 C 153.019531 198.4375 153.429688 198.847656 153.429688 199.347656 C 153.429688 199.703125 153.21875 200 152.925781 200.152344 C 152.800781 200.214844 152.664062 200.257812 152.515625 200.257812 L 21.378906 200.257812 C 20.878906 200.257812 20.46875 199.851562 20.46875 199.347656 Z M 28.792969 156.453125 C 28.792969 158.847656 30.742188 160.792969 33.132812 160.792969 C 35.527344 160.792969 37.472656 158.847656 37.472656 156.453125 C 37.472656 154.0625 35.527344 152.113281 33.132812 152.113281 C 30.742188 152.113281 28.792969 154.0625 28.792969 156.453125 Z M 35.652344 156.453125 C 35.652344 157.84375 34.523438 158.972656 33.132812 158.972656 C 31.742188 158.972656 30.613281 157.84375 30.613281 156.453125 C 30.613281 155.066406 31.742188 153.933594 33.132812 153.933594 C 34.523438 153.933594 35.652344 155.066406 35.652344 156.453125 Z M 44.90625 156.453125 C 44.90625 158.847656 46.851562 160.792969 49.246094 160.792969 C 51.636719 160.792969 53.585938 158.847656 53.585938 156.453125 C 53.585938 154.0625 51.640625 152.113281 49.246094 152.113281 C 46.851562 152.113281 44.90625 154.0625 44.90625 156.453125 Z M 51.765625 156.453125 C 51.765625 157.84375 50.636719 158.972656 49.246094 158.972656 C 47.855469 158.972656 46.726562 157.84375 46.726562 156.453125 C 46.726562 155.066406 47.855469 153.933594 49.246094 153.933594 C 50.636719 153.933594 51.765625 155.066406 51.765625 156.453125 Z M 174.550781 290.601562 C 174.550781 291.105469 174.144531 291.511719 173.640625 291.511719 L 21.378906 291.511719 C 20.878906 291.511719 20.46875 291.105469 20.46875 290.601562 L 20.46875 237.417969 C 20.46875 236.917969 20.878906 236.507812 21.378906 236.507812 L 164.644531 236.507812 C 165.144531 236.507812 165.554688 236.917969 165.554688 237.417969 C 165.554688 237.921875 165.144531 238.332031 164.644531 238.332031 L 22.289062 238.332031 L 22.289062 289.691406 L 173.640625 289.691406 C 174.144531 289.691406 174.550781 290.101562 174.550781 290.601562 Z M 43.203125 282.339844 L 62.148438 282.339844 C 62.648438 282.339844 63.058594 282.746094 63.058594 283.25 C 63.058594 283.753906 62.648438 284.160156 62.148438 284.160156 L 43.203125 284.160156 C 42.703125 284.160156 42.292969 283.753906 42.292969 283.25 C 42.292969 282.746094 42.703125 282.339844 43.203125 282.339844 Z M 28.792969 247.703125 C 28.792969 250.097656 30.742188 252.042969 33.132812 252.042969 C 35.527344 252.042969 37.472656 250.097656 37.472656 247.703125 C 37.472656 245.3125 35.527344 243.363281 33.132812 243.363281 C 30.742188 243.363281 28.792969 245.3125 28.792969 247.703125 Z M 35.652344 247.703125 C 35.652344 249.09375 34.523438 250.222656 33.132812 250.222656 C 31.742188 250.222656 30.613281 249.09375 30.613281 247.703125 C 30.613281 246.316406 31.742188 245.183594 33.132812 245.183594 C 34.523438 245.183594 35.652344 246.316406 35.652344 247.703125 Z M 53.585938 247.703125 C 53.585938 245.3125 51.640625 243.363281 49.246094 243.363281 C 46.851562 243.363281 44.90625 245.3125 44.90625 247.703125 C 44.90625 250.097656 46.851562 252.042969 49.246094 252.042969 C 51.636719 252.042969 53.585938 250.097656 53.585938 247.703125 Z M 46.726562 247.703125 C 46.726562 246.316406 47.855469 245.183594 49.246094 245.183594 C 50.632812 245.183594 51.765625 246.316406 51.765625 247.703125 C 51.765625 249.09375 50.636719 250.222656 49.246094 250.222656 C 47.859375 250.222656 46.726562 249.09375 46.726562 247.703125 Z M 43.878906 65.871094 L 58.105469 65.871094 L 58.105469 38.503906 C 58.105469 38.003906 58.511719 37.59375 59.015625 37.59375 L 88.65625 37.59375 C 89.15625 37.59375 89.5625 38 89.566406 38.5 C 89.566406 38.503906 89.566406 38.503906 89.566406 38.503906 C 89.566406 39.007812 89.15625 39.414062 88.65625 39.414062 L 59.925781 39.414062 L 59.925781 94.148438 L 114.253906 94.148438 C 114.574219 93.878906 114.929688 93.648438 115.339844 93.496094 C 116.269531 93.140625 117.28125 93.152344 118.15625 93.296875 C 117.488281 91.851562 116.835938 89.878906 117.226562 88.195312 C 117.476562 87.113281 118.105469 86.277344 119.085938 85.710938 C 121.722656 84.199219 124.476562 85.828125 126.28125 87.394531 C 125.691406 82.890625 124.929688 75.714844 125.363281 71.425781 C 125.519531 69.902344 125.820312 68.742188 126.335938 68.195312 C 126.691406 67.816406 127.160156 67.636719 127.644531 67.671875 C 128.769531 67.769531 129.988281 69.265625 131.179688 71.425781 C 132.816406 74.398438 134.40625 78.636719 135.621094 82.285156 C 135.941406 77.902344 136.523438 73.730469 137.550781 71.425781 C 138.054688 70.289062 138.667969 69.59375 139.414062 69.570312 C 139.757812 69.558594 140.414062 69.542969 141.273438 71.425781 C 142.429688 73.941406 143.960938 79.859375 145.640625 93.769531 C 147.472656 91.957031 150.578125 89.265625 152.8125 89.429688 C 153.589844 89.488281 154.226562 89.867188 154.652344 90.523438 C 155.273438 91.46875 155.265625 92.753906 154.929688 94.148438 L 250.289062 94.148438 L 250.289062 47.535156 C 250.289062 47.035156 250.699219 46.625 251.199219 46.625 C 251.703125 46.625 252.109375 47.035156 252.109375 47.535156 L 252.109375 95.058594 C 252.109375 95.558594 251.703125 95.96875 251.199219 95.96875 L 154.339844 95.96875 C 153.101562 99.054688 150.828125 102.183594 150.144531 103.089844 L 147.105469 107.332031 L 153.882812 124.964844 L 153.949219 125.132812 C 154.128906 125.601562 153.894531 126.128906 153.425781 126.308594 C 152.957031 126.488281 152.429688 126.253906 152.25 125.785156 L 152.234375 125.746094 L 145.230469 107.527344 C 145.117188 107.242188 145.160156 106.917969 145.339844 106.667969 L 148.679688 102.011719 C 150.25 99.929688 152.019531 97.035156 152.867188 94.734375 C 152.871094 94.71875 152.878906 94.703125 152.886719 94.683594 C 153.382812 93.308594 153.546875 92.152344 153.132812 91.519531 C 153.015625 91.335938 152.886719 91.261719 152.679688 91.246094 C 151.261719 91.148438 148.339844 93.585938 146.320312 95.683594 C 146.3125 95.691406 146.304688 95.699219 146.296875 95.710938 C 146.066406 95.945312 145.847656 96.179688 145.644531 96.40625 C 145.40625 96.671875 145.03125 96.773438 144.691406 96.667969 C 144.351562 96.558594 144.105469 96.261719 144.0625 95.902344 C 144.03125 95.628906 144 95.351562 143.964844 95.078125 C 143.964844 95.070312 143.960938 95.0625 143.960938 95.058594 C 143.960938 95.054688 143.964844 95.054688 143.964844 95.050781 C 142.738281 84.78125 140.742188 73.476562 139.414062 71.542969 C 138.351562 72.980469 137.414062 80.640625 137.175781 87.398438 C 137.160156 87.84375 136.824219 88.210938 136.378906 88.269531 C 135.9375 88.320312 135.519531 88.050781 135.394531 87.625 C 132.605469 78.230469 129.09375 70.089844 127.597656 69.515625 C 126.527344 70.929688 127.167969 81.074219 128.472656 89.917969 C 128.53125 90.328125 128.308594 90.726562 127.925781 90.886719 C 127.546875 91.050781 127.101562 90.933594 126.847656 90.605469 C 126.808594 90.554688 122.953125 85.59375 119.996094 87.289062 C 119.453125 87.601562 119.140625 88.015625 119.003906 88.601562 C 118.570312 90.460938 120.140625 93.339844 120.78125 94.292969 C 121.011719 94.632812 120.984375 95.085938 120.714844 95.398438 C 120.449219 95.707031 120.003906 95.800781 119.632812 95.621094 C 119.046875 95.34375 117.238281 94.71875 115.980469 95.199219 C 115.703125 95.304688 115.464844 95.460938 115.257812 95.671875 C 115.25 95.683594 115.242188 95.695312 115.230469 95.707031 C 115.039062 95.910156 114.878906 96.160156 114.75 96.464844 C 113.96875 98.324219 120.074219 107.046875 126.179688 114.066406 C 126.269531 114.167969 126.332031 114.289062 126.367188 114.417969 L 132.117188 135.09375 L 132.121094 135.117188 C 132.257812 135.601562 131.972656 136.105469 131.488281 136.238281 C 131.40625 136.261719 131.324219 136.273438 131.246094 136.273438 C 130.933594 136.273438 130.644531 136.109375 130.480469 135.84375 C 130.433594 135.769531 130.394531 135.695312 130.367188 135.605469 L 125.039062 116.4375 C 124.96875 116.457031 124.898438 116.484375 124.820312 116.484375 L 85.59375 116.484375 C 85.089844 116.484375 84.683594 116.074219 84.683594 115.574219 C 84.683594 115.070312 85.089844 114.664062 85.59375 114.664062 L 124.285156 114.664062 C 122.742188 112.867188 120.199219 109.808594 117.90625 106.617188 C 117.835938 106.632812 117.769531 106.65625 117.691406 106.65625 L 106.015625 106.65625 C 105.511719 106.65625 105.105469 106.25 105.105469 105.746094 C 105.105469 105.246094 105.511719 104.835938 106.015625 104.835938 L 116.664062 104.835938 C 114.265625 101.269531 112.472656 97.796875 113.003906 95.96875 L 59.015625 95.96875 C 58.511719 95.96875 58.105469 95.558594 58.105469 95.058594 L 58.105469 67.691406 L 43.878906 67.691406 C 43.375 67.691406 42.96875 67.285156 42.96875 66.78125 C 42.96875 66.277344 43.375 65.871094 43.878906 65.871094 Z M 22.878906 95.058594 C 22.878906 94.554688 23.285156 94.148438 23.789062 94.148438 L 49.246094 94.148438 C 49.75 94.148438 50.15625 94.554688 50.15625 95.058594 C 50.15625 95.558594 49.75 95.96875 49.246094 95.96875 L 23.789062 95.96875 C 23.285156 95.96875 22.878906 95.558594 22.878906 95.058594 Z M 24.300781 38.503906 C 24.300781 38.003906 24.710938 37.59375 25.210938 37.59375 L 49.871094 37.59375 C 50.371094 37.59375 50.78125 38.003906 50.78125 38.503906 C 50.78125 39.007812 50.371094 39.414062 49.871094 39.414062 L 25.210938 39.414062 C 24.710938 39.414062 24.300781 39.007812 24.300781 38.503906 Z M 15.910156 38.503906 C 15.910156 39.007812 15.503906 39.414062 15 39.414062 L 9.339844 39.414062 C 8.839844 39.414062 8.429688 39.007812 8.429688 38.503906 C 8.429688 38.003906 8.839844 37.59375 9.339844 37.59375 L 15 37.59375 C 15.503906 37.59375 15.910156 38.003906 15.910156 38.503906 Z M 76.765625 114.664062 C 77.269531 114.664062 77.675781 115.070312 77.675781 115.574219 C 77.675781 116.074219 77.269531 116.484375 76.765625 116.484375 L 67.007812 116.484375 C 66.507812 116.484375 66.097656 116.074219 66.097656 115.574219 C 66.097656 115.070312 66.507812 114.664062 67.007812 114.664062 Z M 366.574219 210.546875 L 366.574219 218.191406 C 366.574219 218.695312 366.167969 219.101562 365.664062 219.101562 L 332.601562 219.101562 C 332.097656 219.101562 331.691406 218.695312 331.691406 218.191406 C 331.691406 217.6875 332.097656 217.28125 332.601562 217.28125 L 364.753906 217.28125 L 364.753906 210.546875 C 364.753906 210.046875 365.164062 209.636719 365.664062 209.636719 C 366.167969 209.636719 366.574219 210.046875 366.574219 210.546875 Z M 290.144531 174.902344 L 356.199219 174.902344 C 356.703125 174.902344 357.109375 175.308594 357.109375 175.8125 C 357.109375 176.316406 356.703125 176.722656 356.199219 176.722656 L 291.054688 176.722656 L 291.054688 190.183594 L 307.101562 190.183594 C 307.601562 190.183594 308.011719 190.59375 308.011719 191.09375 C 308.011719 191.597656 307.601562 192.003906 307.101562 192.003906 L 290.144531 192.003906 C 289.644531 192.003906 289.234375 191.597656 289.234375 191.09375 L 289.234375 175.8125 C 289.234375 175.308594 289.640625 174.902344 290.144531 174.902344 Z M 239.425781 158.390625 C 239.292969 158.460938 239.148438 158.492188 239.007812 158.492188 C 238.679688 158.492188 238.359375 158.3125 238.199219 158 C 235.882812 153.496094 233.433594 151.609375 230.003906 151.6875 C 229.488281 151.707031 229.082031 151.300781 229.074219 150.796875 C 229.0625 150.296875 229.457031 149.878906 229.960938 149.867188 C 235.335938 149.726562 238.035156 153.703125 239.816406 157.167969 C 240.046875 157.613281 239.871094 158.164062 239.425781 158.390625 Z M 239.425781 158.390625 " fill-opacity="1" fill-rule="nonzero"/></g></svg>