<svg xmlns="http://www.w3.org/2000/svg" xmlns:xlink="http://www.w3.org/1999/xlink" width="500" zoomAndPan="magnify" viewBox="0 0 375 374.999991" height="500" preserveAspectRatio="xMidYMid meet" version="1.0"><defs><clipPath id="f36cc966fc"><path d="M 16.457031 28 L 264 28 L 264 348 L 16.457031 348 Z M 16.457031 28 " clip-rule="nonzero"/></clipPath></defs><rect x="-37.5" width="450" fill="#ffffff" y="-37.499999" height="449.999989" fill-opacity="1"/><rect x="-37.5" width="450" fill="#ffffff" y="-37.499999" height="449.999989" fill-opacity="1"/><g clip-path="url(#f36cc966fc)"><path fill="#701e2f" d="M 248.074219 347.226562 L 31.398438 347.226562 C 30.417969 347.226562 29.445312 347.128906 28.484375 346.9375 C 27.523438 346.746094 26.589844 346.460938 25.683594 346.085938 C 24.777344 345.710938 23.914062 345.25 23.101562 344.703125 C 22.285156 344.160156 21.53125 343.539062 20.835938 342.84375 C 20.144531 342.152344 19.523438 341.398438 18.980469 340.582031 C 18.433594 339.765625 17.972656 338.90625 17.597656 338 C 17.222656 337.09375 16.9375 336.160156 16.746094 335.199219 C 16.554688 334.238281 16.457031 333.265625 16.457031 332.285156 L 16.457031 43.074219 C 16.457031 42.09375 16.554688 41.125 16.746094 40.160156 C 16.9375 39.199219 17.222656 38.265625 17.597656 37.359375 C 17.972656 36.453125 18.433594 35.59375 18.980469 34.777344 C 19.523438 33.960938 20.144531 33.207031 20.835938 32.515625 C 21.53125 31.820312 22.285156 31.203125 23.101562 30.65625 C 23.914062 30.113281 24.777344 29.652344 25.683594 29.273438 C 26.589844 28.898438 27.523438 28.613281 28.484375 28.421875 C 29.445312 28.230469 30.417969 28.132812 31.398438 28.132812 L 248.074219 28.132812 C 249.054688 28.132812 250.027344 28.230469 250.988281 28.421875 C 251.949219 28.613281 252.882812 28.898438 253.789062 29.273438 C 254.695312 29.652344 255.554688 30.113281 256.371094 30.65625 C 257.1875 31.203125 257.941406 31.820312 258.632812 32.515625 C 259.328125 33.207031 259.945312 33.964844 260.492188 34.777344 C 261.035156 35.59375 261.496094 36.453125 261.871094 37.359375 C 262.25 38.265625 262.53125 39.199219 262.722656 40.160156 C 262.914062 41.125 263.011719 42.09375 263.011719 43.074219 L 263.011719 230.640625 C 263.011719 231.617188 262.667969 232.457031 261.972656 233.148438 L 221.347656 273.777344 L 237.316406 289.765625 L 256.964844 270.109375 C 257.214844 269.863281 257.492188 269.65625 257.804688 269.488281 C 258.113281 269.324219 258.441406 269.207031 258.785156 269.140625 C 259.128906 269.070312 259.476562 269.054688 259.824219 269.089844 C 260.175781 269.121094 260.511719 269.207031 260.835938 269.339844 C 261.160156 269.476562 261.457031 269.65625 261.726562 269.878906 C 262 270.101562 262.230469 270.359375 262.425781 270.648438 C 262.621094 270.941406 262.769531 271.253906 262.871094 271.589844 C 262.972656 271.925781 263.023438 272.269531 263.023438 272.621094 L 263.023438 332.285156 C 263.023438 333.265625 262.925781 334.238281 262.734375 335.199219 C 262.542969 336.160156 262.257812 337.097656 261.882812 338.003906 C 261.507812 338.910156 261.046875 339.769531 260.5 340.585938 C 259.953125 341.402344 259.335938 342.15625 258.640625 342.847656 C 257.945312 343.542969 257.191406 344.160156 256.375 344.707031 C 255.558594 345.253906 254.699219 345.710938 253.792969 346.089844 C 252.886719 346.464844 251.953125 346.746094 250.988281 346.9375 C 250.027344 347.128906 249.054688 347.226562 248.074219 347.226562 Z M 31.398438 35.222656 C 30.882812 35.222656 30.375 35.273438 29.867188 35.375 C 29.363281 35.476562 28.871094 35.625 28.398438 35.820312 C 27.921875 36.019531 27.46875 36.261719 27.042969 36.546875 C 26.613281 36.832031 26.214844 37.160156 25.851562 37.523438 C 25.488281 37.886719 25.164062 38.285156 24.875 38.710938 C 24.589844 39.140625 24.347656 39.589844 24.152344 40.066406 C 23.953125 40.542969 23.804688 41.035156 23.703125 41.539062 C 23.605469 42.042969 23.554688 42.554688 23.550781 43.070312 L 23.550781 332.277344 C 23.554688 332.792969 23.605469 333.300781 23.703125 333.808594 C 23.804688 334.3125 23.953125 334.804688 24.152344 335.277344 C 24.347656 335.753906 24.589844 336.207031 24.875 336.632812 C 25.164062 337.0625 25.488281 337.457031 25.851562 337.824219 C 26.214844 338.1875 26.613281 338.511719 27.042969 338.796875 C 27.46875 339.085938 27.921875 339.328125 28.398438 339.523438 C 28.871094 339.722656 29.363281 339.871094 29.867188 339.972656 C 30.375 340.070312 30.882812 340.121094 31.398438 340.121094 L 248.074219 340.121094 C 248.589844 340.121094 249.097656 340.070312 249.605469 339.972656 C 250.109375 339.871094 250.597656 339.722656 251.074219 339.523438 C 251.550781 339.328125 252.003906 339.085938 252.429688 338.796875 C 252.859375 338.511719 253.253906 338.1875 253.617188 337.824219 C 253.984375 337.457031 254.308594 337.0625 254.59375 336.632812 C 254.878906 336.207031 255.121094 335.753906 255.320312 335.277344 C 255.515625 334.800781 255.664062 334.3125 255.765625 333.808594 C 255.867188 333.300781 255.914062 332.792969 255.917969 332.277344 L 255.917969 281.179688 L 239.8125 297.292969 C 239.121094 297.984375 238.285156 298.332031 237.304688 298.332031 C 236.324219 298.332031 235.484375 297.984375 234.792969 297.292969 L 213.816406 276.285156 C 213.484375 275.953125 213.226562 275.566406 213.046875 275.132812 C 212.867188 274.699219 212.777344 274.246094 212.777344 273.777344 C 212.777344 273.308594 212.867188 272.855469 213.046875 272.421875 C 213.226562 271.984375 213.484375 271.601562 213.816406 271.269531 L 255.917969 229.171875 L 255.917969 43.070312 C 255.914062 42.554688 255.867188 42.042969 255.765625 41.539062 C 255.664062 41.035156 255.515625 40.542969 255.320312 40.066406 C 255.121094 39.59375 254.878906 39.140625 254.59375 38.710938 C 254.308594 38.285156 253.984375 37.886719 253.617188 37.523438 C 253.253906 37.160156 252.859375 36.832031 252.429688 36.546875 C 252.003906 36.261719 251.550781 36.019531 251.074219 35.820312 C 250.597656 35.625 250.109375 35.476562 249.605469 35.375 C 249.097656 35.273438 248.589844 35.222656 248.074219 35.222656 Z M 259.464844 230.640625 Z M 259.464844 230.640625 " fill-opacity="1" fill-rule="nonzero"/></g><path fill="#701e2f" d="M 59.617188 86.105469 C 58.636719 86.105469 57.800781 85.757812 57.109375 85.066406 L 50.785156 78.734375 C 50.441406 78.40625 50.175781 78.019531 49.988281 77.582031 C 49.800781 77.144531 49.703125 76.691406 49.699219 76.214844 C 49.695312 75.738281 49.785156 75.28125 49.964844 74.839844 C 50.144531 74.398438 50.402344 74.011719 50.738281 73.671875 C 51.078125 73.335938 51.464844 73.078125 51.90625 72.898438 C 52.347656 72.71875 52.804688 72.628906 53.28125 72.632812 C 53.757812 72.636719 54.210938 72.734375 54.648438 72.921875 C 55.085938 73.109375 55.472656 73.375 55.800781 73.71875 L 59.617188 77.53125 L 69.328125 67.824219 C 69.664062 67.5 70.046875 67.253906 70.480469 67.082031 C 70.910156 66.90625 71.359375 66.824219 71.824219 66.828125 C 72.289062 66.832031 72.738281 66.921875 73.167969 67.105469 C 73.59375 67.285156 73.972656 67.539062 74.304688 67.867188 C 74.632812 68.195312 74.886719 68.574219 75.066406 69.003906 C 75.246094 69.433594 75.339844 69.878906 75.34375 70.34375 C 75.347656 70.808594 75.261719 71.257812 75.089844 71.691406 C 74.917969 72.125 74.667969 72.507812 74.347656 72.839844 L 62.125 85.066406 C 61.433594 85.757812 60.597656 86.105469 59.617188 86.105469 Z M 59.617188 86.105469 " fill-opacity="1" fill-rule="nonzero"/><path fill="#701e2f" d="M 78.175781 98.65625 L 46.972656 98.65625 C 46.539062 98.65625 46.109375 98.613281 45.679688 98.53125 C 45.253906 98.445312 44.839844 98.320312 44.4375 98.152344 C 44.039062 97.984375 43.65625 97.78125 43.292969 97.539062 C 42.933594 97.296875 42.597656 97.023438 42.289062 96.71875 C 41.984375 96.410156 41.707031 96.074219 41.464844 95.714844 C 41.226562 95.351562 41.019531 94.972656 40.855469 94.570312 C 40.6875 94.167969 40.5625 93.753906 40.476562 93.328125 C 40.390625 92.902344 40.347656 92.46875 40.347656 92.035156 L 40.347656 60.855469 C 40.347656 60.421875 40.394531 59.992188 40.480469 59.566406 C 40.566406 59.140625 40.691406 58.726562 40.859375 58.324219 C 41.023438 57.925781 41.230469 57.542969 41.472656 57.183594 C 41.714844 56.824219 41.988281 56.488281 42.296875 56.183594 C 42.601562 55.875 42.9375 55.601562 43.300781 55.363281 C 43.660156 55.121094 44.042969 54.917969 44.441406 54.753906 C 44.84375 54.585938 45.257812 54.460938 45.683594 54.378906 C 46.109375 54.292969 46.539062 54.25 46.972656 54.25 L 78.199219 54.25 C 78.636719 54.25 79.066406 54.292969 79.492188 54.378906 C 79.917969 54.464844 80.332031 54.589844 80.730469 54.757812 C 81.132812 54.921875 81.515625 55.125 81.875 55.367188 C 82.238281 55.609375 82.570312 55.882812 82.878906 56.191406 C 83.183594 56.496094 83.460938 56.832031 83.699219 57.191406 C 83.941406 57.554688 84.144531 57.9375 84.3125 58.335938 C 84.480469 58.738281 84.605469 59.152344 84.691406 59.578125 C 84.773438 60.003906 84.816406 60.433594 84.820312 60.867188 L 84.820312 92.050781 C 84.816406 92.484375 84.773438 92.914062 84.6875 93.339844 C 84.601562 93.769531 84.472656 94.183594 84.304688 94.582031 C 84.140625 94.984375 83.933594 95.367188 83.691406 95.726562 C 83.449219 96.085938 83.171875 96.421875 82.863281 96.726562 C 82.554688 97.035156 82.222656 97.308594 81.859375 97.550781 C 81.496094 97.789062 81.113281 97.992188 80.710938 98.160156 C 80.308594 98.324219 79.894531 98.449219 79.46875 98.53125 C 79.042969 98.617188 78.609375 98.65625 78.175781 98.65625 Z M 47.4375 91.558594 L 77.695312 91.558594 L 77.695312 61.347656 L 47.4375 61.347656 Z M 47.4375 91.558594 " fill-opacity="1" fill-rule="nonzero"/><path fill="#701e2f" d="M 235.578125 70.613281 L 105.242188 70.613281 C 104.769531 70.613281 104.316406 70.523438 103.882812 70.34375 C 103.449219 70.164062 103.0625 69.90625 102.730469 69.574219 C 102.398438 69.242188 102.140625 68.855469 101.960938 68.421875 C 101.78125 67.988281 101.691406 67.535156 101.691406 67.0625 C 101.691406 66.59375 101.78125 66.140625 101.960938 65.707031 C 102.140625 65.269531 102.398438 64.886719 102.730469 64.554688 C 103.0625 64.222656 103.449219 63.964844 103.882812 63.785156 C 104.316406 63.605469 104.769531 63.515625 105.242188 63.515625 L 235.578125 63.515625 C 236.050781 63.515625 236.503906 63.605469 236.9375 63.785156 C 237.371094 63.964844 237.753906 64.222656 238.089844 64.554688 C 238.421875 64.886719 238.675781 65.269531 238.859375 65.707031 C 239.039062 66.140625 239.128906 66.59375 239.128906 67.0625 C 239.128906 67.535156 239.039062 67.988281 238.859375 68.421875 C 238.675781 68.855469 238.421875 69.242188 238.089844 69.574219 C 237.753906 69.90625 237.371094 70.164062 236.9375 70.34375 C 236.503906 70.523438 236.050781 70.613281 235.578125 70.613281 Z M 235.578125 70.613281 " fill-opacity="1" fill-rule="nonzero"/><path fill="#701e2f" d="M 235.578125 89.382812 L 105.242188 89.382812 C 104.769531 89.382812 104.316406 89.292969 103.882812 89.109375 C 103.449219 88.929688 103.0625 88.675781 102.730469 88.34375 C 102.398438 88.007812 102.140625 87.625 101.960938 87.191406 C 101.78125 86.753906 101.691406 86.304688 101.691406 85.832031 C 101.691406 85.363281 101.78125 84.910156 101.960938 84.476562 C 102.140625 84.039062 102.398438 83.65625 102.730469 83.324219 C 103.0625 82.992188 103.449219 82.734375 103.882812 82.554688 C 104.316406 82.375 104.769531 82.285156 105.242188 82.285156 L 235.578125 82.285156 C 236.050781 82.285156 236.503906 82.375 236.9375 82.554688 C 237.371094 82.734375 237.753906 82.992188 238.089844 83.324219 C 238.421875 83.65625 238.675781 84.039062 238.859375 84.476562 C 239.039062 84.910156 239.128906 85.363281 239.128906 85.832031 C 239.128906 86.304688 239.039062 86.753906 238.859375 87.191406 C 238.675781 87.625 238.421875 88.007812 238.089844 88.34375 C 237.753906 88.675781 237.371094 88.929688 236.9375 89.109375 C 236.503906 89.292969 236.050781 89.382812 235.578125 89.382812 Z M 235.578125 89.382812 " fill-opacity="1" fill-rule="nonzero"/><path fill="#701e2f" d="M 59.617188 158.578125 C 58.636719 158.578125 57.800781 158.230469 57.109375 157.539062 L 50.785156 151.214844 C 50.441406 150.882812 50.175781 150.5 49.988281 150.0625 C 49.800781 149.625 49.707031 149.167969 49.699219 148.691406 C 49.695312 148.21875 49.785156 147.757812 49.964844 147.320312 C 50.144531 146.878906 50.402344 146.488281 50.738281 146.152344 C 51.078125 145.816406 51.464844 145.558594 51.90625 145.378906 C 52.347656 145.199219 52.804688 145.109375 53.28125 145.113281 C 53.757812 145.117188 54.210938 145.214844 54.648438 145.402344 C 55.085938 145.589844 55.472656 145.855469 55.800781 146.199219 L 59.617188 150.011719 L 69.328125 140.289062 C 69.660156 139.957031 70.046875 139.699219 70.480469 139.519531 C 70.914062 139.339844 71.367188 139.25 71.839844 139.25 C 72.308594 139.25 72.761719 139.339844 73.195312 139.519531 C 73.632812 139.703125 74.015625 139.957031 74.347656 140.289062 C 74.679688 140.625 74.9375 141.007812 75.117188 141.441406 C 75.296875 141.878906 75.386719 142.332031 75.386719 142.800781 C 75.386719 143.269531 75.296875 143.722656 75.117188 144.160156 C 74.9375 144.59375 74.679688 144.976562 74.347656 145.308594 L 62.125 157.535156 C 61.433594 158.230469 60.597656 158.578125 59.617188 158.578125 Z M 59.617188 158.578125 " fill-opacity="1" fill-rule="nonzero"/><path fill="#701e2f" d="M 78.175781 171.121094 L 46.972656 171.121094 C 46.539062 171.121094 46.109375 171.078125 45.679688 170.996094 C 45.253906 170.910156 44.839844 170.785156 44.4375 170.617188 C 44.039062 170.453125 43.65625 170.25 43.292969 170.007812 C 42.933594 169.765625 42.597656 169.492188 42.289062 169.183594 C 41.984375 168.878906 41.707031 168.542969 41.46875 168.183594 C 41.226562 167.820312 41.019531 167.4375 40.855469 167.039062 C 40.6875 166.636719 40.5625 166.222656 40.476562 165.796875 C 40.390625 165.371094 40.347656 164.9375 40.347656 164.503906 L 40.347656 133.324219 C 40.347656 132.886719 40.390625 132.457031 40.476562 132.03125 C 40.5625 131.605469 40.6875 131.191406 40.855469 130.789062 C 41.019531 130.386719 41.226562 130.007812 41.464844 129.644531 C 41.707031 129.285156 41.984375 128.949219 42.289062 128.640625 C 42.597656 128.335938 42.933594 128.058594 43.292969 127.820312 C 43.65625 127.578125 44.039062 127.371094 44.4375 127.207031 C 44.839844 127.039062 45.253906 126.914062 45.679688 126.828125 C 46.109375 126.746094 46.539062 126.703125 46.972656 126.703125 L 78.199219 126.703125 C 78.636719 126.703125 79.066406 126.746094 79.492188 126.832031 C 79.917969 126.914062 80.332031 127.042969 80.730469 127.207031 C 81.132812 127.375 81.515625 127.578125 81.875 127.820312 C 82.238281 128.0625 82.570312 128.335938 82.878906 128.644531 C 83.183594 128.953125 83.460938 129.285156 83.699219 129.648438 C 83.941406 130.007812 84.144531 130.390625 84.3125 130.792969 C 84.480469 131.191406 84.605469 131.605469 84.691406 132.03125 C 84.773438 132.457031 84.816406 132.886719 84.820312 133.324219 L 84.820312 164.503906 C 84.816406 164.941406 84.773438 165.371094 84.691406 165.796875 C 84.605469 166.226562 84.476562 166.640625 84.308594 167.042969 C 84.144531 167.445312 83.9375 167.824219 83.695312 168.1875 C 83.453125 168.550781 83.175781 168.882812 82.871094 169.191406 C 82.5625 169.5 82.226562 169.773438 81.863281 170.011719 C 81.5 170.253906 81.117188 170.457031 80.714844 170.625 C 80.3125 170.789062 79.898438 170.914062 79.46875 171 C 79.042969 171.082031 78.609375 171.125 78.175781 171.121094 Z M 47.4375 164.023438 L 77.695312 164.023438 L 77.695312 133.796875 L 47.4375 133.796875 Z M 47.4375 164.023438 " fill-opacity="1" fill-rule="nonzero"/><path fill="#701e2f" d="M 235.578125 143.082031 L 105.242188 143.082031 C 104.769531 143.082031 104.316406 142.992188 103.882812 142.8125 C 103.449219 142.632812 103.0625 142.375 102.730469 142.042969 C 102.398438 141.710938 102.140625 141.324219 101.960938 140.890625 C 101.78125 140.457031 101.691406 140.003906 101.691406 139.53125 C 101.691406 139.0625 101.78125 138.609375 101.960938 138.175781 C 102.140625 137.742188 102.398438 137.355469 102.730469 137.023438 C 103.0625 136.691406 103.449219 136.433594 103.882812 136.253906 C 104.316406 136.074219 104.769531 135.984375 105.242188 135.984375 L 235.578125 135.984375 C 236.050781 135.984375 236.503906 136.074219 236.9375 136.253906 C 237.371094 136.433594 237.753906 136.691406 238.089844 137.023438 C 238.421875 137.355469 238.675781 137.742188 238.859375 138.175781 C 239.039062 138.609375 239.128906 139.0625 239.128906 139.53125 C 239.128906 140.003906 239.039062 140.457031 238.859375 140.890625 C 238.675781 141.324219 238.421875 141.710938 238.089844 142.042969 C 237.753906 142.375 237.371094 142.632812 236.9375 142.8125 C 236.503906 142.992188 236.050781 143.082031 235.578125 143.082031 Z M 235.578125 143.082031 " fill-opacity="1" fill-rule="nonzero"/><path fill="#701e2f" d="M 235.578125 161.84375 L 105.242188 161.84375 C 104.769531 161.84375 104.316406 161.753906 103.882812 161.574219 C 103.449219 161.394531 103.0625 161.136719 102.730469 160.804688 C 102.398438 160.472656 102.140625 160.085938 101.960938 159.652344 C 101.78125 159.21875 101.691406 158.765625 101.691406 158.292969 C 101.691406 157.824219 101.78125 157.371094 101.960938 156.9375 C 102.140625 156.5 102.398438 156.117188 102.730469 155.785156 C 103.0625 155.453125 103.449219 155.195312 103.882812 155.015625 C 104.316406 154.835938 104.769531 154.746094 105.242188 154.746094 L 235.578125 154.746094 C 236.050781 154.746094 236.503906 154.835938 236.9375 155.015625 C 237.371094 155.195312 237.753906 155.453125 238.089844 155.785156 C 238.421875 156.117188 238.675781 156.5 238.859375 156.9375 C 239.039062 157.371094 239.128906 157.824219 239.128906 158.292969 C 239.128906 158.765625 239.039062 159.21875 238.859375 159.652344 C 238.675781 160.085938 238.421875 160.472656 238.089844 160.804688 C 237.753906 161.136719 237.371094 161.394531 236.9375 161.574219 C 236.503906 161.753906 236.050781 161.84375 235.578125 161.84375 Z M 235.578125 161.84375 " fill-opacity="1" fill-rule="nonzero"/><path fill="#701e2f" d="M 59.617188 231.042969 C 58.636719 231.042969 57.800781 230.695312 57.109375 230.003906 L 50.785156 223.679688 C 50.441406 223.351562 50.175781 222.964844 49.988281 222.527344 C 49.800781 222.089844 49.707031 221.632812 49.699219 221.160156 C 49.695312 220.683594 49.785156 220.226562 49.964844 219.785156 C 50.144531 219.34375 50.402344 218.957031 50.738281 218.617188 C 51.078125 218.28125 51.464844 218.023438 51.90625 217.84375 C 52.347656 217.664062 52.804688 217.574219 53.28125 217.578125 C 53.757812 217.582031 54.210938 217.679688 54.648438 217.867188 C 55.085938 218.054688 55.472656 218.320312 55.800781 218.664062 L 59.617188 222.476562 L 69.328125 212.757812 C 69.664062 212.433594 70.046875 212.1875 70.480469 212.015625 C 70.910156 211.84375 71.359375 211.757812 71.824219 211.761719 C 72.289062 211.765625 72.738281 211.859375 73.167969 212.039062 C 73.59375 212.21875 73.972656 212.472656 74.304688 212.800781 C 74.632812 213.128906 74.886719 213.507812 75.066406 213.9375 C 75.246094 214.367188 75.339844 214.8125 75.34375 215.28125 C 75.347656 215.746094 75.261719 216.191406 75.089844 216.625 C 74.917969 217.058594 74.667969 217.441406 74.347656 217.777344 L 62.125 230.003906 C 61.433594 230.695312 60.597656 231.042969 59.617188 231.042969 Z M 59.617188 231.042969 " fill-opacity="1" fill-rule="nonzero"/><path fill="#701e2f" d="M 78.175781 243.589844 L 46.972656 243.589844 C 46.539062 243.589844 46.109375 243.546875 45.679688 243.464844 C 45.253906 243.378906 44.839844 243.253906 44.441406 243.085938 C 44.039062 242.921875 43.65625 242.714844 43.296875 242.476562 C 42.933594 242.234375 42.597656 241.960938 42.292969 241.652344 C 41.984375 241.34375 41.710938 241.011719 41.46875 240.648438 C 41.226562 240.289062 41.023438 239.90625 40.855469 239.503906 C 40.6875 239.105469 40.5625 238.691406 40.476562 238.265625 C 40.390625 237.839844 40.347656 237.40625 40.347656 236.972656 L 40.347656 205.792969 C 40.347656 205.355469 40.390625 204.925781 40.476562 204.5 C 40.5625 204.074219 40.6875 203.660156 40.855469 203.257812 C 41.019531 202.855469 41.226562 202.476562 41.464844 202.113281 C 41.707031 201.753906 41.984375 201.417969 42.289062 201.109375 C 42.597656 200.804688 42.933594 200.527344 43.292969 200.289062 C 43.65625 200.046875 44.039062 199.839844 44.4375 199.675781 C 44.839844 199.507812 45.253906 199.382812 45.679688 199.296875 C 46.109375 199.214844 46.539062 199.171875 46.972656 199.171875 L 78.199219 199.171875 C 78.636719 199.171875 79.066406 199.214844 79.492188 199.300781 C 79.917969 199.382812 80.332031 199.511719 80.730469 199.675781 C 81.132812 199.84375 81.515625 200.046875 81.875 200.289062 C 82.238281 200.53125 82.570312 200.804688 82.878906 201.113281 C 83.183594 201.421875 83.460938 201.753906 83.699219 202.117188 C 83.941406 202.476562 84.144531 202.859375 84.3125 203.261719 C 84.480469 203.660156 84.605469 204.074219 84.691406 204.5 C 84.773438 204.925781 84.816406 205.359375 84.820312 205.792969 L 84.820312 236.972656 C 84.816406 237.410156 84.773438 237.839844 84.6875 238.265625 C 84.601562 238.695312 84.476562 239.109375 84.308594 239.511719 C 84.140625 239.910156 83.9375 240.292969 83.695312 240.65625 C 83.453125 241.015625 83.175781 241.351562 82.867188 241.660156 C 82.558594 241.964844 82.222656 242.238281 81.863281 242.480469 C 81.5 242.722656 81.117188 242.925781 80.714844 243.09375 C 80.3125 243.257812 79.898438 243.382812 79.46875 243.464844 C 79.042969 243.550781 78.609375 243.59375 78.175781 243.589844 Z M 47.4375 236.496094 L 77.695312 236.496094 L 77.695312 206.265625 L 47.4375 206.265625 Z M 47.4375 236.496094 " fill-opacity="1" fill-rule="nonzero"/><path fill="#701e2f" d="M 235.578125 215.546875 L 105.242188 215.546875 C 104.769531 215.546875 104.316406 215.457031 103.882812 215.277344 C 103.449219 215.097656 103.0625 214.839844 102.730469 214.507812 C 102.398438 214.175781 102.140625 213.792969 101.960938 213.355469 C 101.78125 212.921875 101.691406 212.46875 101.691406 212 C 101.691406 211.527344 101.78125 211.074219 101.960938 210.640625 C 102.140625 210.207031 102.398438 209.820312 102.730469 209.488281 C 103.0625 209.15625 103.449219 208.898438 103.882812 208.71875 C 104.316406 208.539062 104.769531 208.449219 105.242188 208.449219 L 235.578125 208.449219 C 236.050781 208.449219 236.503906 208.539062 236.9375 208.71875 C 237.371094 208.898438 237.753906 209.15625 238.089844 209.488281 C 238.421875 209.820312 238.675781 210.207031 238.859375 210.640625 C 239.039062 211.074219 239.128906 211.527344 239.128906 212 C 239.128906 212.46875 239.039062 212.921875 238.859375 213.355469 C 238.675781 213.792969 238.421875 214.175781 238.089844 214.507812 C 237.753906 214.839844 237.371094 215.097656 236.9375 215.277344 C 236.503906 215.457031 236.050781 215.546875 235.578125 215.546875 Z M 235.578125 215.546875 " fill-opacity="1" fill-rule="nonzero"/><path fill="#701e2f" d="M 235.578125 234.3125 L 105.242188 234.3125 C 104.769531 234.3125 104.316406 234.222656 103.882812 234.042969 C 103.449219 233.863281 103.0625 233.605469 102.730469 233.273438 C 102.398438 232.941406 102.140625 232.554688 101.960938 232.121094 C 101.78125 231.6875 101.691406 231.234375 101.691406 230.761719 C 101.691406 230.292969 101.78125 229.839844 101.960938 229.40625 C 102.140625 228.96875 102.398438 228.585938 102.730469 228.253906 C 103.0625 227.921875 103.449219 227.664062 103.882812 227.484375 C 104.316406 227.304688 104.769531 227.214844 105.242188 227.214844 L 235.578125 227.214844 C 236.050781 227.214844 236.503906 227.304688 236.9375 227.484375 C 237.371094 227.664062 237.753906 227.921875 238.089844 228.253906 C 238.421875 228.585938 238.675781 228.96875 238.859375 229.40625 C 239.039062 229.839844 239.128906 230.292969 239.128906 230.761719 C 239.128906 231.234375 239.039062 231.6875 238.859375 232.121094 C 238.675781 232.554688 238.421875 232.941406 238.089844 233.273438 C 237.753906 233.605469 237.371094 233.863281 236.9375 234.042969 C 236.503906 234.222656 236.050781 234.3125 235.578125 234.3125 Z M 235.578125 234.3125 " fill-opacity="1" fill-rule="nonzero"/><path fill="#701e2f" d="M 59.617188 303.511719 C 58.636719 303.511719 57.800781 303.164062 57.109375 302.472656 L 50.785156 296.148438 C 50.441406 295.820312 50.175781 295.433594 49.988281 294.996094 C 49.800781 294.558594 49.707031 294.101562 49.699219 293.628906 C 49.695312 293.152344 49.785156 292.695312 49.964844 292.253906 C 50.144531 291.8125 50.402344 291.425781 50.738281 291.085938 C 51.078125 290.75 51.464844 290.492188 51.90625 290.3125 C 52.347656 290.132812 52.804688 290.042969 53.28125 290.046875 C 53.757812 290.050781 54.210938 290.148438 54.648438 290.335938 C 55.085938 290.523438 55.472656 290.789062 55.800781 291.132812 L 59.617188 294.945312 L 69.328125 285.226562 C 69.664062 284.921875 70.046875 284.6875 70.472656 284.527344 C 70.902344 284.367188 71.34375 284.292969 71.796875 284.304688 C 72.253906 284.316406 72.691406 284.410156 73.109375 284.589844 C 73.527344 284.765625 73.898438 285.015625 74.222656 285.339844 C 74.542969 285.660156 74.796875 286.03125 74.976562 286.449219 C 75.15625 286.867188 75.25 287.304688 75.265625 287.757812 C 75.277344 288.214844 75.203125 288.65625 75.046875 289.082031 C 74.886719 289.507812 74.65625 289.890625 74.351562 290.230469 L 62.125 302.472656 C 61.433594 303.164062 60.597656 303.511719 59.617188 303.511719 Z M 59.617188 303.511719 " fill-opacity="1" fill-rule="nonzero"/><path fill="#701e2f" d="M 78.175781 316.058594 L 46.972656 316.058594 C 46.539062 316.058594 46.109375 316.015625 45.679688 315.933594 C 45.253906 315.847656 44.839844 315.722656 44.4375 315.554688 C 44.039062 315.390625 43.65625 315.183594 43.292969 314.941406 C 42.933594 314.703125 42.597656 314.425781 42.289062 314.121094 C 41.984375 313.8125 41.707031 313.476562 41.464844 313.117188 C 41.226562 312.753906 41.019531 312.375 40.855469 311.972656 C 40.6875 311.570312 40.5625 311.15625 40.476562 310.730469 C 40.390625 310.304688 40.347656 309.875 40.347656 309.4375 L 40.347656 278.261719 C 40.347656 277.824219 40.390625 277.394531 40.476562 276.96875 C 40.5625 276.542969 40.6875 276.128906 40.855469 275.726562 C 41.019531 275.324219 41.226562 274.945312 41.464844 274.582031 C 41.707031 274.222656 41.984375 273.886719 42.289062 273.578125 C 42.597656 273.273438 42.933594 272.996094 43.292969 272.757812 C 43.65625 272.515625 44.039062 272.3125 44.4375 272.144531 C 44.839844 271.976562 45.253906 271.851562 45.679688 271.765625 C 46.109375 271.683594 46.539062 271.640625 46.972656 271.640625 L 78.199219 271.640625 C 78.636719 271.640625 79.066406 271.683594 79.492188 271.769531 C 79.917969 271.851562 80.332031 271.980469 80.730469 272.144531 C 81.132812 272.3125 81.515625 272.515625 81.875 272.757812 C 82.238281 273 82.570312 273.273438 82.878906 273.582031 C 83.183594 273.890625 83.460938 274.222656 83.699219 274.585938 C 83.941406 274.945312 84.144531 275.328125 84.3125 275.730469 C 84.480469 276.128906 84.605469 276.542969 84.691406 276.96875 C 84.773438 277.394531 84.816406 277.828125 84.820312 278.261719 L 84.820312 309.4375 C 84.816406 309.875 84.773438 310.304688 84.691406 310.734375 C 84.605469 311.160156 84.476562 311.574219 84.308594 311.976562 C 84.144531 312.378906 83.9375 312.761719 83.695312 313.121094 C 83.453125 313.484375 83.179688 313.820312 82.871094 314.125 C 82.5625 314.433594 82.226562 314.707031 81.863281 314.949219 C 81.5 315.191406 81.117188 315.394531 80.714844 315.558594 C 80.3125 315.726562 79.898438 315.851562 79.46875 315.933594 C 79.042969 316.019531 78.609375 316.0625 78.175781 316.058594 Z M 47.4375 308.964844 L 77.695312 308.964844 L 77.695312 278.738281 L 47.4375 278.738281 Z M 47.4375 308.964844 " fill-opacity="1" fill-rule="nonzero"/><path fill="#701e2f" d="M 194.921875 288.015625 L 105.242188 288.015625 C 104.769531 288.015625 104.316406 287.925781 103.882812 287.746094 C 103.449219 287.566406 103.0625 287.308594 102.730469 286.976562 C 102.398438 286.644531 102.140625 286.261719 101.960938 285.824219 C 101.78125 285.390625 101.691406 284.9375 101.691406 284.46875 C 101.691406 283.996094 101.78125 283.542969 101.960938 283.109375 C 102.140625 282.675781 102.398438 282.289062 102.730469 281.957031 C 103.0625 281.625 103.449219 281.367188 103.882812 281.1875 C 104.316406 281.007812 104.769531 280.917969 105.242188 280.917969 L 194.921875 280.917969 C 195.394531 280.917969 195.847656 281.007812 196.28125 281.1875 C 196.714844 281.367188 197.101562 281.625 197.433594 281.957031 C 197.765625 282.289062 198.023438 282.675781 198.203125 283.109375 C 198.382812 283.542969 198.472656 283.996094 198.472656 284.46875 C 198.472656 284.9375 198.382812 285.390625 198.203125 285.824219 C 198.023438 286.261719 197.765625 286.644531 197.433594 286.976562 C 197.101562 287.308594 196.714844 287.566406 196.28125 287.746094 C 195.847656 287.925781 195.394531 288.015625 194.921875 288.015625 Z M 194.921875 288.015625 " fill-opacity="1" fill-rule="nonzero"/><path fill="#701e2f" d="M 186.023438 306.777344 L 105.242188 306.777344 C 104.769531 306.777344 104.316406 306.6875 103.882812 306.507812 C 103.449219 306.328125 103.0625 306.070312 102.730469 305.738281 C 102.398438 305.40625 102.140625 305.019531 101.960938 304.585938 C 101.78125 304.152344 101.691406 303.699219 101.691406 303.230469 C 101.691406 302.757812 101.78125 302.304688 101.960938 301.871094 C 102.140625 301.4375 102.398438 301.050781 102.730469 300.71875 C 103.0625 300.386719 103.449219 300.128906 103.882812 299.949219 C 104.316406 299.769531 104.769531 299.679688 105.242188 299.679688 L 186.023438 299.679688 C 186.496094 299.679688 186.945312 299.769531 187.382812 299.949219 C 187.816406 300.128906 188.199219 300.386719 188.53125 300.71875 C 188.867188 301.050781 189.121094 301.4375 189.300781 301.871094 C 189.480469 302.304688 189.570312 302.757812 189.570312 303.230469 C 189.570312 303.699219 189.480469 304.152344 189.300781 304.585938 C 189.121094 305.019531 188.867188 305.40625 188.53125 305.738281 C 188.199219 306.070312 187.816406 306.328125 187.382812 306.507812 C 186.945312 306.6875 186.496094 306.777344 186.023438 306.777344 Z M 186.023438 306.777344 " fill-opacity="1" fill-rule="nonzero"/><path fill="#701e2f" d="M 237.304688 298.332031 C 236.324219 298.332031 235.484375 297.984375 234.792969 297.292969 L 213.816406 276.285156 C 213.484375 275.953125 213.226562 275.566406 213.046875 275.132812 C 212.867188 274.699219 212.777344 274.246094 212.777344 273.777344 C 212.777344 273.308594 212.867188 272.855469 213.046875 272.421875 C 213.226562 271.984375 213.484375 271.601562 213.816406 271.269531 L 325.730469 159.355469 C 327.453125 157.625 329.441406 156.292969 331.695312 155.359375 C 333.949219 154.421875 336.296875 153.960938 338.738281 153.964844 L 338.769531 153.964844 C 339.671875 153.96875 340.570312 154.035156 341.460938 154.167969 C 342.355469 154.304688 343.234375 154.503906 344.097656 154.765625 C 344.960938 155.03125 345.800781 155.355469 346.613281 155.742188 C 347.429688 156.128906 348.214844 156.574219 348.964844 157.078125 C 349.714844 157.582031 350.421875 158.136719 351.089844 158.742188 C 351.757812 159.351562 352.378906 160.003906 352.949219 160.703125 C 353.523438 161.402344 354.039062 162.140625 354.503906 162.914062 C 354.964844 163.6875 355.371094 164.492188 355.714844 165.328125 C 356.058594 166.164062 356.339844 167.019531 356.558594 167.894531 C 356.777344 168.769531 356.933594 169.65625 357.019531 170.554688 C 357.105469 171.453125 357.128906 172.355469 357.082031 173.257812 C 357.039062 174.160156 356.929688 175.050781 356.75 175.9375 C 356.574219 176.824219 356.335938 177.691406 356.03125 178.542969 C 355.726562 179.390625 355.359375 180.214844 354.933594 181.011719 C 354.507812 181.808594 354.027344 182.566406 353.488281 183.292969 C 352.949219 184.019531 352.363281 184.699219 351.722656 185.339844 L 239.8125 297.292969 C 239.121094 297.984375 238.285156 298.332031 237.304688 298.332031 Z M 221.335938 273.777344 L 237.304688 289.765625 L 346.707031 180.332031 C 347.496094 179.542969 348.152344 178.65625 348.675781 177.675781 C 349.203125 176.691406 349.574219 175.65625 349.792969 174.5625 C 350.011719 173.46875 350.066406 172.367188 349.957031 171.257812 C 349.847656 170.148438 349.582031 169.078125 349.15625 168.050781 C 348.730469 167.019531 348.167969 166.074219 347.460938 165.210938 C 346.753906 164.347656 345.941406 163.605469 345.015625 162.984375 C 344.089844 162.363281 343.09375 161.890625 342.027344 161.566406 C 340.960938 161.238281 339.871094 161.074219 338.757812 161.074219 C 337.257812 161.066406 335.816406 161.351562 334.429688 161.921875 C 333.046875 162.496094 331.824219 163.3125 330.765625 164.375 Z M 221.335938 273.777344 " fill-opacity="1" fill-rule="nonzero"/><path fill="#701e2f" d="M 342.214844 193.417969 C 341.234375 193.421875 340.398438 193.074219 339.703125 192.378906 L 318.714844 171.390625 C 318.382812 171.058594 318.125 170.675781 317.945312 170.242188 C 317.765625 169.804688 317.675781 169.355469 317.675781 168.882812 C 317.675781 168.414062 317.765625 167.960938 317.945312 167.527344 C 318.125 167.089844 318.382812 166.707031 318.714844 166.375 L 325.742188 159.347656 C 326.167969 158.921875 326.613281 158.519531 327.078125 158.136719 C 327.542969 157.753906 328.027344 157.394531 328.527344 157.0625 C 329.027344 156.726562 329.542969 156.417969 330.074219 156.132812 C 330.605469 155.847656 331.152344 155.59375 331.707031 155.363281 C 332.261719 155.132812 332.828125 154.929688 333.40625 154.753906 C 333.980469 154.578125 334.566406 154.433594 335.15625 154.316406 C 335.746094 154.199219 336.34375 154.109375 336.941406 154.050781 C 337.539062 153.992188 338.140625 153.960938 338.742188 153.960938 C 339.347656 153.960938 339.945312 153.992188 340.546875 154.050781 C 341.144531 154.109375 341.742188 154.195312 342.332031 154.316406 C 342.921875 154.433594 343.503906 154.578125 344.082031 154.753906 C 344.660156 154.925781 345.226562 155.128906 345.78125 155.359375 C 346.335938 155.589844 346.882812 155.847656 347.414062 156.132812 C 347.945312 156.417969 348.460938 156.726562 348.960938 157.058594 C 349.460938 157.394531 349.945312 157.753906 350.410156 158.132812 C 350.875 158.515625 351.320312 158.921875 351.746094 159.347656 C 352.171875 159.773438 352.578125 160.21875 352.960938 160.683594 C 353.339844 161.148438 353.699219 161.632812 354.035156 162.132812 C 354.367188 162.632812 354.679688 163.148438 354.960938 163.679688 C 355.246094 164.210938 355.503906 164.753906 355.734375 165.3125 C 355.964844 165.867188 356.167969 166.433594 356.339844 167.011719 C 356.515625 167.585938 356.664062 168.171875 356.78125 168.761719 C 356.898438 169.351562 356.984375 169.945312 357.046875 170.546875 C 357.105469 171.144531 357.132812 171.746094 357.132812 172.347656 C 357.132812 172.953125 357.105469 173.550781 357.046875 174.152344 C 356.988281 174.75 356.898438 175.347656 356.78125 175.9375 C 356.664062 176.527344 356.515625 177.109375 356.34375 177.6875 C 356.167969 178.261719 355.964844 178.828125 355.734375 179.386719 C 355.503906 179.941406 355.246094 180.488281 354.964844 181.015625 C 354.679688 181.546875 354.371094 182.066406 354.035156 182.566406 C 353.699219 183.066406 353.34375 183.550781 352.960938 184.015625 C 352.578125 184.480469 352.175781 184.925781 351.75 185.351562 L 344.722656 192.378906 C 344.03125 193.074219 343.195312 193.421875 342.214844 193.417969 Z M 326.246094 168.867188 L 342.214844 184.835938 L 346.730469 180.320312 C 347.253906 179.796875 347.71875 179.226562 348.125 178.609375 C 348.535156 177.992188 348.878906 177.34375 349.160156 176.65625 C 349.441406 175.972656 349.652344 175.269531 349.796875 174.542969 C 349.9375 173.816406 350.011719 173.085938 350.007812 172.34375 C 350.007812 171.605469 349.933594 170.871094 349.789062 170.148438 C 349.644531 169.421875 349.429688 168.71875 349.144531 168.035156 C 348.859375 167.351562 348.515625 166.703125 348.101562 166.089844 C 347.691406 165.472656 347.222656 164.90625 346.703125 164.382812 C 346.179688 163.859375 345.609375 163.390625 344.996094 162.980469 C 344.378906 162.570312 343.730469 162.222656 343.046875 161.9375 C 342.363281 161.65625 341.660156 161.441406 340.933594 161.292969 C 340.210938 161.148438 339.476562 161.074219 338.738281 161.074219 C 338 161.074219 337.265625 161.144531 336.539062 161.285156 C 335.8125 161.429688 335.109375 161.640625 334.425781 161.921875 C 333.742188 162.203125 333.089844 162.546875 332.472656 162.957031 C 331.859375 163.367188 331.289062 163.832031 330.761719 164.351562 Z M 326.246094 168.867188 " fill-opacity="1" fill-rule="nonzero"/><path fill="#701e2f" d="M 207.085938 307.554688 C 206.808594 307.554688 206.535156 307.523438 206.265625 307.457031 C 205.996094 307.394531 205.734375 307.300781 205.488281 307.175781 C 205.242188 307.050781 205.011719 306.898438 204.796875 306.71875 C 204.585938 306.539062 204.398438 306.339844 204.234375 306.117188 C 204.070312 305.894531 203.929688 305.65625 203.824219 305.398438 C 203.714844 305.144531 203.636719 304.878906 203.589844 304.605469 C 203.542969 304.335938 203.527344 304.058594 203.542969 303.78125 C 203.5625 303.503906 203.609375 303.234375 203.691406 302.96875 L 212.917969 272.746094 C 213.007812 272.453125 213.132812 272.175781 213.292969 271.917969 C 213.457031 271.65625 213.648438 271.421875 213.867188 271.210938 C 214.089844 271 214.335938 270.820312 214.605469 270.671875 C 214.871094 270.527344 215.15625 270.414062 215.453125 270.339844 C 215.75 270.265625 216.050781 270.230469 216.355469 270.234375 C 216.664062 270.238281 216.964844 270.28125 217.257812 270.363281 C 217.554688 270.445312 217.832031 270.5625 218.097656 270.71875 C 218.363281 270.871094 218.601562 271.058594 218.820312 271.273438 L 239.804688 292.261719 C 240.023438 292.480469 240.207031 292.71875 240.363281 292.984375 C 240.515625 293.25 240.632812 293.527344 240.714844 293.824219 C 240.796875 294.121094 240.839844 294.417969 240.84375 294.726562 C 240.847656 295.03125 240.8125 295.332031 240.738281 295.628906 C 240.664062 295.925781 240.554688 296.210938 240.40625 296.480469 C 240.257812 296.746094 240.078125 296.992188 239.867188 297.214844 C 239.660156 297.4375 239.421875 297.628906 239.164062 297.789062 C 238.902344 297.949219 238.625 298.074219 238.332031 298.164062 L 208.113281 307.390625 C 207.777344 307.496094 207.433594 307.550781 207.085938 307.554688 Z M 217.984375 280.46875 L 212.429688 298.660156 L 230.621094 293.105469 Z M 217.984375 280.46875 " fill-opacity="1" fill-rule="nonzero"/></svg>