<svg xmlns="http://www.w3.org/2000/svg" xmlns:xlink="http://www.w3.org/1999/xlink" width="474" zoomAndPan="magnify" viewBox="0 0 355.5 165.000002" height="220" preserveAspectRatio="xMidYMid meet" version="1.0"><defs><clipPath id="6bc56b93e5"><path d="M 89.546875 48.804688 L 265.652344 48.804688 L 265.652344 115.199219 L 89.546875 115.199219 Z M 89.546875 48.804688 " clip-rule="nonzero"/></clipPath><clipPath id="5ac249983d"><path d="M 122.746094 48.804688 L 232.257812 48.804688 C 241.0625 48.804688 249.507812 52.300781 255.730469 58.527344 C 261.957031 64.753906 265.457031 73.199219 265.457031 82.003906 C 265.457031 90.808594 261.957031 99.25 255.730469 105.476562 C 249.507812 111.703125 241.0625 115.199219 232.257812 115.199219 L 122.746094 115.199219 C 113.941406 115.199219 105.496094 111.703125 99.269531 105.476562 C 93.046875 99.25 89.546875 90.808594 89.546875 82.003906 C 89.546875 73.199219 93.046875 64.753906 99.269531 58.527344 C 105.496094 52.300781 113.941406 48.804688 122.746094 48.804688 Z M 122.746094 48.804688 " clip-rule="nonzero"/></clipPath><clipPath id="f177fe8a9f"><path d="M 204.773438 56.03125 L 256.714844 56.03125 L 256.714844 107.972656 L 204.773438 107.972656 Z M 204.773438 56.03125 " clip-rule="nonzero"/></clipPath><clipPath id="2b401dace1"><path d="M 230.746094 56.03125 C 216.402344 56.03125 204.773438 67.660156 204.773438 82.003906 C 204.773438 96.347656 216.402344 107.972656 230.746094 107.972656 C 245.085938 107.972656 256.714844 96.347656 256.714844 82.003906 C 256.714844 67.660156 245.085938 56.03125 230.746094 56.03125 Z M 230.746094 56.03125 " clip-rule="nonzero"/></clipPath></defs><g clip-path="url(#6bc56b93e5)"><g clip-path="url(#5ac249983d)"><path fill="#701e2f" d="M 89.546875 48.804688 L 265.394531 48.804688 L 265.394531 115.199219 L 89.546875 115.199219 Z M 89.546875 48.804688 " fill-opacity="1" fill-rule="nonzero"/></g></g><g clip-path="url(#f177fe8a9f)"><g clip-path="url(#2b401dace1)"><path fill="#f8f9fa" d="M 204.773438 56.03125 L 256.714844 56.03125 L 256.714844 107.972656 L 204.773438 107.972656 Z M 204.773438 56.03125 " fill-opacity="1" fill-rule="nonzero"/></g></g></svg>