<svg xmlns="http://www.w3.org/2000/svg" xmlns:xlink="http://www.w3.org/1999/xlink" width="474" zoomAndPan="magnify" viewBox="0 0 355.5 165.000002" height="220" preserveAspectRatio="xMidYMid meet" version="1.0"><defs><clipPath id="e52ad826c7"><path d="M 89.546875 48.804688 L 265.480469 48.804688 L 265.480469 115.152344 L 89.546875 115.152344 Z M 89.546875 48.804688 " clip-rule="nonzero"/></clipPath><clipPath id="a2132a2d39"><path d="M 122.746094 48.804688 L 232.25 48.804688 C 241.054688 48.804688 249.496094 52.304688 255.722656 58.527344 C 261.949219 64.753906 265.445312 73.199219 265.445312 82.003906 C 265.445312 90.804688 261.949219 99.25 255.722656 105.476562 C 249.496094 111.699219 241.054688 115.199219 232.25 115.199219 L 122.746094 115.199219 C 113.941406 115.199219 105.496094 111.699219 99.269531 105.476562 C 93.046875 99.25 89.546875 90.804688 89.546875 82.003906 C 89.546875 73.199219 93.046875 64.753906 99.269531 58.527344 C 105.496094 52.304688 113.941406 48.804688 122.746094 48.804688 Z M 122.746094 48.804688 " clip-rule="nonzero"/></clipPath><clipPath id="2159027b0b"><path d="M 97.503906 56.03125 L 149.445312 56.03125 L 149.445312 107.972656 L 97.503906 107.972656 Z M 97.503906 56.03125 " clip-rule="nonzero"/></clipPath><clipPath id="f9b1c3f181"><path d="M 123.476562 56.03125 C 109.132812 56.03125 97.503906 67.660156 97.503906 82.003906 C 97.503906 96.347656 109.132812 107.972656 123.476562 107.972656 C 137.816406 107.972656 149.445312 96.347656 149.445312 82.003906 C 149.445312 67.660156 137.816406 56.03125 123.476562 56.03125 Z M 123.476562 56.03125 " clip-rule="nonzero"/></clipPath></defs><g clip-path="url(#e52ad826c7)"><g clip-path="url(#a2132a2d39)"><path stroke-linecap="butt" transform="matrix(0.745482, 0, 0, 0.745482, 89.547773, 48.805873)" fill="none" stroke-linejoin="miter" d="M 44.532701 -0.00159022 L 191.422803 -0.00159022 C 203.233536 -0.00159022 214.556959 4.69336 222.909359 13.04052 C 231.261758 21.392919 235.951469 32.721582 235.951469 44.532315 C 235.951469 56.337809 231.261758 67.666472 222.909359 76.018871 C 214.556959 84.366031 203.233536 89.060981 191.422803 89.060981 L 44.532701 89.060981 C 32.721967 89.060981 21.393305 84.366031 13.040905 76.018871 C 4.693745 67.666472 -0.00120507 56.337809 -0.00120507 44.532315 C -0.00120507 32.721582 4.693745 21.392919 13.040905 13.04052 C 21.393305 4.69336 32.721967 -0.00159022 44.532701 -0.00159022 Z M 44.532701 -0.00159022 " stroke="#701e2f" stroke-width="6" stroke-opacity="1" stroke-miterlimit="4"/></g></g><g clip-path="url(#2159027b0b)"><g clip-path="url(#f9b1c3f181)"><path fill="#701e2f" d="M 97.503906 56.03125 L 149.445312 56.03125 L 149.445312 107.972656 L 97.503906 107.972656 Z M 97.503906 56.03125 " fill-opacity="1" fill-rule="nonzero"/></g></g></svg>