<svg xmlns="http://www.w3.org/2000/svg" xmlns:xlink="http://www.w3.org/1999/xlink" width="500" zoomAndPan="magnify" viewBox="0 0 375 374.999991" height="500" preserveAspectRatio="xMidYMid meet" version="1.0"><defs><clipPath id="1d01ba9aea"><path d="M 30.640625 20.503906 L 259 20.503906 L 259 346 L 30.640625 346 Z M 30.640625 20.503906 " clip-rule="nonzero"/></clipPath><clipPath id="070473402f"><path d="M 193 183 L 356.140625 183 L 356.140625 346 L 193 346 Z M 193 183 " clip-rule="nonzero"/></clipPath></defs><rect x="-37.5" width="450" fill="#ffffff" y="-37.499999" height="449.999989" fill-opacity="1"/><rect x="-37.5" width="450" fill="#ffffff" y="-37.499999" height="449.999989" fill-opacity="1"/><g clip-path="url(#1d01ba9aea)"><path fill="#701e2f" d="M 213.355469 335.0625 L 68.601562 335.0625 C 53.632812 335.0625 41.484375 322.914062 41.484375 307.945312 L 41.484375 58.46875 C 41.484375 43.5 53.632812 31.351562 68.601562 31.351562 L 102.878906 31.351562 L 109.660156 48.273438 C 112.152344 54.453125 118.066406 58.46875 124.789062 58.46875 L 164.328125 58.46875 C 170.996094 58.46875 176.964844 54.453125 179.457031 48.21875 L 186.238281 31.351562 L 220.515625 31.351562 C 235.484375 31.351562 247.632812 43.5 247.632812 58.46875 L 247.632812 169.433594 C 247.632812 172.414062 250.070312 174.855469 253.054688 174.855469 C 256.039062 174.855469 258.476562 172.414062 258.476562 169.433594 L 258.476562 58.46875 C 258.476562 37.535156 241.449219 20.503906 220.515625 20.503906 L 68.601562 20.503906 C 47.667969 20.503906 30.640625 37.535156 30.640625 58.46875 L 30.640625 307.945312 C 30.640625 328.878906 47.667969 345.910156 68.601562 345.910156 L 213.355469 345.910156 C 216.335938 345.910156 218.777344 343.46875 218.777344 340.488281 C 218.777344 337.503906 216.335938 335.0625 213.355469 335.0625 Z M 174.46875 31.351562 L 169.316406 44.203125 C 168.503906 46.265625 166.496094 47.621094 164.273438 47.621094 L 124.734375 47.621094 C 122.511719 47.621094 120.503906 46.265625 119.691406 44.203125 L 114.539062 31.351562 Z M 174.46875 31.351562 " fill-opacity="1" fill-rule="nonzero"/></g><g clip-path="url(#070473402f)"><path fill="#701e2f" d="M 356.046875 264.558594 C 356.046875 219.707031 319.546875 183.207031 274.695312 183.207031 C 229.84375 183.207031 193.34375 219.707031 193.34375 264.558594 C 193.34375 287.230469 202.726562 307.785156 217.746094 322.535156 C 217.964844 322.753906 218.128906 322.914062 218.34375 323.078125 C 232.988281 337.179688 252.835938 345.855469 274.695312 345.855469 C 296.550781 345.855469 316.398438 337.125 331.042969 323.078125 C 331.261719 322.914062 331.476562 322.699219 331.695312 322.535156 C 346.71875 307.785156 356.101562 287.230469 356.101562 264.558594 Z M 274.695312 194.054688 C 313.578125 194.054688 345.199219 225.671875 345.199219 264.558594 C 345.199219 280.882812 339.558594 295.90625 330.230469 307.890625 C 325.347656 291.730469 310.761719 280.828125 293.894531 280.828125 L 255.496094 280.828125 C 238.628906 280.828125 224.039062 291.675781 219.15625 307.890625 C 209.777344 295.90625 204.1875 280.9375 204.1875 264.558594 C 204.1875 225.671875 235.808594 194.054688 274.695312 194.054688 Z M 227.726562 317.003906 L 229.515625 311.039062 C 232.988281 299.484375 243.402344 291.675781 255.441406 291.675781 L 293.839844 291.675781 C 305.878906 291.675781 316.292969 299.429688 319.761719 311.039062 L 321.550781 317.003906 C 309.078125 328.175781 292.644531 335.0625 274.585938 335.0625 C 256.527344 335.0625 240.148438 328.175781 227.617188 317.003906 Z M 227.726562 317.003906 " fill-opacity="1" fill-rule="nonzero"/></g><path fill="#701e2f" d="M 274.695312 269.980469 C 289.664062 269.980469 301.8125 257.832031 301.8125 242.863281 C 301.8125 227.894531 289.664062 215.746094 274.695312 215.746094 C 259.726562 215.746094 247.578125 227.894531 247.578125 242.863281 C 247.578125 257.832031 259.726562 269.980469 274.695312 269.980469 Z M 274.695312 226.59375 C 283.644531 226.59375 290.964844 233.917969 290.964844 242.863281 C 290.964844 251.8125 283.644531 259.136719 274.695312 259.136719 C 265.746094 259.136719 258.421875 251.8125 258.421875 242.863281 C 258.421875 233.917969 265.746094 226.59375 274.695312 226.59375 Z M 274.695312 226.59375 " fill-opacity="1" fill-rule="nonzero"/><path fill="#701e2f" d="M 106.566406 104.566406 C 109.550781 104.566406 111.992188 102.125 111.992188 99.144531 C 111.992188 96.160156 109.550781 93.71875 106.566406 93.71875 L 79.449219 93.71875 C 73.484375 93.71875 68.601562 98.601562 68.601562 104.566406 L 68.601562 147.953125 C 68.601562 153.921875 73.484375 158.800781 79.449219 158.800781 L 122.835938 158.800781 C 128.804688 158.800781 133.683594 153.921875 133.683594 147.953125 L 133.683594 137.109375 C 133.683594 134.125 131.242188 131.683594 128.261719 131.683594 C 125.277344 131.683594 122.835938 134.125 122.835938 137.109375 L 122.835938 147.953125 L 79.449219 147.953125 L 79.449219 104.566406 Z M 106.566406 104.566406 " fill-opacity="1" fill-rule="nonzero"/><path fill="#701e2f" d="M 142.957031 95.292969 C 140.84375 93.179688 137.425781 93.179688 135.3125 95.292969 L 106.621094 123.984375 L 99.625 116.988281 C 97.511719 114.871094 94.09375 114.871094 91.976562 116.988281 C 89.863281 119.101562 89.863281 122.519531 91.976562 124.632812 L 102.824219 135.480469 C 103.910156 136.566406 105.265625 137.054688 106.675781 137.054688 C 108.085938 137.054688 109.441406 136.511719 110.527344 135.480469 L 143.066406 102.941406 C 145.183594 100.824219 145.183594 97.410156 143.066406 95.292969 Z M 142.957031 95.292969 " fill-opacity="1" fill-rule="nonzero"/><path fill="#701e2f" d="M 68.601562 240.152344 C 68.601562 246.117188 73.484375 251 79.449219 251 L 122.835938 251 C 128.804688 251 133.683594 246.117188 133.683594 240.152344 L 133.683594 229.304688 C 133.683594 226.324219 131.242188 223.882812 128.261719 223.882812 C 125.277344 223.882812 122.835938 226.324219 122.835938 229.304688 L 122.835938 240.152344 L 79.449219 240.152344 L 79.449219 196.765625 L 106.566406 196.765625 C 109.550781 196.765625 111.992188 194.324219 111.992188 191.34375 C 111.992188 188.359375 109.550781 185.917969 106.566406 185.917969 L 79.449219 185.917969 C 73.484375 185.917969 68.601562 190.800781 68.601562 196.765625 Z M 68.601562 240.152344 " fill-opacity="1" fill-rule="nonzero"/><path fill="#701e2f" d="M 142.957031 187.492188 C 140.84375 185.375 137.425781 185.375 135.3125 187.492188 L 106.621094 216.183594 L 99.625 209.183594 C 97.511719 207.070312 94.09375 207.070312 91.976562 209.183594 C 89.863281 211.300781 89.863281 214.71875 91.976562 216.832031 L 102.824219 227.679688 C 103.910156 228.765625 105.265625 229.253906 106.675781 229.253906 C 108.085938 229.253906 109.441406 228.710938 110.527344 227.679688 L 143.066406 195.140625 C 145.183594 193.023438 145.183594 189.605469 143.066406 187.492188 Z M 142.957031 187.492188 " fill-opacity="1" fill-rule="nonzero"/><path fill="#701e2f" d="M 193.34375 137.109375 L 160.800781 137.109375 C 157.820312 137.109375 155.378906 139.546875 155.378906 142.53125 C 155.378906 145.515625 157.820312 147.953125 160.800781 147.953125 L 193.34375 147.953125 C 196.324219 147.953125 198.765625 145.515625 198.765625 142.53125 C 198.765625 139.546875 196.324219 137.109375 193.34375 137.109375 Z M 193.34375 137.109375 " fill-opacity="1" fill-rule="nonzero"/><path fill="#701e2f" d="M 231.304688 109.992188 C 231.304688 107.007812 228.867188 104.566406 225.882812 104.566406 L 160.800781 104.566406 C 157.820312 104.566406 155.378906 107.007812 155.378906 109.992188 C 155.378906 112.972656 157.820312 115.414062 160.800781 115.414062 L 225.882812 115.414062 C 228.867188 115.414062 231.304688 112.972656 231.304688 109.992188 Z M 231.304688 109.992188 " fill-opacity="1" fill-rule="nonzero"/><path fill="#701e2f" d="M 193.34375 196.765625 L 160.800781 196.765625 C 157.820312 196.765625 155.378906 199.207031 155.378906 202.1875 C 155.378906 205.171875 157.820312 207.613281 160.800781 207.613281 L 193.34375 207.613281 C 196.324219 207.613281 198.765625 205.171875 198.765625 202.1875 C 198.765625 199.207031 196.324219 196.765625 193.34375 196.765625 Z M 193.34375 196.765625 " fill-opacity="1" fill-rule="nonzero"/></svg>